G04*
G04 #@! TF.GenerationSoftware,Altium Limited,Altium Designer,22.10.1 (41)*
G04*
G04 Layer_Physical_Order=1*
G04 Layer_Color=255*
%FSLAX44Y44*%
%MOMM*%
G71*
G04*
G04 #@! TF.SameCoordinates,B11F2CDB-B4DC-4695-A2B3-7529A6E467DA*
G04*
G04*
G04 #@! TF.FilePolarity,Positive*
G04*
G01*
G75*
%ADD10C,0.5000*%
%ADD14C,0.3000*%
%ADD15C,0.4000*%
%ADD19C,0.2540*%
%ADD20R,0.8128X1.0160*%
%ADD21R,2.5000X0.7000*%
%ADD22R,4.0000X2.0000*%
%ADD23R,0.7500X1.4000*%
G04:AMPARAMS|DCode=24|XSize=1mm|YSize=0.9mm|CornerRadius=0.1125mm|HoleSize=0mm|Usage=FLASHONLY|Rotation=90.000|XOffset=0mm|YOffset=0mm|HoleType=Round|Shape=RoundedRectangle|*
%AMROUNDEDRECTD24*
21,1,1.0000,0.6750,0,0,90.0*
21,1,0.7750,0.9000,0,0,90.0*
1,1,0.2250,0.3375,0.3875*
1,1,0.2250,0.3375,-0.3875*
1,1,0.2250,-0.3375,-0.3875*
1,1,0.2250,-0.3375,0.3875*
%
%ADD24ROUNDEDRECTD24*%
%ADD25R,1.0500X0.4000*%
%ADD26R,0.7000X0.3000*%
%ADD27R,0.3000X0.7000*%
G04:AMPARAMS|DCode=28|XSize=1mm|YSize=1mm|CornerRadius=0.25mm|HoleSize=0mm|Usage=FLASHONLY|Rotation=0.000|XOffset=0mm|YOffset=0mm|HoleType=Round|Shape=RoundedRectangle|*
%AMROUNDEDRECTD28*
21,1,1.0000,0.5000,0,0,0.0*
21,1,0.5000,1.0000,0,0,0.0*
1,1,0.5000,0.2500,-0.2500*
1,1,0.5000,-0.2500,-0.2500*
1,1,0.5000,-0.2500,0.2500*
1,1,0.5000,0.2500,0.2500*
%
%ADD28ROUNDEDRECTD28*%
%ADD29R,0.9500X0.9000*%
G04:AMPARAMS|DCode=30|XSize=1.4mm|YSize=1mm|CornerRadius=0.125mm|HoleSize=0mm|Usage=FLASHONLY|Rotation=90.000|XOffset=0mm|YOffset=0mm|HoleType=Round|Shape=RoundedRectangle|*
%AMROUNDEDRECTD30*
21,1,1.4000,0.7500,0,0,90.0*
21,1,1.1500,1.0000,0,0,90.0*
1,1,0.2500,0.3750,0.5750*
1,1,0.2500,0.3750,-0.5750*
1,1,0.2500,-0.3750,-0.5750*
1,1,0.2500,-0.3750,0.5750*
%
%ADD30ROUNDEDRECTD30*%
G04:AMPARAMS|DCode=31|XSize=0.76mm|YSize=2.4mm|CornerRadius=0.114mm|HoleSize=0mm|Usage=FLASHONLY|Rotation=180.000|XOffset=0mm|YOffset=0mm|HoleType=Round|Shape=RoundedRectangle|*
%AMROUNDEDRECTD31*
21,1,0.7600,2.1720,0,0,180.0*
21,1,0.5320,2.4000,0,0,180.0*
1,1,0.2280,-0.2660,1.0860*
1,1,0.2280,0.2660,1.0860*
1,1,0.2280,0.2660,-1.0860*
1,1,0.2280,-0.2660,-1.0860*
%
%ADD31ROUNDEDRECTD31*%
G04:AMPARAMS|DCode=32|XSize=1mm|YSize=0.9mm|CornerRadius=0.1125mm|HoleSize=0mm|Usage=FLASHONLY|Rotation=0.000|XOffset=0mm|YOffset=0mm|HoleType=Round|Shape=RoundedRectangle|*
%AMROUNDEDRECTD32*
21,1,1.0000,0.6750,0,0,0.0*
21,1,0.7750,0.9000,0,0,0.0*
1,1,0.2250,0.3875,-0.3375*
1,1,0.2250,-0.3875,-0.3375*
1,1,0.2250,-0.3875,0.3375*
1,1,0.2250,0.3875,0.3375*
%
%ADD32ROUNDEDRECTD32*%
%ADD33R,1.6000X4.2000*%
G04:AMPARAMS|DCode=34|XSize=1.4mm|YSize=1mm|CornerRadius=0.125mm|HoleSize=0mm|Usage=FLASHONLY|Rotation=0.000|XOffset=0mm|YOffset=0mm|HoleType=Round|Shape=RoundedRectangle|*
%AMROUNDEDRECTD34*
21,1,1.4000,0.7500,0,0,0.0*
21,1,1.1500,1.0000,0,0,0.0*
1,1,0.2500,0.5750,-0.3750*
1,1,0.2500,-0.5750,-0.3750*
1,1,0.2500,-0.5750,0.3750*
1,1,0.2500,0.5750,0.3750*
%
%ADD34ROUNDEDRECTD34*%
%ADD35R,1.3000X0.3000*%
%ADD36R,3.0000X3.0000*%
G04:AMPARAMS|DCode=37|XSize=0.8mm|YSize=0.9mm|CornerRadius=0.2mm|HoleSize=0mm|Usage=FLASHONLY|Rotation=90.000|XOffset=0mm|YOffset=0mm|HoleType=Round|Shape=RoundedRectangle|*
%AMROUNDEDRECTD37*
21,1,0.8000,0.5000,0,0,90.0*
21,1,0.4000,0.9000,0,0,90.0*
1,1,0.4000,0.2500,0.2000*
1,1,0.4000,0.2500,-0.2000*
1,1,0.4000,-0.2500,-0.2000*
1,1,0.4000,-0.2500,0.2000*
%
%ADD37ROUNDEDRECTD37*%
G04:AMPARAMS|DCode=38|XSize=0.8mm|YSize=0.9mm|CornerRadius=0.2mm|HoleSize=0mm|Usage=FLASHONLY|Rotation=180.000|XOffset=0mm|YOffset=0mm|HoleType=Round|Shape=RoundedRectangle|*
%AMROUNDEDRECTD38*
21,1,0.8000,0.5000,0,0,180.0*
21,1,0.4000,0.9000,0,0,180.0*
1,1,0.4000,-0.2000,0.2500*
1,1,0.4000,0.2000,0.2500*
1,1,0.4000,0.2000,-0.2500*
1,1,0.4000,-0.2000,-0.2500*
%
%ADD38ROUNDEDRECTD38*%
%ADD39R,1.4750X0.3000*%
%ADD40R,0.3000X1.4750*%
%ADD41R,1.4000X0.7500*%
%ADD42R,1.5500X1.0000*%
%ADD43R,0.8000X0.8000*%
%ADD71C,1.5000*%
%ADD72C,1.4000*%
%ADD73C,0.6000*%
G36*
X485017Y488965D02*
X487374Y488965D01*
X491999Y488045D01*
X496356Y486241D01*
X500277Y483623D01*
X503613Y480290D01*
X506234Y476370D01*
X508041Y472015D01*
X508963Y467391D01*
X508965Y464999D01*
Y342063D01*
X482524D01*
X482522Y342062D01*
X482520Y342063D01*
X469996Y342039D01*
X469878Y342015D01*
X468513Y342015D01*
X468316Y341975D01*
X468116Y341975D01*
X465223Y341398D01*
X465037Y341321D01*
X464840Y341281D01*
X462115Y340150D01*
X461949Y340039D01*
X461763Y339962D01*
X459311Y338321D01*
X459169Y338179D01*
X459002Y338067D01*
X456918Y335980D01*
X456806Y335813D01*
X456664Y335671D01*
X455027Y333217D01*
X454950Y333031D01*
X454839Y332864D01*
X453712Y330138D01*
X453673Y329941D01*
X453596Y329755D01*
X453022Y326861D01*
X453022Y326660D01*
X452983Y326464D01*
X452984Y325136D01*
X452961Y325026D01*
X452963Y325013D01*
X452961Y325000D01*
Y165000D01*
X452985Y164880D01*
X452985Y163514D01*
X453025Y163317D01*
X453025Y163116D01*
X453602Y160223D01*
X453680Y160037D01*
X453719Y159840D01*
X454850Y157115D01*
X454961Y156949D01*
X455038Y156763D01*
X456679Y154311D01*
X456821Y154169D01*
X456933Y154002D01*
X459020Y151918D01*
X459187Y151806D01*
X459329Y151664D01*
X461783Y150027D01*
X461969Y149950D01*
X462136Y149839D01*
X464862Y148712D01*
X465059Y148673D01*
X465245Y148596D01*
X468139Y148022D01*
X468340Y148023D01*
X468536Y147984D01*
X469868Y147985D01*
X469980Y147961D01*
X469990Y147963D01*
X470000Y147961D01*
X508965D01*
X508965Y24983D01*
X508965Y22626D01*
X508045Y18001D01*
X506241Y13644D01*
X503623Y9723D01*
X500290Y6387D01*
X496370Y3766D01*
X492015Y1960D01*
X487391Y1037D01*
X485033Y1035D01*
X25001D01*
X25000Y1035D01*
X24999Y1035D01*
X22641Y1034D01*
X18013Y1951D01*
X13654Y3753D01*
X9730Y6371D01*
X6392Y9705D01*
X3768Y13625D01*
X1960Y17982D01*
X1037Y22608D01*
X1035Y24967D01*
X1035Y187961D01*
X56316D01*
X56578Y188013D01*
X56844Y188030D01*
X59388Y188712D01*
X59627Y188830D01*
X59879Y188916D01*
X62160Y190232D01*
X62360Y190408D01*
X62582Y190556D01*
X64444Y192418D01*
X64592Y192640D01*
X64768Y192840D01*
X66084Y195121D01*
X66170Y195373D01*
X66288Y195612D01*
X66970Y198156D01*
X66987Y198422D01*
X67039Y198683D01*
Y201317D01*
X66987Y201578D01*
X66970Y201844D01*
X66288Y204388D01*
X66170Y204627D01*
X66084Y204879D01*
X64768Y207160D01*
X64592Y207360D01*
X64444Y207582D01*
X62582Y209444D01*
X62360Y209592D01*
X62160Y209768D01*
X59879Y211084D01*
X59627Y211170D01*
X59388Y211288D01*
X56844Y211970D01*
X56849Y213230D01*
X58419Y213880D01*
X59620Y215081D01*
X60270Y216651D01*
Y218349D01*
X59620Y219919D01*
X58824Y220714D01*
Y231580D01*
X60420Y233176D01*
X61933D01*
Y232625D01*
X62119Y231691D01*
X62250Y231494D01*
Y223506D01*
X62119Y223309D01*
X61933Y222375D01*
Y220000D01*
X74567D01*
Y222375D01*
X74381Y223309D01*
X74250Y223506D01*
Y231494D01*
X74381Y231691D01*
X74567Y232625D01*
Y239375D01*
X74381Y240310D01*
X73852Y241102D01*
X73060Y241631D01*
X72125Y241817D01*
X70949D01*
Y245683D01*
X71875D01*
X72810Y245869D01*
X73602Y246398D01*
X74131Y247190D01*
X74317Y248125D01*
Y254875D01*
X74131Y255809D01*
X74000Y256006D01*
Y263994D01*
X74131Y264191D01*
X74317Y265125D01*
Y271875D01*
X74131Y272809D01*
X73840Y273245D01*
Y307927D01*
X97323Y331410D01*
X135551D01*
X136581Y330380D01*
X138151Y329730D01*
X139849D01*
X141419Y330380D01*
X142620Y331581D01*
X143270Y333151D01*
Y334849D01*
X142620Y336419D01*
X141419Y337620D01*
X139849Y338270D01*
X138151D01*
X136581Y337620D01*
X135551Y336590D01*
X96250D01*
X95259Y336393D01*
X94419Y335831D01*
X69419Y310831D01*
X68857Y309991D01*
X68660Y309000D01*
Y274317D01*
X64125D01*
X63190Y274131D01*
X62398Y273602D01*
X61869Y272809D01*
X61683Y271875D01*
Y271090D01*
X25500D01*
X24509Y270893D01*
X23669Y270331D01*
X17927Y264590D01*
X12449D01*
X11419Y265620D01*
X9849Y266270D01*
X8151D01*
X6581Y265620D01*
X5380Y264419D01*
X4730Y262849D01*
Y261151D01*
X5380Y259581D01*
X6581Y258380D01*
X8151Y257730D01*
X9849D01*
X11419Y258380D01*
X12449Y259410D01*
X19000D01*
X19991Y259607D01*
X20831Y260169D01*
X26573Y265910D01*
X61683D01*
Y265125D01*
X61869Y264191D01*
X62000Y263994D01*
Y256006D01*
X61869Y255809D01*
X61692Y254922D01*
X61492Y254831D01*
X60413Y254581D01*
X58520Y256474D01*
Y257599D01*
X57870Y259169D01*
X56669Y260370D01*
X55099Y261020D01*
X53401D01*
X51831Y260370D01*
X50630Y259169D01*
X49980Y257599D01*
Y255901D01*
X50630Y254331D01*
X51831Y253130D01*
X53401Y252480D01*
X54526D01*
X57503Y249503D01*
X58419Y248891D01*
X59500Y248676D01*
X59500Y248676D01*
X61683D01*
Y248125D01*
X61869Y247190D01*
X62398Y246398D01*
X63190Y245869D01*
X64125Y245683D01*
X65301D01*
Y241817D01*
X64375D01*
X63440Y241631D01*
X62648Y241102D01*
X62119Y240310D01*
X61933Y239375D01*
Y238824D01*
X59250D01*
X59250Y238824D01*
X58169Y238609D01*
X57253Y237997D01*
X54003Y234747D01*
X53391Y233831D01*
X53176Y232750D01*
X53176Y232750D01*
Y220714D01*
X52380Y219919D01*
X51730Y218349D01*
Y216651D01*
X52380Y215081D01*
X53581Y213880D01*
X55151Y213230D01*
X54959Y212039D01*
X1035D01*
Y277961D01*
X56316D01*
X56578Y278013D01*
X56844Y278030D01*
X59388Y278712D01*
X59627Y278830D01*
X59879Y278916D01*
X62160Y280232D01*
X62360Y280408D01*
X62582Y280556D01*
X64444Y282418D01*
X64592Y282640D01*
X64768Y282840D01*
X66084Y285121D01*
X66170Y285373D01*
X66288Y285612D01*
X66970Y288156D01*
X66987Y288422D01*
X67039Y288683D01*
Y291317D01*
X66987Y291578D01*
X66970Y291844D01*
X66288Y294388D01*
X66170Y294627D01*
X66084Y294879D01*
X64768Y297160D01*
X64592Y297360D01*
X64444Y297582D01*
X62582Y299444D01*
X62360Y299592D01*
X62160Y299768D01*
X59879Y301084D01*
X59627Y301170D01*
X59388Y301288D01*
X56844Y301970D01*
X56578Y301987D01*
X56316Y302039D01*
X55000D01*
X55000Y302039D01*
X1035D01*
Y464999D01*
X1035Y465000D01*
X1035Y465001D01*
X1034Y467359D01*
X1951Y471987D01*
X3753Y476346D01*
X6371Y480270D01*
X9705Y483608D01*
X13625Y486231D01*
X17982Y488040D01*
X22608Y488963D01*
X25001Y488965D01*
X335007D01*
X485017Y488965D01*
D02*
G37*
%LPC*%
G36*
X391020Y475520D02*
X383000D01*
Y470250D01*
X391020D01*
Y475520D01*
D02*
G37*
G36*
X443520D02*
X435500D01*
Y470250D01*
X443520D01*
Y475520D01*
D02*
G37*
G36*
X433500D02*
X425480D01*
Y470250D01*
X433500D01*
Y475520D01*
D02*
G37*
G36*
X381000D02*
X372980D01*
Y470250D01*
X381000D01*
Y475520D01*
D02*
G37*
G36*
X348317Y471250D02*
X343500D01*
Y465933D01*
X345875D01*
X346809Y466119D01*
X347602Y466648D01*
X348131Y467440D01*
X348317Y468375D01*
Y471250D01*
D02*
G37*
G36*
X443520Y468250D02*
X435500D01*
Y462980D01*
X443520D01*
Y468250D01*
D02*
G37*
G36*
X433500D02*
X425480D01*
Y462980D01*
X433500D01*
Y468250D01*
D02*
G37*
G36*
X391020D02*
X383000D01*
Y462980D01*
X391020D01*
Y468250D01*
D02*
G37*
G36*
X381000D02*
X372980D01*
Y462980D01*
X381000D01*
Y468250D01*
D02*
G37*
G36*
X113710Y474567D02*
X112050D01*
Y462250D01*
X116167D01*
Y472110D01*
X115980Y473050D01*
X115448Y473848D01*
X114650Y474380D01*
X113710Y474567D01*
D02*
G37*
G36*
X126410D02*
X124750D01*
Y462250D01*
X128867D01*
Y472110D01*
X128680Y473050D01*
X128147Y473848D01*
X127350Y474380D01*
X126410Y474567D01*
D02*
G37*
G36*
X122750D02*
X121090D01*
X120150Y474380D01*
X119353Y473848D01*
X118820Y473050D01*
X118633Y472110D01*
Y462250D01*
X122750D01*
Y474567D01*
D02*
G37*
G36*
X110050D02*
X108390D01*
X107450Y474380D01*
X106652Y473848D01*
X106120Y473050D01*
X105933Y472110D01*
Y462250D01*
X110050D01*
Y474567D01*
D02*
G37*
G36*
X486333Y479501D02*
X483772D01*
X483575Y479462D01*
X483374D01*
X480863Y478962D01*
X480677Y478885D01*
X480480Y478846D01*
X478114Y477866D01*
X477947Y477755D01*
X477762Y477678D01*
X475633Y476255D01*
X475491Y476113D01*
X475324Y476002D01*
X473513Y474191D01*
X473401Y474024D01*
X473259Y473882D01*
X471837Y471753D01*
X471760Y471567D01*
X471648Y471400D01*
X470668Y469034D01*
X470629Y468837D01*
X470552Y468652D01*
X470052Y466140D01*
Y465939D01*
X470013Y465742D01*
Y463181D01*
X470052Y462984D01*
Y462784D01*
X470552Y460272D01*
X470629Y460087D01*
X470668Y459889D01*
X471648Y457524D01*
X471760Y457357D01*
X471837Y457171D01*
X473259Y455042D01*
X473401Y454900D01*
X473513Y454733D01*
X475324Y452922D01*
X475491Y452811D01*
X475633Y452668D01*
X477762Y451246D01*
X477947Y451169D01*
X478114Y451057D01*
X480480Y450077D01*
X480677Y450038D01*
X480863Y449961D01*
X483374Y449462D01*
X483575D01*
X483772Y449423D01*
X486333D01*
X486530Y449462D01*
X486731D01*
X489242Y449961D01*
X489428Y450038D01*
X489625Y450077D01*
X491991Y451057D01*
X492158Y451169D01*
X492343Y451246D01*
X494472Y452668D01*
X494614Y452811D01*
X494781Y452922D01*
X496592Y454733D01*
X496704Y454900D01*
X496846Y455042D01*
X498269Y457171D01*
X498345Y457357D01*
X498457Y457524D01*
X499437Y459889D01*
X499476Y460087D01*
X499553Y460272D01*
X500052Y462784D01*
Y462984D01*
X500092Y463181D01*
Y465742D01*
X500052Y465939D01*
Y466140D01*
X499553Y468652D01*
X499476Y468837D01*
X499437Y469034D01*
X498457Y471400D01*
X498345Y471567D01*
X498269Y471753D01*
X496846Y473882D01*
X496704Y474024D01*
X496592Y474191D01*
X494781Y476002D01*
X494614Y476113D01*
X494472Y476255D01*
X492343Y477678D01*
X492158Y477755D01*
X491991Y477866D01*
X489625Y478846D01*
X489428Y478885D01*
X489242Y478962D01*
X486731Y479462D01*
X486530D01*
X486333Y479501D01*
D02*
G37*
G36*
X26333D02*
X23772D01*
X23575Y479462D01*
X23374D01*
X20863Y478962D01*
X20677Y478885D01*
X20480Y478846D01*
X18114Y477866D01*
X17947Y477755D01*
X17762Y477678D01*
X15633Y476255D01*
X15491Y476113D01*
X15324Y476002D01*
X13513Y474191D01*
X13401Y474024D01*
X13259Y473882D01*
X11837Y471753D01*
X11760Y471567D01*
X11648Y471400D01*
X10668Y469034D01*
X10629Y468837D01*
X10552Y468652D01*
X10052Y466140D01*
Y465939D01*
X10013Y465742D01*
Y463181D01*
X10052Y462984D01*
Y462784D01*
X10552Y460272D01*
X10629Y460087D01*
X10668Y459889D01*
X11648Y457524D01*
X11760Y457357D01*
X11837Y457171D01*
X13259Y455042D01*
X13401Y454900D01*
X13513Y454733D01*
X15324Y452922D01*
X15491Y452811D01*
X15633Y452668D01*
X17762Y451246D01*
X17947Y451169D01*
X18114Y451057D01*
X20480Y450077D01*
X20677Y450038D01*
X20863Y449961D01*
X23374Y449462D01*
X23575D01*
X23772Y449423D01*
X26333D01*
X26530Y449462D01*
X26731D01*
X29242Y449961D01*
X29428Y450038D01*
X29625Y450077D01*
X31991Y451057D01*
X32158Y451169D01*
X32343Y451246D01*
X34472Y452668D01*
X34614Y452811D01*
X34781Y452922D01*
X36592Y454733D01*
X36704Y454900D01*
X36846Y455042D01*
X38268Y457171D01*
X38345Y457357D01*
X38457Y457524D01*
X39437Y459889D01*
X39476Y460087D01*
X39553Y460272D01*
X40052Y462784D01*
Y462984D01*
X40092Y463181D01*
Y465742D01*
X40052Y465939D01*
Y466140D01*
X39553Y468652D01*
X39476Y468837D01*
X39437Y469034D01*
X38457Y471400D01*
X38345Y471567D01*
X38268Y471753D01*
X36846Y473882D01*
X36704Y474024D01*
X36592Y474191D01*
X34781Y476002D01*
X34614Y476113D01*
X34472Y476255D01*
X32343Y477678D01*
X32158Y477755D01*
X31991Y477866D01*
X29625Y478846D01*
X29428Y478885D01*
X29242Y478962D01*
X26731Y479462D01*
X26530D01*
X26333Y479501D01*
D02*
G37*
G36*
X139110Y474567D02*
X133790D01*
X132850Y474380D01*
X132052Y473848D01*
X131520Y473050D01*
X131333Y472110D01*
Y450390D01*
X131520Y449450D01*
X132052Y448652D01*
X132850Y448120D01*
X133790Y447933D01*
X139110D01*
X140050Y448120D01*
X140848Y448652D01*
X141380Y449450D01*
X141567Y450390D01*
Y472110D01*
X141380Y473050D01*
X140848Y473848D01*
X140050Y474380D01*
X139110Y474567D01*
D02*
G37*
G36*
X128867Y460250D02*
X124750D01*
Y447933D01*
X126410D01*
X127350Y448120D01*
X128147Y448652D01*
X128680Y449450D01*
X128867Y450390D01*
Y460250D01*
D02*
G37*
G36*
X122750D02*
X118633D01*
Y450390D01*
X118820Y449450D01*
X119353Y448652D01*
X120150Y448120D01*
X121090Y447933D01*
X122750D01*
Y460250D01*
D02*
G37*
G36*
X116167D02*
X112050D01*
Y447933D01*
X113710D01*
X114650Y448120D01*
X115448Y448652D01*
X115980Y449450D01*
X116167Y450390D01*
Y460250D01*
D02*
G37*
G36*
X110050D02*
X105933D01*
Y450390D01*
X106120Y449450D01*
X106652Y448652D01*
X107450Y448120D01*
X108390Y447933D01*
X110050D01*
Y460250D01*
D02*
G37*
G36*
X246770Y471520D02*
X228230D01*
Y426980D01*
X246770D01*
Y446660D01*
X252750D01*
X253741Y446857D01*
X254581Y447419D01*
X258327Y451164D01*
X259500Y450678D01*
Y449000D01*
X259500Y449000D01*
X259500D01*
X259418Y448823D01*
X259376Y448733D01*
X259181Y447750D01*
Y440250D01*
X259376Y439267D01*
X259933Y438433D01*
X260767Y437876D01*
X261750Y437681D01*
X264910D01*
Y433750D01*
X265107Y432759D01*
X265669Y431919D01*
X296669Y400919D01*
X297509Y400357D01*
X298500Y400160D01*
X318500D01*
Y398006D01*
X318369Y397809D01*
X318183Y396875D01*
Y394500D01*
X330817D01*
Y396875D01*
X330631Y397809D01*
X330500Y398006D01*
Y400160D01*
X340000D01*
X340991Y400357D01*
X341831Y400919D01*
X351259Y410347D01*
X351820Y411187D01*
X352018Y412178D01*
Y413230D01*
X355770D01*
Y416410D01*
X372980D01*
Y413730D01*
X385020D01*
Y418296D01*
X386290Y418549D01*
X386380Y418331D01*
X387581Y417130D01*
X389151Y416480D01*
X390849D01*
X392419Y417130D01*
X393620Y418331D01*
X394270Y419901D01*
Y421599D01*
X393620Y423169D01*
X392439Y424349D01*
Y425150D01*
X392242Y426141D01*
X391681Y426982D01*
X384831Y433831D01*
X383991Y434393D01*
X383000Y434590D01*
X359573D01*
X355831Y438331D01*
X354991Y438893D01*
X354000Y439090D01*
X329667D01*
X329580Y439526D01*
X328857Y440608D01*
X327776Y441330D01*
X326500Y441584D01*
X321500D01*
X320224Y441330D01*
X319142Y440608D01*
X318420Y439526D01*
X318166Y438250D01*
Y434250D01*
X318420Y432974D01*
X319142Y431893D01*
X320224Y431170D01*
X321410Y430934D01*
Y416317D01*
X320625D01*
X319690Y416131D01*
X318898Y415602D01*
X318369Y414809D01*
X318183Y413875D01*
Y407125D01*
X318286Y406610D01*
X317658Y405559D01*
X317410Y405340D01*
X299573D01*
X270090Y434823D01*
Y437681D01*
X273250D01*
X274233Y437876D01*
X275067Y438433D01*
X275624Y439267D01*
X275819Y440250D01*
Y447750D01*
X275624Y448733D01*
X275500Y449000D01*
X275500Y449000D01*
Y457000D01*
X275500Y457000D01*
X275500D01*
X275582Y457177D01*
X275624Y457267D01*
X275819Y458250D01*
Y459410D01*
X288480D01*
Y455980D01*
X296857D01*
X308919Y443919D01*
X309759Y443357D01*
X310750Y443160D01*
X338283D01*
X338420Y442474D01*
X339142Y441393D01*
X340224Y440670D01*
X341500Y440416D01*
X346500D01*
X347776Y440670D01*
X348857Y441393D01*
X349580Y442474D01*
X349834Y443750D01*
Y447750D01*
X349580Y449026D01*
X348857Y450107D01*
X347776Y450830D01*
X346500Y451084D01*
X341500D01*
X340224Y450830D01*
X339142Y450107D01*
X338420Y449026D01*
X338283Y448340D01*
X311823D01*
X300520Y459642D01*
Y467520D01*
X288480D01*
Y464590D01*
X275819D01*
Y465750D01*
X275624Y466733D01*
X275067Y467567D01*
X274233Y468124D01*
X273250Y468319D01*
X261750D01*
X260767Y468124D01*
X259933Y467567D01*
X259376Y466733D01*
X259181Y465750D01*
Y459343D01*
X251677Y451840D01*
X246770D01*
Y471520D01*
D02*
G37*
G36*
X101010Y474567D02*
X95690D01*
X94750Y474380D01*
X93953Y473848D01*
X93420Y473050D01*
X93233Y472110D01*
Y450390D01*
X93420Y449450D01*
X93953Y448652D01*
X94078Y447539D01*
X93106Y446480D01*
X92111D01*
X90541Y445830D01*
X89340Y444629D01*
X88690Y443059D01*
Y441361D01*
X89340Y439791D01*
X90541Y438590D01*
X92111Y437940D01*
X93809D01*
X95379Y438590D01*
X96580Y439791D01*
X97230Y441361D01*
Y442817D01*
X99578Y445166D01*
X100140Y446006D01*
X100337Y446997D01*
Y447933D01*
X101010D01*
X101950Y448120D01*
X102747Y448652D01*
X103280Y449450D01*
X103467Y450390D01*
Y472110D01*
X103280Y473050D01*
X102747Y473848D01*
X101950Y474380D01*
X101010Y474567D01*
D02*
G37*
G36*
X300520Y436020D02*
X288480D01*
Y424480D01*
X300520D01*
Y427160D01*
X302801D01*
X303831Y426130D01*
X305401Y425480D01*
X307099D01*
X308669Y426130D01*
X309870Y427331D01*
X310520Y428901D01*
Y430599D01*
X309870Y432169D01*
X308669Y433370D01*
X307099Y434020D01*
X305401D01*
X303831Y433370D01*
X302801Y432340D01*
X300520D01*
Y436020D01*
D02*
G37*
G36*
X234250Y422319D02*
X231500D01*
Y415000D01*
X236819D01*
Y419750D01*
X236624Y420733D01*
X236067Y421567D01*
X235233Y422124D01*
X234250Y422319D01*
D02*
G37*
G36*
X126410Y435567D02*
X121090D01*
X120150Y435380D01*
X119353Y434847D01*
X118820Y434050D01*
X118633Y433110D01*
Y411390D01*
X118820Y410450D01*
X119353Y409652D01*
X120150Y409120D01*
X121090Y408933D01*
X126410D01*
X127350Y409120D01*
X128147Y409652D01*
X128680Y410450D01*
X128867Y411390D01*
Y433110D01*
X128680Y434050D01*
X128147Y434847D01*
X127350Y435380D01*
X126410Y435567D01*
D02*
G37*
G36*
X357500Y483840D02*
X152750D01*
X151759Y483643D01*
X150919Y483081D01*
X147319Y479481D01*
X146757Y478641D01*
X146560Y477650D01*
Y474567D01*
X146490D01*
X145550Y474380D01*
X144753Y473848D01*
X144220Y473050D01*
X144033Y472110D01*
Y450390D01*
X144220Y449450D01*
X144753Y448652D01*
X145550Y448120D01*
X146490Y447933D01*
X151810D01*
X152750Y448120D01*
X153547Y448652D01*
X154080Y449450D01*
X154267Y450390D01*
Y458910D01*
X155801D01*
X156831Y457880D01*
X158401Y457230D01*
X160099D01*
X161669Y457880D01*
X162870Y459081D01*
X163520Y460651D01*
Y462349D01*
X162870Y463919D01*
X161669Y465120D01*
X160099Y465770D01*
X158401D01*
X156831Y465120D01*
X155801Y464090D01*
X154267D01*
Y472110D01*
X154080Y473050D01*
X153547Y473848D01*
X152750Y474380D01*
X151810Y474567D01*
X151740D01*
Y476577D01*
X153823Y478660D01*
X319496D01*
X320090Y477390D01*
X319869Y477060D01*
X319683Y476125D01*
Y468375D01*
X319869Y467440D01*
X320398Y466648D01*
X321190Y466119D01*
X322125Y465933D01*
X322160D01*
Y460584D01*
X321500D01*
X320224Y460330D01*
X319142Y459608D01*
X318420Y458526D01*
X318166Y457250D01*
Y453250D01*
X318420Y451974D01*
X319142Y450892D01*
X320224Y450170D01*
X321500Y449916D01*
X326500D01*
X327776Y450170D01*
X328857Y450892D01*
X329580Y451974D01*
X329717Y452660D01*
X349177D01*
X364419Y437419D01*
X365259Y436857D01*
X366250Y436660D01*
X388427D01*
X395879Y429209D01*
X395730Y428849D01*
Y427151D01*
X396380Y425581D01*
X397581Y424380D01*
X399151Y423730D01*
X400849D01*
X402419Y424380D01*
X403620Y425581D01*
X404270Y427151D01*
Y428849D01*
X403620Y430419D01*
X402419Y431620D01*
X400849Y432270D01*
X400143D01*
X391331Y441081D01*
X390491Y441643D01*
X389500Y441840D01*
X367323D01*
X352081Y457081D01*
X351241Y457643D01*
X350250Y457840D01*
X329717D01*
X329580Y458526D01*
X328857Y459608D01*
X327776Y460330D01*
X327340Y460417D01*
Y465933D01*
X328875D01*
X329809Y466119D01*
X330006Y466250D01*
X337994D01*
X338190Y466119D01*
X339125Y465933D01*
X341500D01*
Y472250D01*
X342500D01*
Y473250D01*
X348317D01*
Y476125D01*
X348131Y477060D01*
X347910Y477390D01*
X348503Y478660D01*
X356427D01*
X360160Y474927D01*
Y459250D01*
X360357Y458259D01*
X360919Y457419D01*
X365669Y452669D01*
X366509Y452107D01*
X367500Y451910D01*
X372980D01*
Y445980D01*
X391020D01*
Y451910D01*
X425480D01*
Y445980D01*
X429660D01*
Y422067D01*
X428375D01*
X427440Y421881D01*
X426648Y421352D01*
X426119Y420559D01*
X425933Y419625D01*
Y412875D01*
X426119Y411940D01*
X426250Y411744D01*
Y403756D01*
X426119Y403559D01*
X425933Y402625D01*
Y400472D01*
X424648D01*
X424647Y400472D01*
X423567Y400257D01*
X422650Y399645D01*
X422650Y399645D01*
X394080Y371074D01*
X350500D01*
X349419Y370859D01*
X348503Y370247D01*
X348503Y370247D01*
X342003Y363747D01*
X341391Y362831D01*
X341176Y361750D01*
X341176Y361750D01*
Y345670D01*
X335798Y340292D01*
X334625Y340778D01*
Y348230D01*
X334849D01*
X336419Y348880D01*
X337620Y350081D01*
X338270Y351651D01*
Y353349D01*
X337620Y354919D01*
X336419Y356120D01*
X334849Y356770D01*
X333724D01*
X285747Y404747D01*
X284831Y405359D01*
X283750Y405574D01*
X283750Y405574D01*
X236904D01*
X236885Y405594D01*
X236341Y406844D01*
X236624Y407267D01*
X236819Y408250D01*
Y413000D01*
X230500D01*
Y414000D01*
X229500D01*
Y422319D01*
X226750D01*
X225767Y422124D01*
X225500Y422000D01*
X225500Y422000D01*
X217500Y422000D01*
X217500Y422000D01*
Y422000D01*
X217323Y422082D01*
X217233Y422124D01*
X216250Y422319D01*
X215324D01*
Y426980D01*
X218770D01*
Y471520D01*
X200230D01*
Y426980D01*
X209676D01*
Y422319D01*
X208750D01*
X207767Y422124D01*
X206933Y421567D01*
X206376Y420733D01*
X206181Y419750D01*
Y408250D01*
X206376Y407267D01*
X206933Y406433D01*
X207767Y405876D01*
X208750Y405681D01*
X214825D01*
X219753Y400753D01*
X219753Y400753D01*
X220669Y400141D01*
X221750Y399926D01*
X221750Y399926D01*
X252635D01*
X253314Y398656D01*
X253270Y398590D01*
X159573D01*
X151740Y406423D01*
Y408933D01*
X151810D01*
X152750Y409120D01*
X153547Y409652D01*
X154080Y410450D01*
X154267Y411390D01*
Y433110D01*
X154080Y434050D01*
X153547Y434847D01*
X152750Y435380D01*
X151810Y435567D01*
X146490D01*
X145550Y435380D01*
X144753Y434847D01*
X144220Y434050D01*
X144033Y433110D01*
Y411390D01*
X144220Y410450D01*
X144753Y409652D01*
X145550Y409120D01*
X146490Y408933D01*
X146560D01*
Y405350D01*
X146757Y404359D01*
X147319Y403519D01*
X156669Y394169D01*
X157509Y393607D01*
X158500Y393410D01*
X254551D01*
X255581Y392380D01*
X257151Y391730D01*
X258849D01*
X260419Y392380D01*
X261620Y393581D01*
X262270Y395151D01*
Y396849D01*
X261620Y398419D01*
X261383Y398656D01*
X261909Y399926D01*
X282580D01*
X324462Y358044D01*
X323971Y356873D01*
X320341Y356903D01*
X301747Y375497D01*
X300831Y376109D01*
X299750Y376324D01*
X299750Y376324D01*
X260317D01*
Y376875D01*
X260131Y377809D01*
X259602Y378602D01*
X258810Y379131D01*
X257875Y379317D01*
X250125D01*
X249191Y379131D01*
X248398Y378602D01*
X247869Y377809D01*
X247683Y376875D01*
Y376324D01*
X242317D01*
Y376875D01*
X242131Y377809D01*
X241602Y378602D01*
X240809Y379131D01*
X239875Y379317D01*
X234177D01*
X228354Y385140D01*
X228407Y385589D01*
X228792Y386410D01*
X246677D01*
X250169Y382919D01*
X251009Y382357D01*
X252000Y382160D01*
X279500D01*
X280491Y382357D01*
X281331Y382919D01*
X282823Y384410D01*
X283051D01*
X284081Y383380D01*
X285651Y382730D01*
X287349D01*
X288919Y383380D01*
X290120Y384581D01*
X290770Y386151D01*
Y387849D01*
X290120Y389419D01*
X288919Y390620D01*
X287349Y391270D01*
X285651D01*
X284081Y390620D01*
X283051Y389590D01*
X281750D01*
X280759Y389393D01*
X279919Y388831D01*
X278427Y387340D01*
X253073D01*
X249581Y390831D01*
X248741Y391393D01*
X247750Y391590D01*
X152823D01*
X139040Y405373D01*
Y408933D01*
X139110D01*
X140050Y409120D01*
X140848Y409652D01*
X141380Y410450D01*
X141567Y411390D01*
Y433110D01*
X141380Y434050D01*
X140848Y434847D01*
X140050Y435380D01*
X139110Y435567D01*
X133790D01*
X132850Y435380D01*
X132052Y434847D01*
X131520Y434050D01*
X131333Y433110D01*
Y411390D01*
X131520Y410450D01*
X132052Y409652D01*
X132850Y409120D01*
X133790Y408933D01*
X133860D01*
Y404300D01*
X134057Y403309D01*
X134619Y402469D01*
X149919Y387169D01*
X150759Y386607D01*
X151750Y386410D01*
X182931D01*
X183184Y385140D01*
X182778Y384972D01*
X182778Y384972D01*
X174028Y376222D01*
X173625Y375250D01*
X173625Y375250D01*
Y336569D01*
X172693Y335637D01*
X171306Y336046D01*
X171131Y336690D01*
X171317Y337625D01*
Y340000D01*
X158683D01*
Y337625D01*
X158869Y336690D01*
X159000Y336494D01*
Y331875D01*
X157000D01*
X157000Y331875D01*
X156028Y331472D01*
X156028Y331472D01*
X155778Y331222D01*
X155375Y330250D01*
X155375Y330250D01*
Y316000D01*
X154510Y314770D01*
X151730D01*
Y312340D01*
X149317D01*
Y313875D01*
X149131Y314809D01*
X148602Y315602D01*
X147809Y316131D01*
X146875Y316317D01*
X140125D01*
X139191Y316131D01*
X138994Y316000D01*
X131006D01*
X130809Y316131D01*
X129875Y316317D01*
X127500D01*
Y310000D01*
Y303683D01*
X129875D01*
X130809Y303869D01*
X131006Y304000D01*
X138994D01*
X139191Y303869D01*
X140125Y303683D01*
X146875D01*
X147809Y303869D01*
X148602Y304398D01*
X149131Y305191D01*
X149317Y306125D01*
Y307160D01*
X151730D01*
Y304730D01*
X151750D01*
Y300270D01*
X151730D01*
Y297840D01*
X149317D01*
Y298875D01*
X149131Y299809D01*
X148602Y300602D01*
X147809Y301131D01*
X146875Y301317D01*
X140125D01*
X139191Y301131D01*
X138994Y301000D01*
X131006D01*
X130809Y301131D01*
X129875Y301317D01*
X127500D01*
Y295000D01*
X126500D01*
Y294000D01*
X120683D01*
Y291125D01*
X120869Y290191D01*
X121398Y289398D01*
X121830Y289110D01*
X121445Y287840D01*
X88506D01*
X88370Y288169D01*
X87169Y289370D01*
X85599Y290020D01*
X83901D01*
X82331Y289370D01*
X81610Y288648D01*
X80340Y289174D01*
Y302177D01*
X99573Y321410D01*
X141971D01*
X142962Y321607D01*
X143802Y322169D01*
X150331Y328698D01*
X150893Y329538D01*
X151090Y330529D01*
Y362051D01*
X152120Y363081D01*
X152770Y364651D01*
Y366349D01*
X152120Y367919D01*
X150919Y369120D01*
X149349Y369770D01*
X147651D01*
X146081Y369120D01*
X144880Y367919D01*
X144230Y366349D01*
Y364651D01*
X144880Y363081D01*
X145910Y362051D01*
Y331602D01*
X140898Y326590D01*
X98500D01*
X97509Y326393D01*
X96669Y325831D01*
X75919Y305081D01*
X75357Y304241D01*
X75160Y303250D01*
Y279750D01*
X75357Y278759D01*
X75919Y277919D01*
X86910Y266927D01*
Y236699D01*
X85880Y235669D01*
X85230Y234099D01*
Y232401D01*
X85880Y230831D01*
X87081Y229630D01*
X88651Y228980D01*
X90349D01*
X91919Y229630D01*
X92640Y230352D01*
X93910Y229825D01*
Y228323D01*
X92677Y227090D01*
X84250D01*
X83259Y226893D01*
X82419Y226331D01*
X77419Y221331D01*
X76857Y220491D01*
X76660Y219500D01*
Y184750D01*
X76857Y183759D01*
X77419Y182919D01*
X78978Y181360D01*
X78452Y180090D01*
X73675D01*
X73631Y180309D01*
X73102Y181102D01*
X72309Y181631D01*
X71375Y181817D01*
X63625D01*
X62691Y181631D01*
X61898Y181102D01*
X61369Y180309D01*
X61183Y179375D01*
Y178590D01*
X59750D01*
X58759Y178393D01*
X57919Y177831D01*
X54294Y174206D01*
X53732Y173366D01*
X53535Y172375D01*
Y139625D01*
X53732Y138634D01*
X54294Y137794D01*
X62919Y129169D01*
X63759Y128607D01*
X64750Y128410D01*
X266801D01*
X267831Y127380D01*
X269401Y126730D01*
X271099D01*
X272669Y127380D01*
X273870Y128581D01*
X274520Y130151D01*
Y131849D01*
X273870Y133419D01*
X272669Y134620D01*
X271099Y135270D01*
X269401D01*
X267831Y134620D01*
X266801Y133590D01*
X134824D01*
X134320Y134860D01*
X139497Y140037D01*
X140109Y140953D01*
X140262Y141723D01*
X140324Y142034D01*
X141041Y143074D01*
X141476Y143161D01*
X141566Y143221D01*
X142310Y143369D01*
X143102Y143898D01*
X143631Y144691D01*
X143674Y144906D01*
X148805D01*
X148831Y144880D01*
X150401Y144230D01*
X152099D01*
X153669Y144880D01*
X154870Y146081D01*
X155520Y147651D01*
Y149349D01*
X154870Y150919D01*
X153669Y152120D01*
X152099Y152770D01*
X150401D01*
X149976Y152594D01*
X143773D01*
X143631Y153309D01*
X143500Y153506D01*
Y161494D01*
X143631Y161691D01*
X143817Y162625D01*
Y163410D01*
X151677D01*
X158975Y156113D01*
X159815Y155551D01*
X160806Y155354D01*
X200483D01*
X206419Y149419D01*
X207259Y148857D01*
X208250Y148660D01*
X288301D01*
X289331Y147630D01*
X290901Y146980D01*
X292599D01*
X294169Y147630D01*
X295370Y148831D01*
X296020Y150401D01*
Y152099D01*
X295370Y153669D01*
X294169Y154870D01*
X292599Y155520D01*
X290901D01*
X289331Y154870D01*
X288301Y153840D01*
X209323D01*
X203387Y159775D01*
X202547Y160337D01*
X201556Y160534D01*
X161879D01*
X154581Y167831D01*
X153741Y168393D01*
X152750Y168590D01*
X143817D01*
Y169375D01*
X143631Y170309D01*
X143102Y171102D01*
X142310Y171631D01*
X141375Y171817D01*
X133625D01*
X132858Y171664D01*
X132498D01*
X125522Y178640D01*
X126048Y179910D01*
X131433D01*
Y177875D01*
X131619Y176940D01*
X132148Y176148D01*
X132941Y175619D01*
X133875Y175433D01*
X141625D01*
X142559Y175619D01*
X143352Y176148D01*
X143881Y176940D01*
X144067Y177875D01*
Y178660D01*
X154677D01*
X170169Y163169D01*
X171009Y162607D01*
X172000Y162410D01*
X204427D01*
X207169Y159669D01*
X208009Y159107D01*
X209000Y158910D01*
X301051D01*
X302081Y157880D01*
X303651Y157230D01*
X305349D01*
X306919Y157880D01*
X308120Y159081D01*
X308770Y160651D01*
Y162349D01*
X308120Y163919D01*
X306919Y165120D01*
X305349Y165770D01*
X303651D01*
X302081Y165120D01*
X301051Y164090D01*
X210073D01*
X207331Y166831D01*
X206491Y167393D01*
X205500Y167590D01*
X173073D01*
X157581Y183081D01*
X156741Y183643D01*
X155750Y183840D01*
X144067D01*
Y184625D01*
X143881Y185560D01*
X143750Y185756D01*
Y193744D01*
X143881Y193941D01*
X144067Y194875D01*
Y196285D01*
X148176D01*
X148581Y195880D01*
X150151Y195230D01*
X151849D01*
X153419Y195880D01*
X154620Y197081D01*
X155270Y198651D01*
Y200349D01*
X154620Y201919D01*
X153419Y203120D01*
X151849Y203770D01*
X150151D01*
X148581Y203120D01*
X147380Y201919D01*
X147192Y201465D01*
X144067D01*
Y201625D01*
X143881Y202559D01*
X143352Y203352D01*
X142559Y203881D01*
X141625Y204067D01*
X133875D01*
X132941Y203881D01*
X132148Y203352D01*
X131619Y202559D01*
X131433Y201625D01*
Y200840D01*
X114000D01*
X113009Y200643D01*
X112169Y200081D01*
X108399Y196311D01*
X107837Y195471D01*
X107698Y194770D01*
X102590D01*
Y197177D01*
X107393Y201980D01*
X112020D01*
Y218520D01*
X101980D01*
Y218500D01*
X97520D01*
Y218520D01*
X87480D01*
Y201980D01*
X89910D01*
Y199000D01*
X90107Y198009D01*
X90669Y197169D01*
X91924Y195913D01*
X92230Y194770D01*
X92230Y194770D01*
X92230D01*
X92230Y194770D01*
Y185270D01*
X82730D01*
X81840Y186171D01*
Y218427D01*
X85323Y221910D01*
X93750D01*
X94741Y222107D01*
X95581Y222669D01*
X97886Y224973D01*
X99234Y224798D01*
X99372Y224703D01*
X99630Y224081D01*
X100831Y222880D01*
X102401Y222230D01*
X104099D01*
X105669Y222880D01*
X106870Y224081D01*
X107520Y225651D01*
Y227349D01*
X106870Y228919D01*
X106502Y229287D01*
Y259463D01*
X107620Y260581D01*
X108270Y262151D01*
Y263849D01*
X107620Y265419D01*
X106419Y266620D01*
X104849Y267270D01*
X103151D01*
X101581Y266620D01*
X100380Y265419D01*
X100360Y265370D01*
X99090Y265622D01*
Y274000D01*
X98893Y274991D01*
X98331Y275831D01*
X92676Y281487D01*
X93162Y282660D01*
X170000D01*
X170991Y282857D01*
X171831Y283419D01*
X173093Y284680D01*
X178975D01*
Y283500D01*
X196265D01*
Y289730D01*
Y299730D01*
Y309730D01*
Y319212D01*
X196472Y319298D01*
X196875Y320270D01*
Y323875D01*
X199730D01*
Y323735D01*
X206500D01*
Y332380D01*
Y341025D01*
X205324D01*
Y342500D01*
X205324Y342500D01*
X205109Y343581D01*
X204497Y344497D01*
X203875Y345120D01*
Y345500D01*
X203472Y346472D01*
X203472Y346472D01*
X202531Y347413D01*
X202765Y348276D01*
X203027Y348713D01*
X203809Y348869D01*
X204602Y349398D01*
X205131Y350191D01*
X205317Y351125D01*
Y354000D01*
X199500D01*
Y355000D01*
X198500D01*
Y361317D01*
X196125D01*
X195191Y361131D01*
X194994Y361000D01*
X190125D01*
Y369931D01*
X195069Y374875D01*
X203000D01*
X203420Y375049D01*
X203856Y375174D01*
X204856Y375971D01*
X204896Y376043D01*
X204972Y376074D01*
X205146Y376494D01*
X205366Y376891D01*
X205343Y376970D01*
X205375Y377046D01*
Y380426D01*
X212190D01*
X212315Y379156D01*
X212190Y379131D01*
X211398Y378602D01*
X210869Y377809D01*
X210683Y376875D01*
Y374500D01*
X217000D01*
Y372500D01*
X210683D01*
Y370125D01*
X210869Y369190D01*
X211000Y368994D01*
Y361006D01*
X210869Y360810D01*
X210683Y359875D01*
Y353125D01*
X210869Y352191D01*
X211398Y351398D01*
X212190Y350869D01*
X213125Y350683D01*
X216410D01*
Y350000D01*
X216607Y349009D01*
X217169Y348169D01*
X219910Y345427D01*
Y341025D01*
X208500D01*
Y332380D01*
Y323735D01*
X260270D01*
Y341025D01*
X260090D01*
Y342301D01*
X261120Y343331D01*
X261770Y344901D01*
Y346599D01*
X261120Y348169D01*
X259919Y349370D01*
X259153Y349687D01*
X259074Y349957D01*
X259119Y351076D01*
X259602Y351398D01*
X260131Y352191D01*
X260317Y353125D01*
Y353910D01*
X277427D01*
X281919Y349419D01*
X282759Y348857D01*
X283750Y348660D01*
X304301D01*
X305331Y347630D01*
X306901Y346980D01*
X308599D01*
X310169Y347630D01*
X311370Y348831D01*
X312020Y350401D01*
Y352099D01*
X311370Y353669D01*
X310169Y354870D01*
X308599Y355520D01*
X306901D01*
X305331Y354870D01*
X304301Y353840D01*
X284823D01*
X280331Y358331D01*
X279491Y358893D01*
X278500Y359090D01*
X260317D01*
Y359875D01*
X260131Y360810D01*
X260077Y360890D01*
X260384Y362160D01*
X292551D01*
X293581Y361130D01*
X295151Y360480D01*
X296849D01*
X298419Y361130D01*
X299620Y362331D01*
X300270Y363901D01*
Y365599D01*
X299620Y367169D01*
X298419Y368370D01*
X296849Y369020D01*
X295151D01*
X293581Y368370D01*
X292551Y367340D01*
X260000D01*
Y368994D01*
X260131Y369190D01*
X260317Y370125D01*
Y370676D01*
X298580D01*
X313906Y355350D01*
X313828Y355161D01*
X313625Y354677D01*
X313627Y354674D01*
X313625Y354671D01*
Y344875D01*
X274500D01*
X273528Y344472D01*
X273528Y344472D01*
X264528Y335472D01*
X264125Y334500D01*
X264125Y334500D01*
Y320270D01*
X263735D01*
Y313500D01*
X272380D01*
Y311500D01*
X263735D01*
Y309730D01*
Y299730D01*
Y289730D01*
Y279730D01*
Y269730D01*
Y259730D01*
X269790D01*
Y257190D01*
X269987Y256199D01*
X270549Y255359D01*
X271826Y254081D01*
X271730Y253849D01*
Y252151D01*
X272380Y250581D01*
X273581Y249380D01*
X275151Y248730D01*
X276849D01*
X278419Y249380D01*
X279620Y250581D01*
X280104Y251751D01*
X281374Y251498D01*
Y248287D01*
X278107Y245020D01*
X276651D01*
X275081Y244370D01*
X273880Y243169D01*
X273230Y241599D01*
Y239901D01*
X273880Y238331D01*
X275081Y237130D01*
X276651Y236480D01*
X277940D01*
X278548Y235292D01*
X275308Y232052D01*
X275052D01*
X274559Y232381D01*
X273625Y232567D01*
X267927D01*
X260324Y240170D01*
Y247620D01*
X260270Y247893D01*
Y256265D01*
X253500D01*
Y247620D01*
Y238975D01*
X254681D01*
X254891Y237919D01*
X255503Y237003D01*
X258526Y233980D01*
X258144Y232565D01*
X257560Y232381D01*
X256625Y232567D01*
X254250D01*
Y226250D01*
Y219933D01*
X256625D01*
X257560Y220119D01*
X257756Y220250D01*
X265710D01*
X265760Y220198D01*
X266010Y219329D01*
X266042Y218973D01*
X265141Y218020D01*
X264151D01*
X262581Y217370D01*
X261380Y216169D01*
X260730Y214599D01*
Y212901D01*
X261380Y211331D01*
X262581Y210130D01*
X264151Y209480D01*
X265276D01*
X275758Y198998D01*
X276674Y198386D01*
X277755Y198171D01*
X277755Y198171D01*
X286528D01*
X287593Y197106D01*
Y188400D01*
X286659Y187590D01*
X282174D01*
X281648Y188860D01*
X282120Y189331D01*
X282770Y190901D01*
Y192599D01*
X282120Y194169D01*
X280919Y195370D01*
X279349Y196020D01*
X277651D01*
X276081Y195370D01*
X276062Y195351D01*
X269331Y202081D01*
X268491Y202643D01*
X267500Y202840D01*
X262573D01*
X235090Y230323D01*
Y238975D01*
X251500D01*
Y247620D01*
Y256265D01*
X199730D01*
Y250210D01*
X167829D01*
X166789Y251250D01*
X165219Y251900D01*
X163521D01*
X161951Y251250D01*
X160750Y250049D01*
X160100Y248479D01*
Y246781D01*
X160750Y245211D01*
X161951Y244010D01*
X163521Y243360D01*
X165219D01*
X166789Y244010D01*
X167809Y245030D01*
X199730D01*
Y238975D01*
X209910D01*
Y236323D01*
X205669Y232081D01*
X205107Y231241D01*
X204910Y230250D01*
Y221817D01*
X203625D01*
X202691Y221631D01*
X201898Y221102D01*
X201369Y220309D01*
X201183Y219375D01*
Y218590D01*
X198449D01*
X197419Y219620D01*
X197064Y219767D01*
Y220025D01*
X196867Y221016D01*
X196306Y221857D01*
X177581Y240581D01*
X176741Y241143D01*
X175750Y241340D01*
X115500D01*
X114509Y241143D01*
X113669Y240581D01*
X112858Y239770D01*
X111401D01*
X109831Y239120D01*
X108630Y237919D01*
X107980Y236349D01*
Y234651D01*
X108630Y233081D01*
X109831Y231880D01*
X111401Y231230D01*
X113099D01*
X114669Y231880D01*
X115870Y233081D01*
X116520Y234651D01*
Y236108D01*
X116573Y236160D01*
X174677D01*
X191885Y218953D01*
Y218923D01*
X191380Y218419D01*
X190730Y216849D01*
Y215151D01*
X191380Y213581D01*
X192581Y212380D01*
X194151Y211730D01*
X195849D01*
X197419Y212380D01*
X198449Y213410D01*
X201183D01*
Y212625D01*
X201369Y211691D01*
X201500Y211494D01*
Y203506D01*
X201369Y203309D01*
X201183Y202375D01*
Y200000D01*
X213817D01*
Y202375D01*
X213631Y203309D01*
X213500Y203506D01*
Y211494D01*
X213631Y211691D01*
X213817Y212625D01*
Y219375D01*
X213631Y220309D01*
X213178Y220987D01*
X214165Y221797D01*
X214331Y221630D01*
X215901Y220980D01*
X217599D01*
X219169Y221630D01*
X220370Y222831D01*
X221020Y224401D01*
Y226099D01*
X220370Y227669D01*
X219860Y228179D01*
Y229932D01*
X221130Y230458D01*
X222660Y228927D01*
Y223250D01*
X222857Y222259D01*
X223419Y221419D01*
X226183Y218654D01*
Y212625D01*
X226369Y211691D01*
X226500Y211494D01*
Y203506D01*
X226369Y203309D01*
X226183Y202375D01*
Y200000D01*
X232500D01*
Y198000D01*
X226183D01*
Y195625D01*
X226335Y194860D01*
X226187Y194437D01*
X225577Y193590D01*
X214423D01*
X213813Y194437D01*
X213665Y194860D01*
X213817Y195625D01*
Y198000D01*
X201183D01*
Y195625D01*
X200240Y194387D01*
X199561Y194352D01*
X172340Y221573D01*
Y225301D01*
X173370Y226331D01*
X174020Y227901D01*
Y229599D01*
X173370Y231169D01*
X172169Y232370D01*
X170599Y233020D01*
X168901D01*
X167331Y232370D01*
X166130Y231169D01*
X166097Y231090D01*
X125699D01*
X124919Y231870D01*
X123349Y232520D01*
X121651D01*
X120081Y231870D01*
X118880Y230669D01*
X118230Y229099D01*
Y227401D01*
X118880Y225831D01*
X120081Y224630D01*
X121651Y223980D01*
X123349D01*
X124919Y224630D01*
X126120Y225831D01*
X126153Y225910D01*
X143231D01*
X143484Y224640D01*
X142831Y224370D01*
X141630Y223169D01*
X140980Y221599D01*
Y219901D01*
X141630Y218331D01*
X142831Y217130D01*
X144401Y216480D01*
X146099D01*
X147669Y217130D01*
X148464Y217926D01*
X154830D01*
X189003Y183753D01*
X189003Y183753D01*
X189919Y183141D01*
X191000Y182926D01*
X191000Y182926D01*
X191091D01*
X191617Y181656D01*
X191130Y181169D01*
X190480Y179599D01*
Y177901D01*
X191130Y176331D01*
X191352Y176110D01*
X190826Y174840D01*
X183823D01*
X172340Y186323D01*
Y197000D01*
X172143Y197991D01*
X171581Y198831D01*
X157081Y213331D01*
X156241Y213893D01*
X155250Y214090D01*
X140449D01*
X139419Y215120D01*
X137849Y215770D01*
X136151D01*
X134581Y215120D01*
X133380Y213919D01*
X132730Y212349D01*
Y210651D01*
X133380Y209081D01*
X134581Y207880D01*
X136151Y207230D01*
X137849D01*
X139419Y207880D01*
X140449Y208910D01*
X154177D01*
X167160Y195927D01*
Y185250D01*
X167357Y184259D01*
X167919Y183419D01*
X180919Y170419D01*
X181759Y169857D01*
X182750Y169660D01*
X212551D01*
X213581Y168630D01*
X215151Y167980D01*
X216849D01*
X218419Y168630D01*
X219620Y169831D01*
X220270Y171401D01*
Y173099D01*
X219620Y174669D01*
X219398Y174890D01*
X219925Y176160D01*
X325204D01*
X326195Y176357D01*
X327035Y176919D01*
X327911Y177794D01*
X329181Y177268D01*
Y173500D01*
X334500D01*
Y180819D01*
X332732D01*
X332206Y182089D01*
X371596Y221480D01*
X372849D01*
X374419Y222130D01*
X375620Y223331D01*
X376270Y224901D01*
Y226599D01*
X375620Y228169D01*
X375383Y228406D01*
X375909Y229676D01*
X385294D01*
X386426Y229257D01*
X386641Y228177D01*
X387253Y227260D01*
X389010Y225503D01*
X389010Y225503D01*
X389927Y224891D01*
X391007Y224676D01*
X391007Y224676D01*
X397855D01*
Y223500D01*
X405625D01*
X413395D01*
Y224730D01*
Y234730D01*
Y244730D01*
Y254730D01*
Y264730D01*
Y266500D01*
X405625D01*
X397855D01*
Y265942D01*
X396585Y265578D01*
X388090Y274073D01*
Y278750D01*
X387893Y279741D01*
X387331Y280581D01*
X358791Y309121D01*
X358276Y309465D01*
X357990Y310614D01*
X358005Y310967D01*
X358620Y311581D01*
X359270Y313151D01*
Y314849D01*
X358926Y315680D01*
X359748Y316950D01*
X362451D01*
X363730Y315671D01*
Y315151D01*
X364380Y313581D01*
X365581Y312380D01*
X367151Y311730D01*
X368849D01*
X370419Y312380D01*
X371620Y313581D01*
X372270Y315151D01*
Y316849D01*
X371620Y318419D01*
X370419Y319620D01*
X368849Y320270D01*
X367151D01*
X366660Y320067D01*
X365355Y321371D01*
X364515Y321933D01*
X363524Y322130D01*
X322540D01*
X321549Y321933D01*
X320709Y321371D01*
X312607Y313270D01*
X311151D01*
X309581Y312620D01*
X308380Y311419D01*
X307730Y309849D01*
Y309439D01*
X301629D01*
X301504Y310709D01*
X302309Y310869D01*
X303102Y311398D01*
X303631Y312191D01*
X303817Y313125D01*
Y315500D01*
X297500D01*
Y317500D01*
X303817D01*
Y319875D01*
X303631Y320810D01*
X303500Y321006D01*
Y325500D01*
X303506Y325519D01*
X304124Y326625D01*
X333250D01*
X334222Y327028D01*
X334625Y328000D01*
Y331800D01*
X335081Y331891D01*
X335997Y332503D01*
X345997Y342503D01*
X345997Y342503D01*
X346609Y343419D01*
X346824Y344500D01*
Y360580D01*
X351670Y365426D01*
X395250D01*
X395250Y365426D01*
X396331Y365641D01*
X397247Y366253D01*
X425136Y394142D01*
X426648Y394148D01*
X427440Y393619D01*
X428375Y393433D01*
X436125D01*
X437060Y393619D01*
X437852Y394148D01*
X438381Y394940D01*
X438567Y395875D01*
Y402625D01*
X438381Y403559D01*
X438250Y403756D01*
X438250Y411744D01*
X438381Y411940D01*
X438567Y412875D01*
Y413660D01*
X443433D01*
Y412875D01*
X443619Y411940D01*
X443750Y411744D01*
Y403756D01*
X443619Y403559D01*
X443433Y402625D01*
Y400250D01*
X456067D01*
Y402625D01*
X455881Y403559D01*
X455750Y403756D01*
Y411744D01*
X455881Y411940D01*
X456067Y412875D01*
Y419625D01*
X455881Y420559D01*
X455352Y421352D01*
X454560Y421881D01*
X453625Y422067D01*
X445875D01*
X444940Y421881D01*
X444148Y421352D01*
X443619Y420559D01*
X443433Y419625D01*
Y418840D01*
X438567D01*
Y419625D01*
X438381Y420559D01*
X437852Y421352D01*
X437060Y421881D01*
X436125Y422067D01*
X434840D01*
Y445980D01*
X443520D01*
Y458520D01*
X425480D01*
Y457090D01*
X391020D01*
Y458520D01*
X372980D01*
Y457090D01*
X368573D01*
X365340Y460323D01*
Y476000D01*
X365143Y476991D01*
X364581Y477831D01*
X359331Y483081D01*
X358491Y483643D01*
X357500Y483840D01*
D02*
G37*
G36*
X101010Y435567D02*
X95690D01*
X94750Y435380D01*
X93953Y434847D01*
X93420Y434050D01*
X93233Y433110D01*
Y411390D01*
X93420Y410450D01*
X93953Y409652D01*
X94750Y409120D01*
X95690Y408933D01*
X95835D01*
Y404624D01*
X94880Y403669D01*
X94230Y402099D01*
Y400401D01*
X94880Y398831D01*
X96081Y397630D01*
X97651Y396980D01*
X99349D01*
X100919Y397630D01*
X102120Y398831D01*
X102770Y400401D01*
Y402099D01*
X102120Y403669D01*
X101015Y404774D01*
Y408934D01*
X101950Y409120D01*
X102747Y409652D01*
X103280Y410450D01*
X103467Y411390D01*
Y433110D01*
X103280Y434050D01*
X102747Y434847D01*
X101950Y435380D01*
X101010Y435567D01*
D02*
G37*
G36*
X456067Y398250D02*
X450750D01*
Y393433D01*
X453625D01*
X454559Y393619D01*
X455352Y394148D01*
X455881Y394940D01*
X456067Y395875D01*
Y398250D01*
D02*
G37*
G36*
X448750D02*
X443433D01*
Y395875D01*
X443619Y394940D01*
X444148Y394148D01*
X444940Y393619D01*
X445875Y393433D01*
X448750D01*
Y398250D01*
D02*
G37*
G36*
X385020Y393770D02*
X380000D01*
Y389000D01*
X385020D01*
Y393770D01*
D02*
G37*
G36*
X378000D02*
X372980D01*
Y389000D01*
X378000D01*
Y393770D01*
D02*
G37*
G36*
X330817Y392500D02*
X325500D01*
Y387683D01*
X328375D01*
X329310Y387869D01*
X330102Y388398D01*
X330631Y389191D01*
X330817Y390125D01*
Y392500D01*
D02*
G37*
G36*
X323500D02*
X318183D01*
Y390125D01*
X318369Y389191D01*
X318898Y388398D01*
X319690Y387869D01*
X320625Y387683D01*
X323500D01*
Y392500D01*
D02*
G37*
G36*
X385020Y387000D02*
X380000D01*
Y382230D01*
X385020D01*
Y387000D01*
D02*
G37*
G36*
X378000D02*
X372980D01*
Y382230D01*
X378000D01*
Y387000D01*
D02*
G37*
G36*
X355770Y393270D02*
X343730D01*
Y381730D01*
X347410D01*
Y380449D01*
X346380Y379419D01*
X345730Y377849D01*
Y376151D01*
X346380Y374581D01*
X347581Y373380D01*
X349151Y372730D01*
X350849D01*
X352419Y373380D01*
X353620Y374581D01*
X354270Y376151D01*
Y377849D01*
X353620Y379419D01*
X352590Y380449D01*
Y381730D01*
X355770D01*
Y393270D01*
D02*
G37*
G36*
X113710Y435567D02*
X108390D01*
X107450Y435380D01*
X106652Y434847D01*
X106120Y434050D01*
X105933Y433110D01*
Y411390D01*
X106120Y410450D01*
X106652Y409652D01*
X107450Y409120D01*
X108390Y408933D01*
X108460D01*
Y378984D01*
X107581Y378620D01*
X106380Y377419D01*
X105730Y375849D01*
Y374151D01*
X106380Y372581D01*
X107581Y371380D01*
X109151Y370730D01*
X110849D01*
X112419Y371380D01*
X113620Y372581D01*
X114270Y374151D01*
Y375849D01*
X113640Y377371D01*
Y408933D01*
X113710D01*
X114650Y409120D01*
X115448Y409652D01*
X115980Y410450D01*
X116167Y411390D01*
Y433110D01*
X115980Y434050D01*
X115448Y434847D01*
X114650Y435380D01*
X113710Y435567D01*
D02*
G37*
G36*
X377750Y360819D02*
X370250D01*
X369267Y360624D01*
X369000Y360500D01*
X369000Y360500D01*
X361000D01*
X361000Y360500D01*
Y360500D01*
X360823Y360582D01*
X360733Y360624D01*
X359750Y360819D01*
X357000D01*
Y352500D01*
Y344181D01*
X359750D01*
X360733Y344376D01*
X361000Y344500D01*
X361000Y344500D01*
X369000D01*
X369000Y344500D01*
Y344500D01*
X369177Y344418D01*
X369267Y344376D01*
X370250Y344181D01*
X376657D01*
X378965Y341873D01*
X378339Y340702D01*
X377750Y340819D01*
X370250D01*
X369267Y340624D01*
X369000Y340500D01*
X369000Y340500D01*
X361000D01*
X361000Y340500D01*
Y340500D01*
X360823Y340582D01*
X360733Y340624D01*
X359750Y340819D01*
X357000D01*
Y332500D01*
Y324181D01*
X359750D01*
X360733Y324376D01*
X361000Y324500D01*
X361000Y324500D01*
X369000D01*
X369000Y324500D01*
Y324500D01*
X369177Y324418D01*
X369267Y324376D01*
X370250Y324181D01*
X374660D01*
Y298000D01*
X374857Y297009D01*
X375419Y296169D01*
X390689Y280899D01*
X391529Y280337D01*
X392520Y280140D01*
X397855D01*
Y274730D01*
Y268500D01*
X405625D01*
X413395D01*
Y274730D01*
Y284730D01*
Y294730D01*
Y305270D01*
X397855D01*
X397340Y306327D01*
Y325177D01*
X399142Y326980D01*
X400599D01*
X402169Y327630D01*
X403370Y328831D01*
X404020Y330401D01*
Y332099D01*
X403370Y333669D01*
X402169Y334870D01*
X400599Y335520D01*
X398901D01*
X397331Y334870D01*
X396130Y333669D01*
X395480Y332099D01*
Y330643D01*
X393582Y328745D01*
X392186Y329145D01*
X392092Y329553D01*
X392620Y330081D01*
X393270Y331651D01*
Y333349D01*
X392620Y334919D01*
X391419Y336120D01*
X389849Y336770D01*
X388151D01*
X387110Y336339D01*
X385840Y337038D01*
Y341250D01*
X385643Y342241D01*
X385081Y343081D01*
X380319Y347843D01*
Y358250D01*
X380124Y359233D01*
X379567Y360067D01*
X378733Y360624D01*
X377750Y360819D01*
D02*
G37*
G36*
X140099Y360770D02*
X138401D01*
X136831Y360120D01*
X135801Y359090D01*
X101196D01*
X100781Y359007D01*
X100419Y359370D01*
X98849Y360020D01*
X97151D01*
X95581Y359370D01*
X94380Y358169D01*
X93730Y356599D01*
Y354901D01*
X94380Y353331D01*
X95581Y352130D01*
X97151Y351480D01*
X98849D01*
X100419Y352130D01*
X101620Y353331D01*
X101860Y353910D01*
X135801D01*
X136831Y352880D01*
X138401Y352230D01*
X140099D01*
X141669Y352880D01*
X142870Y354081D01*
X143520Y355651D01*
Y357349D01*
X142870Y358919D01*
X141669Y360120D01*
X140099Y360770D01*
D02*
G37*
G36*
X202875Y361317D02*
X200500D01*
Y356000D01*
X205317D01*
Y358875D01*
X205131Y359809D01*
X204602Y360602D01*
X203809Y361131D01*
X202875Y361317D01*
D02*
G37*
G36*
X355000Y360819D02*
X352250D01*
X351267Y360624D01*
X350433Y360067D01*
X349876Y359233D01*
X349681Y358250D01*
Y353500D01*
X355000D01*
Y360819D01*
D02*
G37*
G36*
Y351500D02*
X349681D01*
Y346750D01*
X349876Y345767D01*
X350433Y344933D01*
X351267Y344376D01*
X352250Y344181D01*
X355000D01*
Y351500D01*
D02*
G37*
G36*
X168875Y346817D02*
X166000D01*
Y342000D01*
X171317D01*
Y344375D01*
X171131Y345309D01*
X170602Y346102D01*
X169809Y346631D01*
X168875Y346817D01*
D02*
G37*
G36*
X164000D02*
X161125D01*
X160191Y346631D01*
X159398Y346102D01*
X158869Y345309D01*
X158683Y344375D01*
Y342000D01*
X164000D01*
Y346817D01*
D02*
G37*
G36*
X355000Y340819D02*
X352250D01*
X351267Y340624D01*
X350433Y340067D01*
X349876Y339233D01*
X349681Y338250D01*
Y333500D01*
X355000D01*
Y340819D01*
D02*
G37*
G36*
X447270Y341270D02*
X432000D01*
Y326000D01*
X447270D01*
Y341270D01*
D02*
G37*
G36*
X430000D02*
X414730D01*
Y326000D01*
X430000D01*
Y341270D01*
D02*
G37*
G36*
X355000Y331500D02*
X349681D01*
Y326750D01*
X349876Y325767D01*
X350433Y324933D01*
X351267Y324376D01*
X352250Y324181D01*
X355000D01*
Y331500D01*
D02*
G37*
G36*
X125500Y316317D02*
X123125D01*
X122191Y316131D01*
X121398Y315602D01*
X120869Y314809D01*
X120683Y313875D01*
Y311000D01*
X125500D01*
Y316317D01*
D02*
G37*
G36*
X447270Y324000D02*
X432000D01*
Y308730D01*
X447270D01*
Y324000D01*
D02*
G37*
G36*
X430000D02*
X414730D01*
Y308730D01*
X430000D01*
Y324000D01*
D02*
G37*
G36*
X125500Y309000D02*
X120683D01*
Y306125D01*
X120869Y305191D01*
X121398Y304398D01*
X122191Y303869D01*
X123125Y303683D01*
X125500D01*
Y309000D01*
D02*
G37*
G36*
X125500Y301317D02*
X123125D01*
X122191Y301131D01*
X121398Y300602D01*
X120869Y299809D01*
X120683Y298875D01*
Y296000D01*
X125500D01*
Y301317D01*
D02*
G37*
G36*
X196265Y281500D02*
X178975D01*
Y280090D01*
X167500D01*
X166509Y279893D01*
X165669Y279331D01*
X161927Y275590D01*
X156817D01*
Y276875D01*
X156631Y277810D01*
X156102Y278602D01*
X155309Y279131D01*
X154375Y279317D01*
X147625D01*
X146691Y279131D01*
X146494Y279000D01*
X138506D01*
X138309Y279131D01*
X137375Y279317D01*
X135000D01*
Y273000D01*
Y266683D01*
X137375D01*
X138309Y266869D01*
X138506Y267000D01*
X146494D01*
X146691Y266869D01*
X147625Y266683D01*
X148660D01*
Y263819D01*
X147750D01*
X146767Y263624D01*
X146500Y263500D01*
X146500Y263500D01*
X138500D01*
X138500Y263500D01*
Y263500D01*
X138323Y263582D01*
X138233Y263624D01*
X137250Y263819D01*
X129750D01*
X128767Y263624D01*
X127933Y263067D01*
X127376Y262233D01*
X127181Y261250D01*
Y259767D01*
X125911Y259080D01*
X124849Y259520D01*
X123151D01*
X121581Y258870D01*
X120380Y257669D01*
X119730Y256099D01*
Y254401D01*
X120380Y252831D01*
X121581Y251630D01*
X123151Y250980D01*
X124849D01*
X125911Y251420D01*
X127181Y250733D01*
Y249750D01*
X127376Y248767D01*
X127933Y247933D01*
X128767Y247376D01*
X129750Y247181D01*
X137250D01*
X138233Y247376D01*
X138500Y247500D01*
X138500Y247500D01*
X146500Y247500D01*
X146500Y247500D01*
Y247500D01*
X146677Y247418D01*
X146767Y247376D01*
X147750Y247181D01*
X155250D01*
X156233Y247376D01*
X157067Y247933D01*
X157624Y248767D01*
X157819Y249750D01*
Y261250D01*
X157624Y262233D01*
X157067Y263067D01*
X156233Y263624D01*
X155250Y263819D01*
X153840D01*
Y266683D01*
X154375D01*
X155309Y266869D01*
X156102Y267398D01*
X156631Y268190D01*
X156817Y269125D01*
Y270410D01*
X163000D01*
X163991Y270607D01*
X164831Y271169D01*
X168573Y274910D01*
X178975D01*
Y265090D01*
X174449D01*
X173669Y265870D01*
X172099Y266520D01*
X170401D01*
X168831Y265870D01*
X167630Y264669D01*
X166980Y263099D01*
Y261401D01*
X167630Y259831D01*
X168831Y258630D01*
X170401Y257980D01*
X172099D01*
X173669Y258630D01*
X174870Y259831D01*
X174903Y259910D01*
X178975D01*
Y259730D01*
X196265D01*
Y269730D01*
Y279730D01*
Y281500D01*
D02*
G37*
G36*
X133000Y279317D02*
X130625D01*
X129691Y279131D01*
X128898Y278602D01*
X128369Y277810D01*
X128183Y276875D01*
Y274000D01*
X133000D01*
Y279317D01*
D02*
G37*
G36*
Y272000D02*
X128183D01*
Y269125D01*
X128369Y268190D01*
X128898Y267398D01*
X129691Y266869D01*
X130625Y266683D01*
X133000D01*
Y272000D01*
D02*
G37*
G36*
X252250Y232567D02*
X249875D01*
X248941Y232381D01*
X248148Y231852D01*
X247619Y231059D01*
X247433Y230125D01*
Y227250D01*
X252250D01*
Y232567D01*
D02*
G37*
G36*
Y225250D02*
X247433D01*
Y222375D01*
X247619Y221441D01*
X248148Y220648D01*
X248941Y220119D01*
X249875Y219933D01*
X252250D01*
Y225250D01*
D02*
G37*
G36*
X74567Y218000D02*
X69250D01*
Y213183D01*
X72125D01*
X73060Y213369D01*
X73852Y213898D01*
X74381Y214691D01*
X74567Y215625D01*
Y218000D01*
D02*
G37*
G36*
X67250D02*
X61933D01*
Y215625D01*
X62119Y214691D01*
X62648Y213898D01*
X63440Y213369D01*
X64375Y213183D01*
X67250D01*
Y218000D01*
D02*
G37*
G36*
X413395Y221500D02*
X405625D01*
X397855D01*
Y220090D01*
X376415D01*
X375424Y219893D01*
X374584Y219331D01*
X370419Y215166D01*
X370248Y214911D01*
X351669Y196331D01*
X351107Y195491D01*
X350910Y194500D01*
Y180819D01*
X349750D01*
X348767Y180624D01*
X348500Y180500D01*
X348500Y180500D01*
X340500Y180500D01*
X340500Y180500D01*
Y180500D01*
X340323Y180582D01*
X340233Y180624D01*
X339250Y180819D01*
X336500D01*
Y172500D01*
Y164181D01*
X339250D01*
X340233Y164376D01*
X340500Y164500D01*
X340500Y164500D01*
X348500D01*
X348500Y164500D01*
Y164500D01*
X348677Y164418D01*
X348767Y164376D01*
X349750Y164181D01*
X357250D01*
X357839Y164298D01*
X358465Y163127D01*
X356657Y161319D01*
X350250D01*
X349267Y161124D01*
X349000Y161000D01*
X349000Y161000D01*
X341000Y161000D01*
X341000Y161000D01*
Y161000D01*
X340823Y161082D01*
X340733Y161124D01*
X339750Y161319D01*
X337000D01*
Y153000D01*
Y144681D01*
X339750D01*
X340733Y144876D01*
X341000Y145000D01*
X341000Y145000D01*
X349000Y145000D01*
X349000Y145000D01*
Y145000D01*
X349177Y144918D01*
X349267Y144876D01*
X350250Y144681D01*
X357750D01*
X358339Y144798D01*
X358965Y143627D01*
X356657Y141319D01*
X350250D01*
X349267Y141124D01*
X349000Y141000D01*
X349000Y141000D01*
X341000D01*
X341000Y141000D01*
Y141000D01*
X340823Y141082D01*
X340733Y141124D01*
X339750Y141319D01*
X337000D01*
Y133000D01*
Y124681D01*
X339750D01*
X340733Y124876D01*
X341000Y125000D01*
X341000Y125000D01*
X349000D01*
X349000Y125000D01*
Y125000D01*
X349177Y124918D01*
X349267Y124876D01*
X350250Y124681D01*
X357750D01*
X358339Y124798D01*
X358965Y123627D01*
X356657Y121319D01*
X350250D01*
X349267Y121124D01*
X349000Y121000D01*
X349000Y121000D01*
X341000D01*
X341000Y121000D01*
Y121000D01*
X340823Y121082D01*
X340733Y121124D01*
X339750Y121319D01*
X337000D01*
Y113000D01*
Y104681D01*
X339750D01*
X340733Y104876D01*
X341000Y105000D01*
X341000Y105000D01*
X349000D01*
X349000Y105000D01*
Y105000D01*
X349177Y104918D01*
X349267Y104876D01*
X350250Y104681D01*
X357750D01*
X358339Y104798D01*
X358965Y103627D01*
X356657Y101319D01*
X350250D01*
X349267Y101124D01*
X349000Y101000D01*
X349000Y101000D01*
X341000Y101000D01*
X341000Y101000D01*
Y101000D01*
X340823Y101082D01*
X340733Y101124D01*
X339750Y101319D01*
X337000D01*
Y93000D01*
Y84681D01*
X339750D01*
X340733Y84876D01*
X341000Y85000D01*
X341000Y85000D01*
X349000Y85000D01*
X349000Y85000D01*
Y85000D01*
X349177Y84918D01*
X349267Y84876D01*
X350250Y84681D01*
X357750D01*
X358733Y84876D01*
X359567Y85433D01*
X360124Y86267D01*
X360319Y87250D01*
Y97657D01*
X388831Y126169D01*
X389393Y127009D01*
X389590Y128000D01*
Y171746D01*
X390860Y172131D01*
X391169Y171669D01*
X393480Y169357D01*
Y167901D01*
X394130Y166331D01*
X395160Y165301D01*
Y117823D01*
X358657Y81320D01*
X357730D01*
X357728Y81319D01*
X350250D01*
X349267Y81124D01*
X349000Y81000D01*
X349000Y81000D01*
X341000Y81000D01*
X341000Y81000D01*
Y81000D01*
X340823Y81082D01*
X340733Y81124D01*
X339750Y81319D01*
X337000D01*
Y73000D01*
Y64681D01*
X339750D01*
X340733Y64876D01*
X341000Y65000D01*
X341000Y65000D01*
X349000Y65000D01*
X349000Y65000D01*
Y65000D01*
X349177Y64918D01*
X349267Y64876D01*
X350250Y64681D01*
X357750D01*
X358339Y64798D01*
X358965Y63627D01*
X356657Y61319D01*
X350250D01*
X349267Y61124D01*
X349000Y61000D01*
X349000Y61000D01*
X341000D01*
X341000Y61000D01*
Y61000D01*
X340823Y61082D01*
X340733Y61124D01*
X339750Y61319D01*
X337000D01*
Y53000D01*
Y44681D01*
X339750D01*
X340733Y44876D01*
X341000Y45000D01*
X341000Y45000D01*
X349000Y45000D01*
X349000Y45000D01*
Y45000D01*
X349177Y44918D01*
X349267Y44876D01*
X350250Y44681D01*
X357750D01*
X358733Y44876D01*
X359567Y45433D01*
X360124Y46267D01*
X360319Y47250D01*
Y57657D01*
X407456Y104794D01*
X408018Y105634D01*
X408215Y106625D01*
Y184730D01*
X413395D01*
Y194730D01*
Y204730D01*
Y214730D01*
Y221500D01*
D02*
G37*
G36*
X446770Y181270D02*
X431500D01*
Y166000D01*
X446770D01*
Y181270D01*
D02*
G37*
G36*
X429500D02*
X414230D01*
Y166000D01*
X429500D01*
Y181270D01*
D02*
G37*
G36*
X334500Y171500D02*
X329181D01*
Y166750D01*
X329376Y165767D01*
X329933Y164933D01*
X330767Y164376D01*
X331750Y164181D01*
X334500D01*
Y171500D01*
D02*
G37*
G36*
X335000Y161319D02*
X332250D01*
X331267Y161124D01*
X330433Y160567D01*
X329876Y159733D01*
X329681Y158750D01*
Y154000D01*
X335000D01*
Y161319D01*
D02*
G37*
G36*
X446770Y164000D02*
X431500D01*
Y148730D01*
X446770D01*
Y164000D01*
D02*
G37*
G36*
X429500D02*
X414230D01*
Y148730D01*
X429500D01*
Y164000D01*
D02*
G37*
G36*
X335000Y152000D02*
X329681D01*
Y147250D01*
X329876Y146267D01*
X330433Y145433D01*
X331267Y144876D01*
X332250Y144681D01*
X335000D01*
Y152000D01*
D02*
G37*
G36*
X335000Y141319D02*
X332250D01*
X331267Y141124D01*
X330433Y140567D01*
X329876Y139733D01*
X329681Y138750D01*
Y134000D01*
X335000D01*
Y141319D01*
D02*
G37*
G36*
Y132000D02*
X329681D01*
Y127250D01*
X329876Y126267D01*
X330433Y125433D01*
X331267Y124876D01*
X332250Y124681D01*
X335000D01*
Y132000D01*
D02*
G37*
G36*
X128770Y126770D02*
X108500D01*
Y116500D01*
X128770D01*
Y126770D01*
D02*
G37*
G36*
X106500D02*
X86230D01*
Y116500D01*
X106500D01*
Y126770D01*
D02*
G37*
G36*
X335000Y121319D02*
X332250D01*
X331267Y121124D01*
X330433Y120567D01*
X329876Y119733D01*
X329681Y118750D01*
Y114000D01*
X335000D01*
Y121319D01*
D02*
G37*
G36*
X152099Y124020D02*
X150401D01*
X148831Y123370D01*
X147630Y122169D01*
X146980Y120599D01*
Y118901D01*
X147630Y117331D01*
X148831Y116130D01*
X150401Y115480D01*
X152099D01*
X153128Y115906D01*
X189979D01*
X190656Y115229D01*
Y110200D01*
X189386Y109815D01*
X189357Y109858D01*
X188276Y110580D01*
X187000Y110834D01*
X183000D01*
X181724Y110580D01*
X180643Y109858D01*
X179965Y108844D01*
X165613D01*
X164142Y108551D01*
X162896Y107718D01*
X162895Y107718D01*
X156540Y101363D01*
X155270Y101748D01*
Y101770D01*
X127730D01*
Y92230D01*
X155270D01*
Y93403D01*
X157860D01*
X157860Y93403D01*
X159331Y93695D01*
X160578Y94529D01*
X167206Y101156D01*
X179965D01*
X180643Y100142D01*
X181724Y99420D01*
X183000Y99166D01*
X187000D01*
X188276Y99420D01*
X189357Y100142D01*
X189386Y100185D01*
X190656Y99800D01*
Y90201D01*
X190142Y89858D01*
X189420Y88776D01*
X189166Y87500D01*
Y82500D01*
X189420Y81224D01*
X190142Y80142D01*
X190406Y79966D01*
Y68319D01*
X190250D01*
X189267Y68124D01*
X189000Y68000D01*
X189000Y68000D01*
X181000D01*
X181000Y68000D01*
Y68000D01*
X180823Y68082D01*
X180733Y68124D01*
X179750Y68319D01*
X177000D01*
Y60000D01*
Y51681D01*
X179750D01*
X180733Y51876D01*
X181000Y52000D01*
X181000Y52000D01*
X189000D01*
X189000Y52000D01*
Y52000D01*
X189177Y51918D01*
X189267Y51876D01*
X190250Y51681D01*
X194383D01*
X201532Y44532D01*
X201532Y44532D01*
X202779Y43699D01*
X204250Y43406D01*
X204250Y43406D01*
X270150D01*
X270150Y43406D01*
X271621Y43699D01*
X272868Y44532D01*
X277535Y49199D01*
X278911Y48830D01*
X281089D01*
X283192Y49394D01*
X285078Y50482D01*
X286618Y52022D01*
X287330Y53256D01*
X311734D01*
X312401Y52980D01*
X314099D01*
X315669Y53630D01*
X316870Y54831D01*
X317520Y56401D01*
Y58099D01*
X316870Y59669D01*
X315669Y60870D01*
X314099Y61520D01*
X312401D01*
X311010Y60944D01*
X287330D01*
X286618Y62178D01*
X285078Y63718D01*
X283192Y64806D01*
X281089Y65370D01*
X278911D01*
X276808Y64806D01*
X274922Y63718D01*
X273382Y62178D01*
X272294Y60292D01*
X271730Y58189D01*
Y56011D01*
X272099Y54635D01*
X268558Y51094D01*
X205842D01*
X200344Y56592D01*
Y60000D01*
X200344Y60000D01*
X200319Y60123D01*
Y62883D01*
X203852Y66416D01*
X212480D01*
Y64250D01*
X219000D01*
X225520D01*
Y66480D01*
Y73020D01*
X224344D01*
Y78776D01*
X224809Y78869D01*
X225006Y79000D01*
X232994D01*
X233190Y78869D01*
X234125Y78683D01*
X234910D01*
Y73020D01*
X231480D01*
Y66480D01*
Y64250D01*
X238000D01*
Y62250D01*
X231480D01*
Y59980D01*
Y53480D01*
X237678D01*
X238000Y53416D01*
X249750D01*
X251026Y53670D01*
X252108Y54392D01*
X259858Y62142D01*
X260580Y63224D01*
X260834Y64500D01*
Y84019D01*
X276966Y100151D01*
X278911Y99630D01*
X281089D01*
X283192Y100194D01*
X285078Y101282D01*
X286618Y102822D01*
X287706Y104708D01*
X288270Y106811D01*
Y108989D01*
X287706Y111092D01*
X286618Y112978D01*
X285078Y114518D01*
X283192Y115606D01*
X281089Y116170D01*
X278911D01*
X276808Y115606D01*
X274922Y114518D01*
X273382Y112978D01*
X272294Y111092D01*
X271730Y108989D01*
Y106811D01*
X272251Y104866D01*
X255142Y87758D01*
X254420Y86676D01*
X254166Y85400D01*
Y71755D01*
X252896Y71502D01*
X252620Y72169D01*
X251419Y73370D01*
X249849Y74020D01*
X248151D01*
X246581Y73370D01*
X245790Y72579D01*
X244520Y72916D01*
Y73020D01*
X240090D01*
Y78683D01*
X240875D01*
X241810Y78869D01*
X242602Y79398D01*
X243131Y80190D01*
X243317Y81125D01*
Y88875D01*
X243131Y89810D01*
X242602Y90602D01*
X241810Y91131D01*
X240875Y91317D01*
X234125D01*
X233190Y91131D01*
X232994Y91000D01*
X225006D01*
X224809Y91131D01*
X223875Y91317D01*
X217125D01*
X216191Y91131D01*
X215398Y90602D01*
X214869Y89810D01*
X214683Y88875D01*
Y81125D01*
X214869Y80190D01*
X215398Y79398D01*
X216191Y78869D01*
X216656Y78776D01*
Y73084D01*
X203546D01*
X203221Y73301D01*
X201750Y73594D01*
X200279Y73301D01*
X199364Y72690D01*
X198094Y73176D01*
Y79632D01*
X198857Y80142D01*
X199580Y81224D01*
X199834Y82500D01*
Y87500D01*
X199580Y88776D01*
X198857Y89858D01*
X198344Y90201D01*
Y116821D01*
X198051Y118292D01*
X197218Y119539D01*
X197218Y119539D01*
X194289Y122468D01*
X193042Y123301D01*
X191571Y123594D01*
X191571Y123594D01*
X153128D01*
X152099Y124020D01*
D02*
G37*
G36*
X335000Y112000D02*
X329681D01*
Y107250D01*
X329876Y106267D01*
X330433Y105433D01*
X331267Y104876D01*
X332250Y104681D01*
X335000D01*
Y112000D01*
D02*
G37*
G36*
X128770Y114500D02*
X108500D01*
Y104230D01*
X128770D01*
Y114500D01*
D02*
G37*
G36*
X106500D02*
X86230D01*
Y104230D01*
X106500D01*
Y114500D01*
D02*
G37*
G36*
X475270Y102770D02*
X464730D01*
Y98840D01*
X453817D01*
Y100125D01*
X453631Y101060D01*
X453102Y101852D01*
X452309Y102381D01*
X451375Y102567D01*
X444625D01*
X443690Y102381D01*
X443494Y102250D01*
X435506D01*
X435309Y102381D01*
X434375Y102567D01*
X427625D01*
X426691Y102381D01*
X425898Y101852D01*
X425369Y101060D01*
X425183Y100125D01*
Y92375D01*
X425369Y91440D01*
X425898Y90648D01*
X426691Y90119D01*
X427625Y89933D01*
X428410D01*
Y64573D01*
X405177Y41340D01*
X301199D01*
X300169Y42370D01*
X298599Y43020D01*
X296901D01*
X295331Y42370D01*
X294130Y41169D01*
X293480Y39599D01*
Y37901D01*
X294130Y36331D01*
X295331Y35130D01*
X296901Y34480D01*
X298599D01*
X300169Y35130D01*
X300670Y35631D01*
X301207Y35541D01*
X301642Y34181D01*
X301630Y34169D01*
X300980Y32599D01*
Y30901D01*
X301380Y29936D01*
X300636Y28666D01*
X285746D01*
X277081Y37331D01*
X276241Y37893D01*
X275250Y38090D01*
X252449D01*
X251419Y39120D01*
X249849Y39770D01*
X248151D01*
X246581Y39120D01*
X245551Y38090D01*
X168323D01*
X158831Y47581D01*
X157991Y48143D01*
X157000Y48340D01*
X88699D01*
X87669Y49370D01*
X86099Y50020D01*
X84401D01*
X82831Y49370D01*
X81630Y48169D01*
X80980Y46599D01*
Y44901D01*
X81630Y43331D01*
X82831Y42130D01*
X84401Y41480D01*
X86099D01*
X87669Y42130D01*
X88699Y43160D01*
X155927D01*
X165419Y33669D01*
X166259Y33107D01*
X167250Y32910D01*
X245551D01*
X246581Y31880D01*
X248151Y31230D01*
X249849D01*
X251419Y31880D01*
X252449Y32910D01*
X274177D01*
X282842Y24245D01*
X283682Y23684D01*
X284674Y23487D01*
X289620D01*
X289961Y22217D01*
X289610Y22014D01*
X287978Y20382D01*
X286823Y18382D01*
X286225Y16151D01*
Y13842D01*
X286823Y11612D01*
X287978Y9612D01*
X289610Y7979D01*
X291610Y6824D01*
X293841Y6227D01*
X296150D01*
X298380Y6824D01*
X300380Y7979D01*
X302013Y9612D01*
X303168Y11612D01*
X303765Y13842D01*
Y16151D01*
X303168Y18382D01*
X302013Y20382D01*
X300380Y22014D01*
X300030Y22217D01*
X300370Y23487D01*
X334620D01*
X334961Y22217D01*
X334610Y22014D01*
X332977Y20382D01*
X331823Y18382D01*
X331225Y16151D01*
Y13842D01*
X331823Y11612D01*
X332977Y9612D01*
X334610Y7979D01*
X336610Y6824D01*
X338841Y6227D01*
X341150D01*
X343380Y6824D01*
X345380Y7979D01*
X347013Y9612D01*
X348168Y11612D01*
X348765Y13842D01*
Y16151D01*
X348168Y18382D01*
X347013Y20382D01*
X345380Y22014D01*
X345030Y22217D01*
X345370Y23487D01*
X372843D01*
X377234Y19095D01*
X376823Y18382D01*
X376225Y16151D01*
Y13842D01*
X376823Y11612D01*
X377977Y9612D01*
X379610Y7979D01*
X381610Y6824D01*
X383841Y6227D01*
X386150D01*
X388380Y6824D01*
X390380Y7979D01*
X392013Y9612D01*
X393167Y11612D01*
X393765Y13842D01*
Y16151D01*
X393167Y18382D01*
X392013Y20382D01*
X390380Y22014D01*
X388380Y23169D01*
X386150Y23767D01*
X383841D01*
X381610Y23169D01*
X380897Y22757D01*
X375764Y27890D01*
X375765Y27965D01*
X376158Y29160D01*
X414427D01*
X423092Y20496D01*
X422977Y20382D01*
X421823Y18382D01*
X421225Y16151D01*
Y13842D01*
X421823Y11612D01*
X422977Y9612D01*
X424610Y7979D01*
X426610Y6824D01*
X428840Y6227D01*
X431150D01*
X433380Y6824D01*
X435380Y7979D01*
X437013Y9612D01*
X438167Y11612D01*
X438765Y13842D01*
Y16151D01*
X438167Y18382D01*
X437013Y20382D01*
X435380Y22014D01*
X433380Y23169D01*
X431150Y23767D01*
X428840D01*
X427504Y23409D01*
X417331Y33581D01*
X416491Y34143D01*
X415500Y34340D01*
X309257D01*
X308842Y34890D01*
X309475Y36160D01*
X406250D01*
X407241Y36357D01*
X408081Y36919D01*
X432831Y61669D01*
X433393Y62509D01*
X433590Y63500D01*
Y89933D01*
X434375D01*
X435309Y90119D01*
X435506Y90250D01*
X443494D01*
X443690Y90119D01*
X444625Y89933D01*
X451375D01*
X452309Y90119D01*
X453102Y90648D01*
X453631Y91440D01*
X453817Y92375D01*
Y93660D01*
X464730D01*
Y92230D01*
X475270D01*
Y102770D01*
D02*
G37*
G36*
X490270D02*
X486000D01*
Y98500D01*
X490270D01*
Y102770D01*
D02*
G37*
G36*
X484000D02*
X479730D01*
Y98500D01*
X484000D01*
Y102770D01*
D02*
G37*
G36*
X335000Y101319D02*
X332250D01*
X331267Y101124D01*
X330433Y100567D01*
X329876Y99733D01*
X329681Y98750D01*
Y94000D01*
X335000D01*
Y101319D01*
D02*
G37*
G36*
X490270Y96500D02*
X486000D01*
Y92230D01*
X490270D01*
Y96500D01*
D02*
G37*
G36*
X484000D02*
X479730D01*
Y92230D01*
X484000D01*
Y96500D01*
D02*
G37*
G36*
X177500Y90834D02*
X176500D01*
Y86000D01*
X180834D01*
Y87500D01*
X180580Y88776D01*
X179858Y89858D01*
X178776Y90580D01*
X177500Y90834D01*
D02*
G37*
G36*
X174500D02*
X173500D01*
X172224Y90580D01*
X171143Y89858D01*
X170420Y88776D01*
X170166Y87500D01*
Y86000D01*
X174500D01*
Y90834D01*
D02*
G37*
G36*
X155270Y89270D02*
X142500D01*
Y85500D01*
X155270D01*
Y89270D01*
D02*
G37*
G36*
X140500D02*
X127730D01*
Y85500D01*
X140500D01*
Y89270D01*
D02*
G37*
G36*
X335000Y92000D02*
X329681D01*
Y87250D01*
X329876Y86267D01*
X330433Y85433D01*
X331267Y84876D01*
X332250Y84681D01*
X335000D01*
Y92000D01*
D02*
G37*
G36*
X155270Y83500D02*
X142500D01*
Y79730D01*
X155270D01*
Y83500D01*
D02*
G37*
G36*
X140500D02*
X127730D01*
Y79730D01*
X140500D01*
Y83500D01*
D02*
G37*
G36*
X180834Y84000D02*
X176500D01*
Y79166D01*
X177500D01*
X178776Y79420D01*
X179858Y80142D01*
X180580Y81224D01*
X180834Y82500D01*
Y84000D01*
D02*
G37*
G36*
X174500D02*
X170166D01*
Y82500D01*
X170420Y81224D01*
X171143Y80142D01*
X172224Y79420D01*
X173500Y79166D01*
X174500D01*
Y84000D01*
D02*
G37*
G36*
X281089Y90770D02*
X278911D01*
X276808Y90206D01*
X274922Y89118D01*
X273382Y87578D01*
X272294Y85692D01*
X271730Y83589D01*
Y81411D01*
X272294Y79308D01*
X273382Y77422D01*
X274922Y75882D01*
X276808Y74794D01*
X278911Y74230D01*
X281089D01*
X283192Y74794D01*
X285078Y75882D01*
X286618Y77422D01*
X287706Y79308D01*
X288270Y81411D01*
Y83589D01*
X287706Y85692D01*
X286618Y87578D01*
X285078Y89118D01*
X283192Y90206D01*
X281089Y90770D01*
D02*
G37*
G36*
X335000Y81319D02*
X332250D01*
X331267Y81124D01*
X330433Y80567D01*
X329876Y79733D01*
X329681Y78750D01*
Y74000D01*
X335000D01*
Y81319D01*
D02*
G37*
G36*
X128770Y77270D02*
X108500D01*
Y67000D01*
X128770D01*
Y77270D01*
D02*
G37*
G36*
X106500D02*
X86230D01*
Y67000D01*
X106500D01*
Y77270D01*
D02*
G37*
G36*
X335000Y72000D02*
X329681D01*
Y67250D01*
X329876Y66267D01*
X330433Y65433D01*
X331267Y64876D01*
X332250Y64681D01*
X335000D01*
Y72000D01*
D02*
G37*
G36*
X175000Y68319D02*
X172250D01*
X171267Y68124D01*
X170433Y67567D01*
X169876Y66733D01*
X169681Y65750D01*
Y61000D01*
X175000D01*
Y68319D01*
D02*
G37*
G36*
X128770Y65000D02*
X108500D01*
Y54730D01*
X128770D01*
Y65000D01*
D02*
G37*
G36*
X106500D02*
X86230D01*
Y54730D01*
X106500D01*
Y65000D01*
D02*
G37*
G36*
X335000Y61319D02*
X332250D01*
X331267Y61124D01*
X330433Y60567D01*
X329876Y59733D01*
X329681Y58750D01*
Y54000D01*
X335000D01*
Y61319D01*
D02*
G37*
G36*
X225520Y62250D02*
X219000D01*
X212480D01*
Y59980D01*
Y53480D01*
X225520D01*
Y59980D01*
Y62250D01*
D02*
G37*
G36*
X175000Y59000D02*
X169681D01*
Y54250D01*
X169876Y53267D01*
X170433Y52433D01*
X171267Y51876D01*
X172250Y51681D01*
X175000D01*
Y59000D01*
D02*
G37*
G36*
X335000Y52000D02*
X329681D01*
Y47250D01*
X329876Y46267D01*
X330433Y45433D01*
X331267Y44876D01*
X332250Y44681D01*
X335000D01*
Y52000D01*
D02*
G37*
G36*
X76150Y23767D02*
X75996D01*
Y15997D01*
X83766D01*
Y16151D01*
X83168Y18382D01*
X82014Y20382D01*
X80381Y22014D01*
X78381Y23169D01*
X76150Y23767D01*
D02*
G37*
G36*
X73996D02*
X73841D01*
X71611Y23169D01*
X69611Y22014D01*
X67978Y20382D01*
X66823Y18382D01*
X66226Y16151D01*
Y15997D01*
X73996D01*
Y23767D01*
D02*
G37*
G36*
X486333Y39501D02*
X483772D01*
X483575Y39462D01*
X483374D01*
X480863Y38962D01*
X480677Y38885D01*
X480480Y38846D01*
X478114Y37866D01*
X477947Y37755D01*
X477762Y37678D01*
X475633Y36255D01*
X475491Y36113D01*
X475324Y36002D01*
X473513Y34191D01*
X473401Y34024D01*
X473259Y33882D01*
X471837Y31753D01*
X471760Y31567D01*
X471648Y31400D01*
X470668Y29034D01*
X470629Y28837D01*
X470552Y28651D01*
X470052Y26140D01*
Y25939D01*
X470013Y25742D01*
Y23181D01*
X470052Y22984D01*
Y22784D01*
X470552Y20272D01*
X470629Y20087D01*
X470668Y19889D01*
X471648Y17524D01*
X471760Y17357D01*
X471837Y17171D01*
X473259Y15042D01*
X473401Y14900D01*
X473513Y14733D01*
X475324Y12922D01*
X475491Y12810D01*
X475633Y12668D01*
X477762Y11246D01*
X477947Y11169D01*
X478114Y11057D01*
X480480Y10077D01*
X480677Y10038D01*
X480863Y9961D01*
X483374Y9462D01*
X483575D01*
X483772Y9423D01*
X486333D01*
X486530Y9462D01*
X486731D01*
X489242Y9961D01*
X489428Y10038D01*
X489625Y10077D01*
X491991Y11057D01*
X492158Y11169D01*
X492343Y11246D01*
X494472Y12668D01*
X494614Y12810D01*
X494781Y12922D01*
X496592Y14733D01*
X496704Y14900D01*
X496846Y15042D01*
X498269Y17171D01*
X498345Y17357D01*
X498457Y17524D01*
X499437Y19889D01*
X499476Y20087D01*
X499553Y20272D01*
X500052Y22784D01*
Y22984D01*
X500092Y23181D01*
Y25742D01*
X500052Y25939D01*
Y26140D01*
X499553Y28652D01*
X499476Y28837D01*
X499437Y29034D01*
X498457Y31400D01*
X498345Y31567D01*
X498269Y31753D01*
X496846Y33882D01*
X496704Y34024D01*
X496592Y34191D01*
X494781Y36002D01*
X494614Y36113D01*
X494472Y36255D01*
X492343Y37678D01*
X492158Y37755D01*
X491991Y37866D01*
X489625Y38846D01*
X489428Y38885D01*
X489242Y38962D01*
X486731Y39462D01*
X486530D01*
X486333Y39501D01*
D02*
G37*
G36*
X26333D02*
X23772D01*
X23575Y39462D01*
X23374D01*
X20863Y38962D01*
X20677Y38885D01*
X20480Y38846D01*
X18114Y37866D01*
X17947Y37755D01*
X17762Y37678D01*
X15633Y36255D01*
X15491Y36113D01*
X15324Y36002D01*
X13513Y34191D01*
X13401Y34024D01*
X13259Y33882D01*
X11837Y31753D01*
X11760Y31567D01*
X11648Y31400D01*
X10668Y29034D01*
X10629Y28837D01*
X10552Y28651D01*
X10052Y26140D01*
Y25939D01*
X10013Y25742D01*
Y23181D01*
X10052Y22984D01*
Y22784D01*
X10552Y20272D01*
X10629Y20087D01*
X10668Y19889D01*
X11648Y17524D01*
X11760Y17357D01*
X11837Y17171D01*
X13259Y15042D01*
X13401Y14900D01*
X13513Y14733D01*
X15324Y12922D01*
X15491Y12810D01*
X15633Y12668D01*
X17762Y11246D01*
X17947Y11169D01*
X18114Y11057D01*
X20480Y10077D01*
X20677Y10038D01*
X20863Y9961D01*
X23374Y9462D01*
X23575D01*
X23772Y9423D01*
X26333D01*
X26530Y9462D01*
X26731D01*
X29242Y9961D01*
X29428Y10038D01*
X29625Y10077D01*
X31991Y11057D01*
X32158Y11169D01*
X32343Y11246D01*
X34472Y12668D01*
X34614Y12810D01*
X34781Y12922D01*
X36592Y14733D01*
X36704Y14900D01*
X36846Y15042D01*
X38268Y17171D01*
X38345Y17357D01*
X38457Y17524D01*
X39437Y19889D01*
X39476Y20087D01*
X39553Y20272D01*
X40052Y22784D01*
Y22984D01*
X40092Y23181D01*
Y25742D01*
X40052Y25939D01*
Y26140D01*
X39553Y28652D01*
X39476Y28837D01*
X39437Y29034D01*
X38457Y31400D01*
X38345Y31567D01*
X38268Y31753D01*
X36846Y33882D01*
X36704Y34024D01*
X36592Y34191D01*
X34781Y36002D01*
X34614Y36113D01*
X34472Y36255D01*
X32343Y37678D01*
X32158Y37755D01*
X31991Y37866D01*
X29625Y38846D01*
X29428Y38885D01*
X29242Y38962D01*
X26731Y39462D01*
X26530D01*
X26333Y39501D01*
D02*
G37*
G36*
X251150Y23767D02*
X248841D01*
X246610Y23169D01*
X244611Y22014D01*
X242978Y20382D01*
X241823Y18382D01*
X241225Y16151D01*
Y13842D01*
X241823Y11612D01*
X242978Y9612D01*
X244611Y7979D01*
X246610Y6824D01*
X248841Y6227D01*
X251150D01*
X253381Y6824D01*
X255380Y7979D01*
X257013Y9612D01*
X258168Y11612D01*
X258765Y13842D01*
Y16151D01*
X258168Y18382D01*
X257013Y20382D01*
X255380Y22014D01*
X253381Y23169D01*
X251150Y23767D01*
D02*
G37*
G36*
X206150D02*
X203841D01*
X201610Y23169D01*
X199611Y22014D01*
X197978Y20382D01*
X196823Y18382D01*
X196225Y16151D01*
Y13842D01*
X196823Y11612D01*
X197978Y9612D01*
X199611Y7979D01*
X201610Y6824D01*
X203841Y6227D01*
X206150D01*
X208381Y6824D01*
X210380Y7979D01*
X212013Y9612D01*
X213168Y11612D01*
X213766Y13842D01*
Y16151D01*
X213168Y18382D01*
X212013Y20382D01*
X210380Y22014D01*
X208381Y23169D01*
X206150Y23767D01*
D02*
G37*
G36*
X161150D02*
X158841D01*
X156610Y23169D01*
X154611Y22014D01*
X152978Y20382D01*
X151823Y18382D01*
X151226Y16151D01*
Y13842D01*
X151823Y11612D01*
X152978Y9612D01*
X154611Y7979D01*
X156610Y6824D01*
X158841Y6227D01*
X161150D01*
X163381Y6824D01*
X165380Y7979D01*
X167013Y9612D01*
X168168Y11612D01*
X168766Y13842D01*
Y16151D01*
X168168Y18382D01*
X167013Y20382D01*
X165380Y22014D01*
X163381Y23169D01*
X161150Y23767D01*
D02*
G37*
G36*
X116150D02*
X113841D01*
X111611Y23169D01*
X109611Y22014D01*
X107978Y20382D01*
X106823Y18382D01*
X106226Y16151D01*
Y13842D01*
X106823Y11612D01*
X107978Y9612D01*
X109611Y7979D01*
X111611Y6824D01*
X113841Y6227D01*
X116150D01*
X118381Y6824D01*
X120381Y7979D01*
X122013Y9612D01*
X123168Y11612D01*
X123766Y13842D01*
Y16151D01*
X123168Y18382D01*
X122013Y20382D01*
X120381Y22014D01*
X118381Y23169D01*
X116150Y23767D01*
D02*
G37*
G36*
X83766Y13997D02*
X75996D01*
Y6227D01*
X76150D01*
X78381Y6824D01*
X80381Y7979D01*
X82014Y9612D01*
X83168Y11612D01*
X83766Y13842D01*
Y13997D01*
D02*
G37*
G36*
X73996D02*
X66226D01*
Y13842D01*
X66823Y11612D01*
X67978Y9612D01*
X69611Y7979D01*
X71611Y6824D01*
X73841Y6227D01*
X73996D01*
Y13997D01*
D02*
G37*
%LPD*%
G36*
X204000Y377046D02*
X203000Y376250D01*
X194500D01*
X188750Y370500D01*
Y361000D01*
X187006D01*
X186810Y361131D01*
X185875Y361317D01*
X183500D01*
Y355000D01*
Y348683D01*
X185875D01*
X186810Y348869D01*
X187006Y349000D01*
X188750D01*
Y346750D01*
X200750D01*
X201000Y347000D01*
X202500Y345500D01*
Y341025D01*
X199730D01*
Y333380D01*
X202500D01*
Y331380D01*
X199730D01*
Y325250D01*
X195500D01*
Y320270D01*
X188620D01*
Y317500D01*
X187620D01*
Y316500D01*
X178975D01*
Y316000D01*
X156750D01*
Y330250D01*
X157000Y330500D01*
X159000D01*
Y328506D01*
X158869Y328310D01*
X158683Y327375D01*
Y325000D01*
X171317D01*
Y327375D01*
X171131Y328310D01*
X171000Y328506D01*
Y332000D01*
X175000Y336000D01*
Y375250D01*
X183750Y384000D01*
X204000Y384000D01*
Y377046D01*
D02*
G37*
G36*
X327033Y355473D02*
X329730Y352776D01*
Y351651D01*
X330380Y350081D01*
X331581Y348880D01*
X333151Y348230D01*
X333250D01*
Y328000D01*
X304124D01*
X303648Y329149D01*
X303647Y329270D01*
X303817Y330125D01*
Y332500D01*
X291183D01*
Y330125D01*
X291353Y329270D01*
X291352Y329149D01*
X290876Y328000D01*
X289250D01*
X287500Y326250D01*
Y322500D01*
X283500Y318500D01*
X281025D01*
Y320270D01*
X273380D01*
Y317500D01*
X271380D01*
Y320270D01*
X265500D01*
Y334500D01*
X274500Y343500D01*
X315000D01*
Y354671D01*
X315902Y355566D01*
X327033Y355473D01*
D02*
G37*
G36*
X384393Y246360D02*
X383867Y245090D01*
X379009D01*
X376270Y247829D01*
Y248349D01*
X375620Y249919D01*
X374419Y251120D01*
X372849Y251770D01*
X371151D01*
X369581Y251120D01*
X368380Y249919D01*
X367730Y248349D01*
Y246651D01*
X368380Y245081D01*
X369581Y243880D01*
X371151Y243230D01*
X372849D01*
X373340Y243433D01*
X375414Y241360D01*
X374888Y240090D01*
X368009D01*
X366520Y241579D01*
Y242099D01*
X365870Y243669D01*
X364669Y244870D01*
X363099Y245520D01*
X361401D01*
X359831Y244870D01*
X358630Y243669D01*
X357980Y242099D01*
Y240401D01*
X358630Y238831D01*
X359831Y237630D01*
X361401Y236980D01*
X362965D01*
X363386Y236594D01*
X363384Y236453D01*
X362779Y235324D01*
X356758D01*
X353666Y238417D01*
X352749Y239029D01*
X352407Y239097D01*
Y246350D01*
X347333D01*
Y249241D01*
X347333Y249242D01*
X347118Y250322D01*
X346506Y251239D01*
X346506Y251239D01*
X345074Y252670D01*
Y255000D01*
X351994D01*
X352191Y254869D01*
X353125Y254683D01*
X359875D01*
X360809Y254869D01*
X361602Y255398D01*
X362131Y256190D01*
X362317Y257125D01*
Y257324D01*
X363587Y257374D01*
X364581Y256380D01*
X366151Y255730D01*
X367849D01*
X369419Y256380D01*
X370449Y257410D01*
X373343D01*
X384393Y246360D01*
D02*
G37*
G36*
X323581Y257380D02*
X325151Y256730D01*
X326849D01*
X328140Y257265D01*
X329410Y256712D01*
Y253350D01*
X324260D01*
X323269Y253153D01*
X322429Y252591D01*
X320108Y250271D01*
X319875Y250317D01*
X313125D01*
X312190Y250131D01*
X311994Y250000D01*
X304006D01*
X303810Y250131D01*
X302875Y250317D01*
X300500D01*
Y244000D01*
Y237683D01*
X302875D01*
X303810Y237869D01*
X304006Y238000D01*
X310541D01*
X311068Y236730D01*
X310669Y236331D01*
X310107Y235491D01*
X309910Y234500D01*
Y231270D01*
X302730D01*
Y224730D01*
Y222500D01*
X309250D01*
Y220500D01*
X302730D01*
Y218230D01*
Y211730D01*
X315770D01*
Y212332D01*
X317478D01*
X317478Y212332D01*
X318559Y212547D01*
X319475Y213160D01*
X322497Y216181D01*
X323000Y216933D01*
X323643Y216925D01*
X324270Y216722D01*
Y213726D01*
X320898Y210355D01*
X320331Y210120D01*
X319130Y208919D01*
X318480Y207349D01*
Y205651D01*
X319130Y204081D01*
X320331Y202880D01*
X321901Y202230D01*
X323599D01*
X325169Y202880D01*
X326370Y204081D01*
X326987Y205572D01*
X330831Y209416D01*
X330831Y209416D01*
X331665Y210663D01*
X331957Y212134D01*
Y215122D01*
X332217Y216295D01*
X334757Y216295D01*
X335011Y216400D01*
D01*
X336198Y216602D01*
X336768Y216486D01*
X337015Y216147D01*
X337384Y215122D01*
X337149Y214770D01*
X336901D01*
X335331Y214120D01*
X334130Y212919D01*
X333480Y211349D01*
Y209651D01*
X334130Y208081D01*
X335331Y206880D01*
X336901Y206230D01*
X338599D01*
X339211Y206483D01*
X339931Y205407D01*
X322114Y187590D01*
X316341D01*
X315406Y188400D01*
Y201100D01*
X311479D01*
X310732Y202093D01*
X310517Y203174D01*
X309904Y204090D01*
X309904Y204090D01*
X304747Y209247D01*
X303831Y209859D01*
X302750Y210074D01*
X302750Y210074D01*
X284427D01*
X284324Y210177D01*
Y211730D01*
X296770D01*
Y218230D01*
Y220500D01*
X290250D01*
Y222500D01*
X296770D01*
Y224730D01*
Y231270D01*
X284310D01*
X283784Y232540D01*
X292413Y241169D01*
X292769Y241136D01*
X293683Y240742D01*
Y240125D01*
X293869Y239191D01*
X294398Y238398D01*
X295191Y237869D01*
X296125Y237683D01*
X298500D01*
Y244000D01*
Y250317D01*
X296125D01*
X295191Y250131D01*
X294594Y249733D01*
X293840Y249955D01*
X293324Y250280D01*
Y254330D01*
X297170Y258176D01*
X322786D01*
X323581Y257380D01*
D02*
G37*
G36*
X345168Y240000D02*
Y234920D01*
X337547D01*
X342627Y240000D01*
X337547Y245080D01*
X345168D01*
Y240000D01*
D02*
G37*
G36*
X335008Y245080D02*
X340088Y240000D01*
X335008Y234920D01*
X332467Y234920D01*
Y245080D01*
X335008Y245080D01*
D02*
G37*
G36*
X344917Y222750D02*
Y217670D01*
X337298D01*
X342378Y222750D01*
X337298Y227830D01*
X344917D01*
Y222750D01*
D02*
G37*
G36*
X334757Y227830D02*
X339837Y222750D01*
X334757Y217670D01*
X332217Y217670D01*
Y227830D01*
X334757Y227830D01*
D02*
G37*
G36*
X308167Y194750D02*
Y189670D01*
X300548D01*
X305627Y194750D01*
X300548Y199830D01*
X308167D01*
Y194750D01*
D02*
G37*
G36*
X298008Y199830D02*
X303088Y194750D01*
X298008Y189670D01*
X295467Y189670D01*
Y199830D01*
X298008Y199830D01*
D02*
G37*
G36*
X107230Y185230D02*
X112730D01*
Y179730D01*
X112730D01*
Y174730D01*
Y173500D01*
X117500D01*
Y171500D01*
X112730D01*
Y170270D01*
X112730D01*
Y164770D01*
X92270D01*
Y170270D01*
X92270D01*
Y171500D01*
X82730D01*
Y169730D01*
X82730Y169730D01*
X82730Y169730D01*
X82503Y168554D01*
X80669Y166720D01*
X80107Y165880D01*
X79910Y164889D01*
Y142949D01*
X78880Y141919D01*
X78230Y140349D01*
Y138651D01*
X78880Y137081D01*
X80081Y135880D01*
X81651Y135230D01*
X83349D01*
X84919Y135880D01*
X86120Y137081D01*
X86770Y138651D01*
Y140349D01*
X86120Y141919D01*
X85090Y142949D01*
Y163816D01*
X85954Y164680D01*
X87270D01*
X87520Y164730D01*
X92230D01*
Y160273D01*
X92176Y160000D01*
Y157670D01*
X90003Y155497D01*
X89391Y154581D01*
X89176Y153500D01*
X89176Y153500D01*
Y142750D01*
X89176Y142750D01*
X89391Y141669D01*
X90003Y140753D01*
X95896Y134860D01*
X95392Y133590D01*
X65823D01*
X58715Y140698D01*
Y171302D01*
X59949Y172537D01*
X60027Y172542D01*
X61291Y172082D01*
X61369Y171691D01*
X61500Y171494D01*
Y163506D01*
X61369Y163309D01*
X61183Y162375D01*
Y160000D01*
X73817D01*
Y162375D01*
X73631Y163309D01*
X73500Y163506D01*
Y171494D01*
X73631Y171691D01*
X73817Y172625D01*
Y174910D01*
X82730D01*
Y173500D01*
X92270D01*
Y174730D01*
Y179730D01*
X92270D01*
Y185230D01*
X97770D01*
Y185230D01*
X107230D01*
Y185230D01*
D02*
G37*
G36*
X129594Y167243D02*
X130434Y166682D01*
X131183Y166533D01*
Y162625D01*
X131369Y161691D01*
X131500Y161494D01*
Y153506D01*
X131369Y153309D01*
X131183Y152375D01*
Y145625D01*
X131369Y144691D01*
X131898Y143898D01*
X132690Y143369D01*
X132986Y143310D01*
X133417Y141945D01*
X130796Y139324D01*
X111409D01*
X110883Y140594D01*
X111620Y141331D01*
X112270Y142901D01*
Y144599D01*
X111620Y146169D01*
X110419Y147370D01*
X109928Y147573D01*
Y149532D01*
X109731Y150523D01*
X109169Y151363D01*
X107630Y152903D01*
Y155230D01*
X112770D01*
Y156150D01*
X114040Y156402D01*
X114380Y155581D01*
X115581Y154380D01*
X117151Y153730D01*
X118849D01*
X120419Y154380D01*
X121620Y155581D01*
X122270Y157151D01*
Y158849D01*
X121620Y160419D01*
X120419Y161620D01*
X120340Y161653D01*
Y164730D01*
X122270D01*
Y169730D01*
X122270D01*
Y172908D01*
X123443Y173394D01*
X129594Y167243D01*
D02*
G37*
%LPC*%
G36*
X181500Y361317D02*
X179125D01*
X178191Y361131D01*
X177398Y360602D01*
X176869Y359809D01*
X176683Y358875D01*
Y356000D01*
X181500D01*
Y361317D01*
D02*
G37*
G36*
Y354000D02*
X176683D01*
Y351125D01*
X176869Y350191D01*
X177398Y349398D01*
X178191Y348869D01*
X179125Y348683D01*
X181500D01*
Y354000D01*
D02*
G37*
G36*
X186620Y320270D02*
X178975D01*
Y318500D01*
X186620D01*
Y320270D01*
D02*
G37*
G36*
X171317Y323000D02*
X166000D01*
Y318183D01*
X168875D01*
X169809Y318369D01*
X170602Y318898D01*
X171131Y319690D01*
X171317Y320625D01*
Y323000D01*
D02*
G37*
G36*
X164000D02*
X158683D01*
Y320625D01*
X158869Y319690D01*
X159398Y318898D01*
X160191Y318369D01*
X161125Y318183D01*
X164000D01*
Y323000D01*
D02*
G37*
G36*
X301375Y339317D02*
X298500D01*
Y334500D01*
X303817D01*
Y336875D01*
X303631Y337809D01*
X303102Y338602D01*
X302309Y339131D01*
X301375Y339317D01*
D02*
G37*
G36*
X296500D02*
X293625D01*
X292691Y339131D01*
X291898Y338602D01*
X291369Y337809D01*
X291183Y336875D01*
Y334500D01*
X296500D01*
Y339317D01*
D02*
G37*
G36*
X105000Y181344D02*
X103500D01*
Y176000D01*
X108844D01*
Y177500D01*
X108551Y178971D01*
X107718Y180218D01*
X106471Y181051D01*
X105000Y181344D01*
D02*
G37*
G36*
X101500D02*
X100000D01*
X98529Y181051D01*
X97282Y180218D01*
X96449Y178971D01*
X96156Y177500D01*
Y176000D01*
X101500D01*
Y181344D01*
D02*
G37*
G36*
X108844Y174000D02*
X103500D01*
Y168656D01*
X105000D01*
X106471Y168949D01*
X107718Y169782D01*
X108551Y171029D01*
X108844Y172500D01*
Y174000D01*
D02*
G37*
G36*
X101500D02*
X96156D01*
Y172500D01*
X96449Y171029D01*
X97282Y169782D01*
X98529Y168949D01*
X100000Y168656D01*
X101500D01*
Y174000D01*
D02*
G37*
G36*
X73817Y158000D02*
X68500D01*
Y153183D01*
X71375D01*
X72309Y153369D01*
X73102Y153898D01*
X73631Y154691D01*
X73817Y155625D01*
Y158000D01*
D02*
G37*
G36*
X66500D02*
X61183D01*
Y155625D01*
X61369Y154691D01*
X61898Y153898D01*
X62691Y153369D01*
X63625Y153183D01*
X66500D01*
Y158000D01*
D02*
G37*
%LPD*%
D10*
X191571Y119750D02*
X194500Y116821D01*
X151250Y119750D02*
X191571D01*
X194500Y85000D02*
Y116821D01*
X137750Y148750D02*
X151000D01*
X151250Y119750D02*
X151250Y119750D01*
X141747Y97247D02*
X157860D01*
X141500Y97000D02*
X141747Y97247D01*
X165613Y105000D02*
X185000D01*
X157860Y97247D02*
X165613Y105000D01*
X328114Y221186D02*
X329678Y222750D01*
X328114Y212134D02*
Y221186D01*
X322750Y206771D02*
X328114Y212134D01*
X322750Y206500D02*
Y206771D01*
X313100Y57100D02*
X313250Y57250D01*
X280000Y57100D02*
X313100D01*
X204250Y47250D02*
X270150D01*
X280000Y57100D01*
X194250Y62250D02*
X196500Y60000D01*
Y55000D02*
X204250Y47250D01*
X196500Y55000D02*
Y60000D01*
X194250Y84750D02*
X194500Y85000D01*
X194250Y62250D02*
Y84750D01*
Y62250D02*
X201750Y69750D01*
X220500Y70480D02*
Y85000D01*
D14*
X131966Y136500D02*
X137500Y142034D01*
X92000Y142750D02*
X98250Y136500D01*
X131966D01*
X336875Y287125D02*
Y296313D01*
X335250Y297938D02*
Y298750D01*
Y297938D02*
X336875Y296313D01*
X92000Y142750D02*
Y153500D01*
X95000Y156500D01*
Y160000D01*
X151000Y148750D02*
X151250Y148500D01*
X87500Y172500D02*
X93750D01*
X277755Y200995D02*
X287698D01*
X292927Y195766D01*
X265000Y213750D02*
X277755Y200995D01*
X270250Y226250D02*
Y226750D01*
X267250Y229750D02*
X270250Y226750D01*
X257500Y239000D02*
X266750Y229750D01*
X270250Y226250D02*
X271279Y227279D01*
X273227Y229228D01*
X257500Y239000D02*
Y247620D01*
X266750Y229750D02*
X267250D01*
X290500Y243250D02*
Y255500D01*
X273227Y229228D02*
X276478D01*
X290500Y243250D01*
X281500Y209007D02*
Y225743D01*
X283257Y227500D02*
X289750D01*
X281500Y209007D02*
X283257Y207250D01*
X302750D01*
X292927Y194750D02*
Y195766D01*
X281500Y225743D02*
X283257Y227500D01*
X307907Y196915D02*
Y202093D01*
Y196915D02*
X310072Y194750D01*
X302750Y207250D02*
X307907Y202093D01*
X289750Y227500D02*
X290250Y228000D01*
X270250Y219000D02*
Y226250D01*
X265000Y213750D02*
X270250Y219000D01*
X355588Y232500D02*
X389250D01*
X344000Y361750D02*
X350500Y368250D01*
X344000Y344500D02*
Y361750D01*
X350500Y368250D02*
X395250D01*
X334000Y334500D02*
X344000Y344500D01*
X395250Y368250D02*
X424647Y397648D01*
X182822Y370822D02*
X195250Y383250D01*
X226250D02*
X232270Y377230D01*
X195250Y383250D02*
X226250D01*
X221750Y402750D02*
X283750D01*
X334000Y352500D01*
X212500Y412000D02*
X221750Y402750D01*
X137500Y145770D02*
X140395D01*
X137500Y142034D02*
Y145770D01*
X140395D02*
X140813Y146187D01*
X349636Y236420D02*
X351669D01*
X355588Y232500D01*
X347072Y238984D02*
X349636Y236420D01*
X346823Y223766D02*
X349386Y226330D01*
X350402D01*
X346823Y222750D02*
Y223766D01*
X350402Y226330D02*
X355588Y231516D01*
Y232500D01*
X337750Y210500D02*
X344454Y217204D01*
Y221398D01*
X336500Y286750D02*
X336875Y287125D01*
X290500Y255500D02*
X296000Y261000D01*
X322250Y334500D02*
Y351000D01*
X299750Y373500D02*
X322250Y351000D01*
Y334500D02*
X334000D01*
X254000Y373500D02*
X299750D01*
X236000D02*
X254000D01*
X320438Y333500D02*
X321438Y334500D01*
X297500Y333500D02*
X320438D01*
X321438Y334500D02*
X322250D01*
X212500Y412000D02*
Y414000D01*
X235500Y373500D02*
X236000D01*
X232270Y376730D02*
Y377230D01*
Y376730D02*
X235500Y373500D01*
X209500Y449250D02*
X212500Y446250D01*
Y414000D02*
Y446250D01*
X342250Y251500D02*
X344509Y249242D01*
X339500Y261000D02*
X342250Y258250D01*
Y251500D02*
Y258250D01*
X344509Y242564D02*
Y249242D01*
Y242564D02*
X347072Y240000D01*
X320500Y230572D02*
X326348Y236420D01*
X320500Y218178D02*
Y230572D01*
X317478Y215157D02*
X320500Y218178D01*
X329927Y238984D02*
Y240000D01*
X327364Y236420D02*
X329927Y238984D01*
X326348Y236420D02*
X327364D01*
X309407Y215157D02*
X317478D01*
X309250Y215000D02*
X309407Y215157D01*
X389250Y232500D02*
X405625D01*
X389250Y229257D02*
X391007Y227500D01*
X405625D01*
X389250Y229257D02*
Y232500D01*
X347072Y238984D02*
Y240000D01*
X296000Y261000D02*
X326000D01*
X111500Y172500D02*
X117500D01*
X424647Y397648D02*
X430648D01*
X432250Y399250D01*
X182822Y355322D02*
Y370822D01*
X137500Y149000D02*
X137750Y148750D01*
X156000Y220750D02*
X191000Y185750D01*
X261500D01*
X145250Y220750D02*
X156000D01*
X56000Y232750D02*
X59250Y236000D01*
X56000Y217500D02*
Y232750D01*
X133250Y255250D02*
X133500Y255500D01*
X124000Y255250D02*
X133250D01*
X182500Y355000D02*
X182822Y355322D01*
X182500Y341000D02*
Y355000D01*
X165000Y324000D02*
X165500D01*
X59250Y236000D02*
X68250D01*
X54250Y256750D02*
X59500Y251500D01*
X68000D01*
X68125Y236125D02*
Y251375D01*
Y236125D02*
X68250Y236000D01*
X68000Y251500D02*
X68125Y251375D01*
X172000Y317500D02*
X187620D01*
X202500Y332380D02*
Y342500D01*
X200000Y345000D02*
X202500Y342500D01*
X192500Y345000D02*
X200000D01*
X290000Y332500D02*
X296500D01*
X287500Y330000D02*
X290000Y332500D01*
X287500Y322500D02*
Y330000D01*
X282500Y317500D02*
X287500Y322500D01*
X272380Y317500D02*
X282500D01*
D15*
X201750Y69750D02*
X219000D01*
X257500Y64500D02*
Y85400D01*
X249750Y56750D02*
X257500Y64500D01*
Y85400D02*
X280000Y107900D01*
X238000Y56750D02*
X249750D01*
D19*
X105040Y151830D02*
X107338Y149532D01*
Y144412D02*
Y149532D01*
Y144412D02*
X108000Y143750D01*
X105040Y151830D02*
Y159960D01*
X353125Y287125D02*
Y294689D01*
X355250Y296814D02*
Y297750D01*
X353125Y294689D02*
X355250Y296814D01*
X353125Y287125D02*
X356480Y283770D01*
X59750Y176000D02*
X67500D01*
X56125Y172375D02*
X59750Y176000D01*
X99770Y159770D02*
X100000Y160000D01*
X99000Y151936D02*
X99770Y152706D01*
Y159770D01*
X99000Y151000D02*
Y151936D01*
X277838Y192412D02*
X278500Y191750D01*
X261500Y200250D02*
X267500D01*
X275338Y192412D02*
X277838D01*
X267500Y200250D02*
X275338Y192412D01*
X243995Y192500D02*
X265500D01*
X273000Y185000D02*
X323186D01*
X265500Y192500D02*
X273000Y185000D01*
X232500Y229250D02*
X261500Y200250D01*
X194750Y178750D02*
X325204D01*
X372000Y225546D01*
X393000Y173500D02*
X397750Y168750D01*
X393000Y188000D02*
X397408Y192408D01*
X393000Y173500D02*
Y188000D01*
X350250Y455250D02*
X366250Y439250D01*
X389500D02*
X400000Y428750D01*
X366250Y439250D02*
X389500D01*
X384250Y454500D02*
X432250D01*
X434500Y452250D01*
X382000D02*
X384250Y454500D01*
X367500D02*
X379750D01*
X382000Y452250D01*
X362750Y459250D02*
X367500Y454500D01*
X362750Y459250D02*
Y476000D01*
X357500Y481250D02*
X362750Y476000D01*
X152750Y481250D02*
X357500D01*
X149150Y477650D02*
X152750Y481250D01*
X149150Y461250D02*
Y477650D01*
X432250Y452250D02*
X434500D01*
X432250Y452250D02*
X432250Y452250D01*
X432250Y416250D02*
Y452250D01*
X299750Y221500D02*
X309250D01*
X290250D02*
X299750D01*
X300250Y222000D01*
Y234250D01*
X323186Y185000D02*
X362750Y224564D01*
X245750Y194255D02*
Y202750D01*
X243995Y192500D02*
X245750Y194255D01*
X236230Y212270D02*
X245750Y202750D01*
X242495Y191000D02*
X243995Y192500D01*
X103912Y227162D02*
Y262912D01*
X356960Y307290D02*
X385500Y278750D01*
Y273000D02*
Y278750D01*
Y273000D02*
X395770Y262730D01*
X405395D01*
X395270Y292730D02*
X405395D01*
X389000Y299000D02*
Y332500D01*
Y299000D02*
X395270Y292730D01*
X394000Y287500D02*
X405625D01*
X383250Y298250D02*
Y341250D01*
Y298250D02*
X394000Y287500D01*
X377250Y298000D02*
Y329250D01*
X392520Y282730D02*
X405395D01*
X377250Y298000D02*
X392520Y282730D01*
X136450Y404300D02*
X151750Y389000D01*
X247750D01*
X252000Y384750D01*
X137000Y211500D02*
X155250D01*
X169750Y197000D01*
X117750Y167270D02*
X117980Y167500D01*
X117750Y158250D02*
X118000Y158000D01*
X117980Y167500D02*
X119500D01*
X117750Y158250D02*
Y167270D01*
X252500Y227000D02*
Y247620D01*
Y227000D02*
X253250Y226250D01*
X97747Y460647D02*
X98350Y461250D01*
X97747Y446997D02*
Y460647D01*
X92960Y442210D02*
X97747Y446997D01*
X92960Y442210D02*
X92960D01*
X96500Y227250D02*
Y274000D01*
X85250Y285250D02*
X170000D01*
X85250D02*
X96500Y274000D01*
X87270Y167270D02*
X87500Y167500D01*
X82500Y139500D02*
Y164889D01*
X84881Y167270D02*
X87270D01*
X82500Y164889D02*
X84881Y167270D01*
X56125Y139625D02*
X64750Y131000D01*
X270250D01*
X89500Y233250D02*
Y268000D01*
X77750Y279750D02*
X89500Y268000D01*
X77750Y279750D02*
Y303250D01*
X98500Y324000D01*
X84750Y285750D02*
X85250Y285250D01*
X141971Y324000D02*
X148500Y330529D01*
Y365500D01*
X330512Y271000D02*
X332000Y269512D01*
X308000Y271000D02*
X330512D01*
X301500Y277500D02*
X308000Y271000D01*
X332000Y252248D02*
Y269512D01*
X366000Y276500D02*
X390000Y252500D01*
X305500Y282500D02*
X311500Y276500D01*
X366000D01*
X367230Y283770D02*
X393500Y257500D01*
X356480Y283770D02*
X367230D01*
X377936Y242500D02*
X405625D01*
X372936Y247500D02*
X377936Y242500D01*
X372000Y247500D02*
X372936D01*
X366936Y237500D02*
X405625D01*
X362250Y241250D02*
X363186D01*
X366936Y237500D01*
X393500Y257500D02*
X405625D01*
X272380Y287500D02*
X307000D01*
X326790Y307290D01*
X272380Y292500D02*
X300314D01*
X302314Y294500D01*
X303250D01*
X298500Y402750D02*
X340000D01*
X267500Y433750D02*
Y444000D01*
Y433750D02*
X298500Y402750D01*
X326790Y307290D02*
X356960D01*
X158500Y396000D02*
X258000D01*
X149150Y405350D02*
X158500Y396000D01*
X252000Y384750D02*
X279500D01*
X244750Y364750D02*
X296000D01*
X236500Y356500D02*
X244750Y364750D01*
X279500Y384750D02*
X281750Y387000D01*
X300750Y301750D02*
X313500D01*
X325750Y314000D02*
X355000D01*
X313500Y301750D02*
X325750Y314000D01*
X296500Y297500D02*
X300750Y301750D01*
X311064Y309000D02*
X312000D01*
X298985Y306849D02*
X308913D01*
X293596Y301460D02*
X298985Y306849D01*
X308913D02*
X311064Y309000D01*
X312000D02*
X322540Y319540D01*
X363524D01*
X367064Y316000D02*
X368000D01*
X363524Y319540D02*
X367064Y316000D01*
X330512Y250760D02*
X332000Y252248D01*
X324260Y250760D02*
X330512D01*
X282201Y267500D02*
X283964Y265737D01*
Y247214D02*
Y265737D01*
X277500Y240750D02*
X283964Y247214D01*
X309250Y228000D02*
X311770D01*
X312500Y228730D01*
Y234500D02*
X314678Y236678D01*
Y240270D01*
X316908Y242500D01*
X317500D01*
X312500Y228730D02*
Y234500D01*
X369750Y170750D02*
Y202500D01*
X354000Y155000D02*
X369750Y170750D01*
Y202500D02*
X379750Y212500D01*
X354000Y135000D02*
X374750Y155750D01*
Y198750D02*
X383500Y207500D01*
X374750Y155750D02*
Y198750D01*
X380500Y195750D02*
X386912Y202162D01*
X380500Y141500D02*
Y195750D01*
X354000Y115000D02*
X380500Y141500D01*
X354000Y95000D02*
X387000Y128000D01*
Y191750D02*
X392520Y197270D01*
X387000Y128000D02*
Y191750D01*
X354000Y73000D02*
Y75000D01*
X357730Y78730D02*
X359730D01*
X397750Y116750D02*
Y168750D01*
X354000Y75000D02*
X357730Y78730D01*
X359730D02*
X397750Y116750D01*
X354000Y55000D02*
X405625Y106625D01*
Y187500D01*
X353500Y194500D02*
X372250Y213250D01*
X353500Y172500D02*
Y194500D01*
X376415Y217500D02*
X405625D01*
X372250Y213335D02*
X376415Y217500D01*
X372250Y213250D02*
Y213335D01*
X354000Y153000D02*
Y155000D01*
X379750Y212500D02*
X405625D01*
X354000Y133000D02*
Y135000D01*
X383500Y207500D02*
X405625D01*
X354000Y113000D02*
Y115000D01*
Y93000D02*
Y95000D01*
X405395Y197270D02*
X405625Y197500D01*
X392520Y197270D02*
X405395D01*
X406250Y38750D02*
X431000Y63500D01*
X297750Y38750D02*
X406250D01*
X431000Y63500D02*
Y96250D01*
X429995Y14997D02*
Y17255D01*
X305250Y31750D02*
X415500D01*
X429995Y17255D01*
X284674Y26076D02*
X373915D01*
X384995Y14997D01*
X275250Y35500D02*
X284674Y26076D01*
X167250Y35500D02*
X249000D01*
X275250D01*
X362750Y224564D02*
Y225500D01*
X317500Y244500D02*
X320730Y247730D01*
X321230D01*
X324260Y250760D01*
X272380Y277500D02*
X301500D01*
X272380Y267500D02*
X282201D01*
X272380Y257190D02*
Y262500D01*
X276000Y253000D02*
Y253570D01*
X272380Y257190D02*
X276000Y253570D01*
X134425Y169074D02*
X137500Y166000D01*
X131425Y169074D02*
X134425D01*
X123000Y177500D02*
X131425Y169074D01*
X117500Y177500D02*
X123000D01*
X137750Y181250D02*
X155750D01*
X209000Y161500D02*
X304500D01*
X205500Y165000D02*
X209000Y161500D01*
X172000Y165000D02*
X205500D01*
X155750Y181250D02*
X172000Y165000D01*
X117500Y182500D02*
X136500D01*
X137750Y181250D01*
X114000Y198250D02*
X138062D01*
X110230Y194480D02*
X114000Y198250D01*
X110230Y190230D02*
Y194480D01*
X110000Y190000D02*
X110230Y190230D01*
X137500Y166000D02*
X152750D01*
X137500Y166000D02*
X137500Y166000D01*
X208250Y151250D02*
X291750D01*
X201556Y157944D02*
X208250Y151250D01*
X160806Y157944D02*
X201556D01*
X152750Y166000D02*
X160806Y157944D01*
X92500Y199000D02*
Y210250D01*
Y199000D02*
X95000Y196500D01*
X107000Y205250D02*
Y210250D01*
X95000Y190000D02*
Y196500D01*
X405395Y262730D02*
X405625Y262500D01*
X281750Y387000D02*
X286500D01*
X112250Y235500D02*
X115500Y238750D01*
X175750D01*
X194475Y220025D01*
Y216525D02*
Y220025D01*
Y216525D02*
X195000Y216000D01*
X103250Y226500D02*
X103912Y227162D01*
X67500Y159000D02*
X76512D01*
X78000Y160488D02*
Y169000D01*
X76512Y159000D02*
X78000Y160488D01*
Y169000D02*
X81500Y172500D01*
X19000Y262000D02*
X25500Y268500D01*
X68000D01*
X9000Y262000D02*
X19000D01*
X350000Y377000D02*
Y387250D01*
X349750Y387500D02*
X350000Y387250D01*
X96250Y334000D02*
X139000D01*
X81770Y182270D02*
X87270D01*
X100000Y172500D02*
X102500Y175000D01*
X105000Y172500D01*
X81500D02*
X87500D01*
X69000Y177500D02*
X87500D01*
X67125Y175625D02*
X69000Y177500D01*
X100000Y190000D02*
Y198250D01*
X107000Y205250D01*
X87270Y182270D02*
X87500Y182500D01*
X105000Y160000D02*
X105040Y159960D01*
X93750Y224500D02*
X96500Y227250D01*
X84250Y224500D02*
X93750D01*
X79250Y219500D02*
X84250Y224500D01*
X79250Y184750D02*
Y219500D01*
Y184750D02*
X81750Y182250D01*
X81770Y182270D01*
X405395Y282730D02*
X405625Y282500D01*
X367000Y260000D02*
X374416D01*
X357500D02*
X374416D01*
X356500Y261000D02*
X357500Y260000D01*
X374416D02*
X386916Y247500D01*
X237500Y70250D02*
X238000Y69750D01*
X237500Y70250D02*
Y85000D01*
X292564Y272500D02*
X295064Y270000D01*
X296000D01*
X272380Y272500D02*
X292564D01*
X272380Y282500D02*
X305500D01*
X386916Y247500D02*
X405625D01*
X68000Y268500D02*
X68020D01*
X125220Y475220D02*
X128750Y478750D01*
X123750Y461250D02*
X125220Y462720D01*
Y475220D01*
X71250Y309000D02*
X96250Y334000D01*
X71250Y271730D02*
Y309000D01*
X98500Y324000D02*
X141971D01*
X172020Y287270D02*
X187390D01*
X170000Y285250D02*
X172020Y287270D01*
X187390D02*
X187620Y287500D01*
X149150Y405350D02*
Y422250D01*
X136450Y404300D02*
Y422250D01*
X169750Y220500D02*
X199250Y191000D01*
X242495D01*
X169750Y185250D02*
Y197000D01*
X122500Y228250D02*
X122750Y228500D01*
X169500D01*
X169750Y228750D01*
Y220500D02*
Y228750D01*
Y185250D02*
X182750Y172250D01*
X232500Y216000D02*
X233000D01*
X232000D02*
X232500D01*
X233000D02*
X236230Y212770D01*
Y212270D02*
Y212770D01*
X56125Y139625D02*
Y172375D01*
X68020Y268500D02*
X71250Y271730D01*
X349428Y412178D02*
Y418678D01*
X340000Y402750D02*
X349428Y412178D01*
Y418678D02*
X349750Y419000D01*
X378500D01*
X400000Y428000D02*
Y428750D01*
X405533Y297592D02*
X405625Y297500D01*
X397408Y297592D02*
X405533D01*
X394750Y300250D02*
Y326250D01*
Y300250D02*
X397408Y297592D01*
X394750Y326250D02*
X399750Y331250D01*
X397408Y192408D02*
X405533D01*
X405625Y192500D01*
X386912Y202162D02*
X389130D01*
X389468Y202500D02*
X405625D01*
X389130Y202162D02*
X389468Y202500D01*
X272380Y312500D02*
X285500D01*
X289500Y316500D01*
X297500D01*
X272380Y297500D02*
X296500D01*
X182750Y172250D02*
X216000D01*
X225250Y223250D02*
X228770Y219730D01*
X222500Y232750D02*
X225250Y230000D01*
Y223250D02*
Y230000D01*
X222500Y232750D02*
Y247620D01*
X217270Y225770D02*
Y247390D01*
X217500Y247620D01*
X216750Y225250D02*
X217270Y225770D01*
X137750Y198250D02*
X138375Y198875D01*
X150375D02*
X151000Y199500D01*
X138375Y198875D02*
X150375D01*
X157000Y45750D02*
X167250Y35500D01*
X85250Y45750D02*
X157000D01*
X143750Y295250D02*
X160000D01*
X143500Y295000D02*
X143750Y295250D01*
X143750Y309750D02*
X160000D01*
X143500Y310000D02*
X143750Y309750D01*
X98000Y355750D02*
X98662Y356412D01*
X101109D02*
X101196Y356500D01*
X98662Y356412D02*
X101109D01*
X101196Y356500D02*
X139250D01*
X236000Y356500D02*
X236500D01*
X227250Y363750D02*
X228250D01*
X235500Y356500D01*
X236000D01*
X253500D02*
X254000D01*
X246250D02*
X253500D01*
X245750Y356000D02*
X246250Y356500D01*
X283415Y302500D02*
X284455Y301460D01*
X293596D01*
X232500Y229250D02*
Y247620D01*
X390000Y252500D02*
X405625D01*
X272380Y302500D02*
X283415D01*
X238000Y69750D02*
X249000D01*
X283750Y351250D02*
X307750D01*
X278500Y356500D02*
X283750Y351250D01*
X254000Y356500D02*
X278500D01*
X149150Y461250D02*
X149400Y461500D01*
X159250D01*
X121220Y461250D02*
X122050Y462080D01*
Y470700D01*
X294500Y430250D02*
X295000Y429750D01*
X306250D01*
X389850Y420900D02*
Y425150D01*
X358500Y432000D02*
X383000D01*
X389850Y420900D02*
X390000Y420750D01*
X383000Y432000D02*
X389850Y425150D01*
X354000Y436500D02*
X358500Y432000D01*
X324250Y436500D02*
X354000D01*
X324000Y455250D02*
X350250D01*
X405395Y292730D02*
X405625Y292500D01*
X374000Y350500D02*
X383250Y341250D01*
X448000Y96250D02*
X468750D01*
X470000Y97500D01*
X354000Y53000D02*
Y55000D01*
X324000Y436250D02*
X324250Y436500D01*
X374000Y332500D02*
X377250Y329250D01*
X405625Y287500D02*
X405625Y287500D01*
X374000Y350500D02*
Y352500D01*
X432250Y416250D02*
X449750D01*
X378500Y419000D02*
X379000Y419500D01*
X324000Y411000D02*
X324500Y410500D01*
X324000Y411000D02*
Y436250D01*
X324750Y456000D02*
Y471500D01*
X325500Y472250D01*
X324000Y455250D02*
X324750Y456000D01*
X294750Y461750D02*
X310750Y445750D01*
X294500Y461750D02*
X294750D01*
X310750Y445750D02*
X344000D01*
X267500Y462000D02*
X294250D01*
X294500Y461750D01*
X265500Y462000D02*
X267500D01*
X237500Y449250D02*
X252750D01*
X265500Y462000D01*
X111050Y376986D02*
Y422250D01*
X110000Y375000D02*
Y375936D01*
X111050Y376986D01*
X98350Y422250D02*
X98425Y422175D01*
Y401325D02*
X98500Y401250D01*
X98425Y401325D02*
Y422175D01*
X195000Y216000D02*
X207500D01*
Y230250D02*
X212500Y235250D01*
X207500Y216000D02*
Y230250D01*
X212500Y235250D02*
Y247620D01*
X151000Y273000D02*
X163000D01*
X167500Y277500D01*
X187620D01*
X164370Y247630D02*
X164380Y247620D01*
X202500D01*
X171250Y262250D02*
X171500Y262500D01*
X187620D01*
X257500Y345750D02*
X257500Y345750D01*
X257500Y332380D02*
Y345750D01*
X286250Y307500D02*
X286750Y307000D01*
X272380Y307500D02*
X286250D01*
X228770Y219230D02*
X232000Y216000D01*
X228770Y219230D02*
Y219730D01*
X151000Y273000D02*
X151250Y272750D01*
Y255750D02*
X151500Y255500D01*
X151250Y255750D02*
Y272750D01*
X187620Y277500D02*
X187620Y277500D01*
X176250Y302500D02*
X187620D01*
X170810Y297060D02*
X176250Y302500D01*
X161810Y297060D02*
X170810D01*
X160000Y295250D02*
X161810Y297060D01*
X172612Y309750D02*
X174862Y307500D01*
X160000Y309750D02*
X172612D01*
X174862Y307500D02*
X187620D01*
X243000Y346000D02*
X253500Y356500D01*
X235000Y346000D02*
X243000D01*
X232500Y343500D02*
X235000Y346000D01*
X232500Y332380D02*
Y343500D01*
X227500Y348500D02*
X235500Y356500D01*
X227500Y332380D02*
Y348500D01*
X219000Y350000D02*
Y354500D01*
X217000Y356500D02*
X219000Y354500D01*
X222500Y332380D02*
Y346500D01*
X219000Y350000D02*
X222500Y346500D01*
X207500Y332380D02*
X207730Y332610D01*
Y343190D01*
X208000Y343460D01*
Y346000D01*
X199500Y354500D02*
Y355000D01*
Y354500D02*
X208000Y346000D01*
D20*
X310072Y194750D02*
D03*
X292927D02*
D03*
X347072Y240000D02*
D03*
X329927D02*
D03*
X346823Y222750D02*
D03*
X329678D02*
D03*
D21*
X141500Y97000D02*
D03*
X141500Y84500D02*
D03*
D22*
X107500Y115500D02*
D03*
Y66000D02*
D03*
D23*
X107000Y210250D02*
D03*
X92500D02*
D03*
D24*
X220500Y85000D02*
D03*
X237500D02*
D03*
X316500Y244000D02*
D03*
X299500D02*
D03*
X253250Y226250D02*
D03*
X270250D02*
D03*
X325500Y472250D02*
D03*
X342500D02*
D03*
X353500Y286750D02*
D03*
X336500D02*
D03*
X356500Y261000D02*
D03*
X339500D02*
D03*
X182500Y355000D02*
D03*
X199500D02*
D03*
X134000Y273000D02*
D03*
X151000D02*
D03*
X126500Y310000D02*
D03*
X143500D02*
D03*
X126500Y295000D02*
D03*
X143500D02*
D03*
X448000Y96250D02*
D03*
X431000D02*
D03*
D25*
X219000Y56750D02*
D03*
Y63250D02*
D03*
Y69750D02*
D03*
X238000D02*
D03*
Y63250D02*
D03*
Y56750D02*
D03*
X309250Y215000D02*
D03*
Y221500D02*
D03*
Y228000D02*
D03*
X290250D02*
D03*
Y221500D02*
D03*
Y215000D02*
D03*
D26*
X87500Y177500D02*
D03*
Y172500D02*
D03*
X87500Y182500D02*
D03*
Y167500D02*
D03*
X117500D02*
D03*
Y182500D02*
D03*
X117500Y172500D02*
D03*
Y177500D02*
D03*
D27*
X95000Y190000D02*
D03*
Y160000D02*
D03*
X100000Y190000D02*
D03*
Y160000D02*
D03*
X105000Y190000D02*
D03*
Y160000D02*
D03*
X110000Y190000D02*
D03*
Y160000D02*
D03*
D28*
X102500Y175000D02*
D03*
D29*
X379000Y419500D02*
D03*
Y388000D02*
D03*
X349750Y387500D02*
D03*
Y419000D02*
D03*
X294500Y461750D02*
D03*
Y430250D02*
D03*
D30*
X356000Y352500D02*
D03*
X374000D02*
D03*
X212500Y414000D02*
D03*
X230500D02*
D03*
X356000Y332500D02*
D03*
X374000D02*
D03*
X335500Y172500D02*
D03*
X353500D02*
D03*
X336000Y53000D02*
D03*
X354000Y53000D02*
D03*
X336000Y73000D02*
D03*
X354000D02*
D03*
X336000Y93000D02*
D03*
X354000Y93000D02*
D03*
X336000Y113000D02*
D03*
X354000Y113000D02*
D03*
X336000Y153000D02*
D03*
X354000Y153000D02*
D03*
X176000Y60000D02*
D03*
X194000D02*
D03*
X151500Y255500D02*
D03*
X133500Y255500D02*
D03*
X336000Y133000D02*
D03*
X354000D02*
D03*
D31*
X149150Y422250D02*
D03*
X136450D02*
D03*
X123750D02*
D03*
X111050D02*
D03*
X98350D02*
D03*
X149150Y461250D02*
D03*
X136450D02*
D03*
X123750D02*
D03*
X111050D02*
D03*
X98350D02*
D03*
D32*
X232500Y199000D02*
D03*
Y216000D02*
D03*
X207500Y199000D02*
D03*
Y216000D02*
D03*
X324500Y393500D02*
D03*
Y410500D02*
D03*
X254000Y373500D02*
D03*
Y356500D02*
D03*
X217000Y373500D02*
D03*
Y356500D02*
D03*
X236000Y373500D02*
D03*
Y356500D02*
D03*
X297500Y316500D02*
D03*
Y333500D02*
D03*
X165000Y324000D02*
D03*
Y341000D02*
D03*
X449750Y399250D02*
D03*
X449750Y416250D02*
D03*
X432250D02*
D03*
Y399250D02*
D03*
X67500Y159000D02*
D03*
Y176000D02*
D03*
X137750Y198250D02*
D03*
Y181250D02*
D03*
X137500Y166000D02*
D03*
Y149000D02*
D03*
X68000Y251500D02*
D03*
Y268500D02*
D03*
X68250Y219000D02*
D03*
Y236000D02*
D03*
D33*
X237500Y449250D02*
D03*
X209500D02*
D03*
D34*
X267500Y462000D02*
D03*
Y444000D02*
D03*
D35*
X405625Y192500D02*
D03*
Y197500D02*
D03*
Y202500D02*
D03*
Y207500D02*
D03*
Y212500D02*
D03*
Y217500D02*
D03*
Y222500D02*
D03*
Y227500D02*
D03*
Y232500D02*
D03*
Y237500D02*
D03*
Y242500D02*
D03*
Y247500D02*
D03*
Y252500D02*
D03*
Y257500D02*
D03*
Y262500D02*
D03*
Y267500D02*
D03*
Y272500D02*
D03*
Y277500D02*
D03*
Y282500D02*
D03*
Y287500D02*
D03*
Y292500D02*
D03*
Y297500D02*
D03*
Y187500D02*
D03*
Y302500D02*
D03*
D36*
X430500Y165000D02*
D03*
X431000Y325000D02*
D03*
D37*
X324000Y455250D02*
D03*
Y436250D02*
D03*
X344000Y445750D02*
D03*
D38*
X175500Y85000D02*
D03*
X194500D02*
D03*
X185000Y105000D02*
D03*
D39*
X187620Y317500D02*
D03*
Y312500D02*
D03*
Y307500D02*
D03*
Y302500D02*
D03*
Y297500D02*
D03*
Y292500D02*
D03*
Y287500D02*
D03*
Y282500D02*
D03*
Y277500D02*
D03*
Y272500D02*
D03*
Y267500D02*
D03*
Y262500D02*
D03*
X272380D02*
D03*
Y267500D02*
D03*
Y272500D02*
D03*
Y277500D02*
D03*
Y282500D02*
D03*
Y287500D02*
D03*
Y292500D02*
D03*
Y297500D02*
D03*
Y302500D02*
D03*
Y307500D02*
D03*
Y312500D02*
D03*
Y317500D02*
D03*
D40*
X202500Y247620D02*
D03*
X207500D02*
D03*
X212500D02*
D03*
X217500D02*
D03*
X222500D02*
D03*
X227500D02*
D03*
X232500D02*
D03*
X237500D02*
D03*
X242500D02*
D03*
X247500D02*
D03*
X252500D02*
D03*
X257500D02*
D03*
Y332380D02*
D03*
X252500D02*
D03*
X247500D02*
D03*
X242500D02*
D03*
X237500D02*
D03*
X232500D02*
D03*
X227500D02*
D03*
X222500D02*
D03*
X217500D02*
D03*
X212500D02*
D03*
X207500D02*
D03*
X202500D02*
D03*
D41*
X160000Y309750D02*
D03*
Y295250D02*
D03*
D42*
X434500Y469250D02*
D03*
Y452250D02*
D03*
X382000Y469250D02*
D03*
Y452250D02*
D03*
D43*
X485000Y97500D02*
D03*
X470000D02*
D03*
D71*
X429995Y14997D02*
D03*
X384995D02*
D03*
X339995D02*
D03*
X204995D02*
D03*
X159996D02*
D03*
X114996D02*
D03*
X74996D02*
D03*
X294995D02*
D03*
X249995D02*
D03*
D72*
X280000Y57100D02*
D03*
Y82500D02*
D03*
Y107900D02*
D03*
D73*
X108000Y143750D02*
D03*
X355250Y297750D02*
D03*
X335250Y298750D02*
D03*
X99000Y151000D02*
D03*
X151250Y119750D02*
D03*
X82250Y263250D02*
D03*
X265000Y213750D02*
D03*
X278500Y191750D02*
D03*
X372000Y225750D02*
D03*
X137000Y211500D02*
D03*
X67250Y93250D02*
D03*
X143500Y379250D02*
D03*
X415500Y429500D02*
D03*
X468500Y368500D02*
D03*
X421500Y367750D02*
D03*
X455500Y58500D02*
D03*
X399250Y66750D02*
D03*
X490000Y123500D02*
D03*
X432000Y124000D02*
D03*
X234250Y112250D02*
D03*
X29000Y70500D02*
D03*
X29500Y116500D02*
D03*
Y163250D02*
D03*
X46500Y326250D02*
D03*
X46750Y370250D02*
D03*
Y417000D02*
D03*
X180000Y443500D02*
D03*
X118000Y158000D02*
D03*
X126750Y164250D02*
D03*
X207250Y60750D02*
D03*
X408500Y471000D02*
D03*
X421750Y267250D02*
D03*
Y222500D02*
D03*
X115250Y263250D02*
D03*
X300250Y234250D02*
D03*
X92960Y442210D02*
D03*
X82500Y139500D02*
D03*
X84750Y285750D02*
D03*
X148500Y365500D02*
D03*
X337750Y210500D02*
D03*
X372000Y247500D02*
D03*
X362250Y241250D02*
D03*
X303250Y294500D02*
D03*
X334000Y352500D02*
D03*
X322250Y334500D02*
D03*
X312000Y309000D02*
D03*
X267500Y246250D02*
D03*
X311250Y255000D02*
D03*
X322750Y206500D02*
D03*
X313250Y57250D02*
D03*
X270250Y131000D02*
D03*
X397750Y168750D02*
D03*
X297750Y38750D02*
D03*
X305250Y31750D02*
D03*
X362750Y225500D02*
D03*
X276000Y253000D02*
D03*
X112250Y235500D02*
D03*
X80000Y230000D02*
D03*
X9000Y262000D02*
D03*
X28000Y258000D02*
D03*
X9000Y251000D02*
D03*
X12000Y226000D02*
D03*
X9000Y271000D02*
D03*
X195250Y231500D02*
D03*
X360000Y249000D02*
D03*
X227250Y171750D02*
D03*
X86000Y195500D02*
D03*
X118250Y143750D02*
D03*
X129000Y221000D02*
D03*
X485000Y86000D02*
D03*
X111000Y479000D02*
D03*
X243000Y414000D02*
D03*
X355000Y466000D02*
D03*
X383000Y377000D02*
D03*
X324000Y379000D02*
D03*
X350000Y377000D02*
D03*
X466000Y401000D02*
D03*
X323000Y154000D02*
D03*
X323250Y113500D02*
D03*
X324000Y75000D02*
D03*
X162000Y84500D02*
D03*
X163000Y60000D02*
D03*
X71000Y207000D02*
D03*
X123500Y278250D02*
D03*
X118000Y302000D02*
D03*
X200500Y371500D02*
D03*
X139000Y334000D02*
D03*
X155000Y342000D02*
D03*
X309500Y320500D02*
D03*
X303000Y359000D02*
D03*
X267500Y345500D02*
D03*
X273000Y393500D02*
D03*
X101000Y388000D02*
D03*
X171000Y254000D02*
D03*
X258000Y396000D02*
D03*
X368000Y316000D02*
D03*
X355000Y314000D02*
D03*
X367000Y260000D02*
D03*
X326000Y261000D02*
D03*
X296000Y270000D02*
D03*
X220000Y208000D02*
D03*
X231000Y275000D02*
D03*
Y306000D02*
D03*
X252000Y292000D02*
D03*
X207000D02*
D03*
X252000Y267000D02*
D03*
X207000Y268000D02*
D03*
X252000Y313000D02*
D03*
X207000Y312000D02*
D03*
X241000Y233000D02*
D03*
X181750Y221250D02*
D03*
X78000Y169000D02*
D03*
X67750Y147250D02*
D03*
X151250Y148500D02*
D03*
X261500Y185750D02*
D03*
X169750Y228750D02*
D03*
X145250Y220750D02*
D03*
X104000Y263000D02*
D03*
X89500Y233250D02*
D03*
X56000Y217500D02*
D03*
X400000Y428000D02*
D03*
X399750Y331250D02*
D03*
X122500Y228250D02*
D03*
X194750Y178750D02*
D03*
X216000Y172250D02*
D03*
X304500Y161500D02*
D03*
X291750Y151250D02*
D03*
X216750Y225250D02*
D03*
X151000Y199500D02*
D03*
X249000Y35500D02*
D03*
X124000Y255250D02*
D03*
X103250Y226500D02*
D03*
X139250Y356500D02*
D03*
X227250Y363750D02*
D03*
X98000Y355750D02*
D03*
X245750Y356000D02*
D03*
X277500Y240750D02*
D03*
X85250Y45750D02*
D03*
X249000Y69750D02*
D03*
X307750Y351250D02*
D03*
X296000Y364750D02*
D03*
X159250Y461500D02*
D03*
X306250Y429750D02*
D03*
X386250Y201500D02*
D03*
X389000Y332500D02*
D03*
X390000Y420750D02*
D03*
X110000Y375000D02*
D03*
X98500Y401250D02*
D03*
X195000Y216000D02*
D03*
X54250Y256750D02*
D03*
X128750Y478750D02*
D03*
X164370Y247630D02*
D03*
X171250Y262250D02*
D03*
X257500Y345750D02*
D03*
X286500Y387000D02*
D03*
X286750Y307000D02*
D03*
M02*
