G04*
G04 #@! TF.GenerationSoftware,Altium Limited,Altium Designer,22.10.1 (41)*
G04*
G04 Layer_Color=8388736*
%FSLAX44Y44*%
%MOMM*%
G71*
G04*
G04 #@! TF.SameCoordinates,B11F2CDB-B4DC-4695-A2B3-7529A6E467DA*
G04*
G04*
G04 #@! TF.FilePolarity,Negative*
G04*
G01*
G75*
%ADD44R,0.9628X1.1660*%
%ADD45R,2.6500X0.8500*%
%ADD46R,4.1500X2.1500*%
%ADD47R,0.9000X1.5500*%
G04:AMPARAMS|DCode=48|XSize=1.15mm|YSize=1.05mm|CornerRadius=0.1875mm|HoleSize=0mm|Usage=FLASHONLY|Rotation=90.000|XOffset=0mm|YOffset=0mm|HoleType=Round|Shape=RoundedRectangle|*
%AMROUNDEDRECTD48*
21,1,1.1500,0.6750,0,0,90.0*
21,1,0.7750,1.0500,0,0,90.0*
1,1,0.3750,0.3375,0.3875*
1,1,0.3750,0.3375,-0.3875*
1,1,0.3750,-0.3375,-0.3875*
1,1,0.3750,-0.3375,0.3875*
%
%ADD48ROUNDEDRECTD48*%
%ADD49R,1.2000X0.5500*%
%ADD50R,0.8500X0.4500*%
%ADD51R,0.4500X0.8500*%
G04:AMPARAMS|DCode=52|XSize=1.15mm|YSize=1.15mm|CornerRadius=0.325mm|HoleSize=0mm|Usage=FLASHONLY|Rotation=0.000|XOffset=0mm|YOffset=0mm|HoleType=Round|Shape=RoundedRectangle|*
%AMROUNDEDRECTD52*
21,1,1.1500,0.5000,0,0,0.0*
21,1,0.5000,1.1500,0,0,0.0*
1,1,0.6500,0.2500,-0.2500*
1,1,0.6500,-0.2500,-0.2500*
1,1,0.6500,-0.2500,0.2500*
1,1,0.6500,0.2500,0.2500*
%
%ADD52ROUNDEDRECTD52*%
%ADD53R,1.1000X1.0500*%
G04:AMPARAMS|DCode=54|XSize=1.55mm|YSize=1.15mm|CornerRadius=0.2mm|HoleSize=0mm|Usage=FLASHONLY|Rotation=90.000|XOffset=0mm|YOffset=0mm|HoleType=Round|Shape=RoundedRectangle|*
%AMROUNDEDRECTD54*
21,1,1.5500,0.7500,0,0,90.0*
21,1,1.1500,1.1500,0,0,90.0*
1,1,0.4000,0.3750,0.5750*
1,1,0.4000,0.3750,-0.5750*
1,1,0.4000,-0.3750,-0.5750*
1,1,0.4000,-0.3750,0.5750*
%
%ADD54ROUNDEDRECTD54*%
G04:AMPARAMS|DCode=55|XSize=0.91mm|YSize=2.55mm|CornerRadius=0.189mm|HoleSize=0mm|Usage=FLASHONLY|Rotation=180.000|XOffset=0mm|YOffset=0mm|HoleType=Round|Shape=RoundedRectangle|*
%AMROUNDEDRECTD55*
21,1,0.9100,2.1720,0,0,180.0*
21,1,0.5320,2.5500,0,0,180.0*
1,1,0.3780,-0.2660,1.0860*
1,1,0.3780,0.2660,1.0860*
1,1,0.3780,0.2660,-1.0860*
1,1,0.3780,-0.2660,-1.0860*
%
%ADD55ROUNDEDRECTD55*%
G04:AMPARAMS|DCode=56|XSize=1.15mm|YSize=1.05mm|CornerRadius=0.1875mm|HoleSize=0mm|Usage=FLASHONLY|Rotation=0.000|XOffset=0mm|YOffset=0mm|HoleType=Round|Shape=RoundedRectangle|*
%AMROUNDEDRECTD56*
21,1,1.1500,0.6750,0,0,0.0*
21,1,0.7750,1.0500,0,0,0.0*
1,1,0.3750,0.3875,-0.3375*
1,1,0.3750,-0.3875,-0.3375*
1,1,0.3750,-0.3875,0.3375*
1,1,0.3750,0.3875,0.3375*
%
%ADD56ROUNDEDRECTD56*%
%ADD57R,1.7500X4.3500*%
G04:AMPARAMS|DCode=58|XSize=1.55mm|YSize=1.15mm|CornerRadius=0.2mm|HoleSize=0mm|Usage=FLASHONLY|Rotation=0.000|XOffset=0mm|YOffset=0mm|HoleType=Round|Shape=RoundedRectangle|*
%AMROUNDEDRECTD58*
21,1,1.5500,0.7500,0,0,0.0*
21,1,1.1500,1.1500,0,0,0.0*
1,1,0.4000,0.5750,-0.3750*
1,1,0.4000,-0.5750,-0.3750*
1,1,0.4000,-0.5750,0.3750*
1,1,0.4000,0.5750,0.3750*
%
%ADD58ROUNDEDRECTD58*%
%ADD59R,1.4500X0.4500*%
%ADD60R,3.1500X3.1500*%
G04:AMPARAMS|DCode=61|XSize=0.95mm|YSize=1.05mm|CornerRadius=0.275mm|HoleSize=0mm|Usage=FLASHONLY|Rotation=90.000|XOffset=0mm|YOffset=0mm|HoleType=Round|Shape=RoundedRectangle|*
%AMROUNDEDRECTD61*
21,1,0.9500,0.5000,0,0,90.0*
21,1,0.4000,1.0500,0,0,90.0*
1,1,0.5500,0.2500,0.2000*
1,1,0.5500,0.2500,-0.2000*
1,1,0.5500,-0.2500,-0.2000*
1,1,0.5500,-0.2500,0.2000*
%
%ADD61ROUNDEDRECTD61*%
G04:AMPARAMS|DCode=62|XSize=0.95mm|YSize=1.05mm|CornerRadius=0.275mm|HoleSize=0mm|Usage=FLASHONLY|Rotation=180.000|XOffset=0mm|YOffset=0mm|HoleType=Round|Shape=RoundedRectangle|*
%AMROUNDEDRECTD62*
21,1,0.9500,0.5000,0,0,180.0*
21,1,0.4000,1.0500,0,0,180.0*
1,1,0.5500,-0.2000,0.2500*
1,1,0.5500,0.2000,0.2500*
1,1,0.5500,0.2000,-0.2500*
1,1,0.5500,-0.2000,-0.2500*
%
%ADD62ROUNDEDRECTD62*%
%ADD63R,1.6250X0.4500*%
%ADD64R,0.4500X1.6250*%
%ADD65R,1.5500X0.9000*%
%ADD66R,1.7000X1.1500*%
%ADD67R,0.9500X0.9500*%
%ADD68C,1.6500*%
%ADD69C,1.6000*%
%ADD70C,0.7500*%
G36*
X345168Y240000D02*
Y233904D01*
X335516D01*
X341612Y240000D01*
X335516Y246096D01*
X345168D01*
Y240000D01*
D02*
G37*
G36*
X341104D02*
X335008Y233904D01*
X332467Y233904D01*
Y246096D01*
X335008Y246096D01*
X341104Y240000D01*
D02*
G37*
G36*
X344917Y222750D02*
Y216654D01*
X335266D01*
X341362Y222750D01*
X335266Y228846D01*
X344917D01*
Y222750D01*
D02*
G37*
G36*
X340854D02*
X334757Y216654D01*
X332217Y216654D01*
Y228846D01*
X334757Y228846D01*
X340854Y222750D01*
D02*
G37*
G36*
X308167Y194750D02*
Y188654D01*
X298515D01*
X304611Y194750D01*
X298515Y200846D01*
X308167D01*
Y194750D01*
D02*
G37*
G36*
X304104D02*
X298008Y188654D01*
X295467Y188654D01*
Y200846D01*
X298008Y200846D01*
X304104Y194750D01*
D02*
G37*
D44*
X310072D02*
D03*
X292927D02*
D03*
X347072Y240000D02*
D03*
X329927D02*
D03*
X346823Y222750D02*
D03*
X329678D02*
D03*
D45*
X141500Y97000D02*
D03*
X141500Y84500D02*
D03*
D46*
X107500Y115500D02*
D03*
Y66000D02*
D03*
D47*
X107000Y210250D02*
D03*
X92500D02*
D03*
D48*
X220500Y85000D02*
D03*
X237500D02*
D03*
X316500Y244000D02*
D03*
X299500D02*
D03*
X253250Y226250D02*
D03*
X270250D02*
D03*
X325500Y472250D02*
D03*
X342500D02*
D03*
X353500Y286750D02*
D03*
X336500D02*
D03*
X356500Y261000D02*
D03*
X339500D02*
D03*
X182500Y355000D02*
D03*
X199500D02*
D03*
X134000Y273000D02*
D03*
X151000D02*
D03*
X126500Y310000D02*
D03*
X143500D02*
D03*
X126500Y295000D02*
D03*
X143500D02*
D03*
X448000Y96250D02*
D03*
X431000D02*
D03*
D49*
X219000Y56750D02*
D03*
Y63250D02*
D03*
Y69750D02*
D03*
X238000D02*
D03*
Y63250D02*
D03*
Y56750D02*
D03*
X309250Y215000D02*
D03*
Y221500D02*
D03*
Y228000D02*
D03*
X290250D02*
D03*
Y221500D02*
D03*
Y215000D02*
D03*
D50*
X87500Y177500D02*
D03*
Y172500D02*
D03*
X87500Y182500D02*
D03*
Y167500D02*
D03*
X117500D02*
D03*
Y182500D02*
D03*
X117500Y172500D02*
D03*
Y177500D02*
D03*
D51*
X95000Y190000D02*
D03*
Y160000D02*
D03*
X100000Y190000D02*
D03*
Y160000D02*
D03*
X105000Y190000D02*
D03*
Y160000D02*
D03*
X110000Y190000D02*
D03*
Y160000D02*
D03*
D52*
X102500Y175000D02*
D03*
D53*
X379000Y419500D02*
D03*
Y388000D02*
D03*
X349750Y387500D02*
D03*
Y419000D02*
D03*
X294500Y461750D02*
D03*
Y430250D02*
D03*
D54*
X356000Y352500D02*
D03*
X374000D02*
D03*
X212500Y414000D02*
D03*
X230500D02*
D03*
X356000Y332500D02*
D03*
X374000D02*
D03*
X335500Y172500D02*
D03*
X353500D02*
D03*
X336000Y53000D02*
D03*
X354000Y53000D02*
D03*
X336000Y73000D02*
D03*
X354000D02*
D03*
X336000Y93000D02*
D03*
X354000Y93000D02*
D03*
X336000Y113000D02*
D03*
X354000Y113000D02*
D03*
X336000Y153000D02*
D03*
X354000Y153000D02*
D03*
X176000Y60000D02*
D03*
X194000D02*
D03*
X151500Y255500D02*
D03*
X133500Y255500D02*
D03*
X336000Y133000D02*
D03*
X354000D02*
D03*
D55*
X149150Y422250D02*
D03*
X136450D02*
D03*
X123750D02*
D03*
X111050D02*
D03*
X98350D02*
D03*
X149150Y461250D02*
D03*
X136450D02*
D03*
X123750D02*
D03*
X111050D02*
D03*
X98350D02*
D03*
D56*
X232500Y199000D02*
D03*
Y216000D02*
D03*
X207500Y199000D02*
D03*
Y216000D02*
D03*
X324500Y393500D02*
D03*
Y410500D02*
D03*
X254000Y373500D02*
D03*
Y356500D02*
D03*
X217000Y373500D02*
D03*
Y356500D02*
D03*
X236000Y373500D02*
D03*
Y356500D02*
D03*
X297500Y316500D02*
D03*
Y333500D02*
D03*
X165000Y324000D02*
D03*
Y341000D02*
D03*
X449750Y399250D02*
D03*
X449750Y416250D02*
D03*
X432250D02*
D03*
Y399250D02*
D03*
X67500Y159000D02*
D03*
Y176000D02*
D03*
X137750Y198250D02*
D03*
Y181250D02*
D03*
X137500Y166000D02*
D03*
Y149000D02*
D03*
X68000Y251500D02*
D03*
Y268500D02*
D03*
X68250Y219000D02*
D03*
Y236000D02*
D03*
D57*
X237500Y449250D02*
D03*
X209500D02*
D03*
D58*
X267500Y462000D02*
D03*
Y444000D02*
D03*
D59*
X405625Y192500D02*
D03*
Y197500D02*
D03*
Y202500D02*
D03*
Y207500D02*
D03*
Y212500D02*
D03*
Y217500D02*
D03*
Y222500D02*
D03*
Y227500D02*
D03*
Y232500D02*
D03*
Y237500D02*
D03*
Y242500D02*
D03*
Y247500D02*
D03*
Y252500D02*
D03*
Y257500D02*
D03*
Y262500D02*
D03*
Y267500D02*
D03*
Y272500D02*
D03*
Y277500D02*
D03*
Y282500D02*
D03*
Y287500D02*
D03*
Y292500D02*
D03*
Y297500D02*
D03*
Y187500D02*
D03*
Y302500D02*
D03*
D60*
X430500Y165000D02*
D03*
X431000Y325000D02*
D03*
D61*
X324000Y455250D02*
D03*
Y436250D02*
D03*
X344000Y445750D02*
D03*
D62*
X175500Y85000D02*
D03*
X194500D02*
D03*
X185000Y105000D02*
D03*
D63*
X187620Y317500D02*
D03*
Y312500D02*
D03*
Y307500D02*
D03*
Y302500D02*
D03*
Y297500D02*
D03*
Y292500D02*
D03*
Y287500D02*
D03*
Y282500D02*
D03*
Y277500D02*
D03*
Y272500D02*
D03*
Y267500D02*
D03*
Y262500D02*
D03*
X272380D02*
D03*
Y267500D02*
D03*
Y272500D02*
D03*
Y277500D02*
D03*
Y282500D02*
D03*
Y287500D02*
D03*
Y292500D02*
D03*
Y297500D02*
D03*
Y302500D02*
D03*
Y307500D02*
D03*
Y312500D02*
D03*
Y317500D02*
D03*
D64*
X202500Y247620D02*
D03*
X207500D02*
D03*
X212500D02*
D03*
X217500D02*
D03*
X222500D02*
D03*
X227500D02*
D03*
X232500D02*
D03*
X237500D02*
D03*
X242500D02*
D03*
X247500D02*
D03*
X252500D02*
D03*
X257500D02*
D03*
Y332380D02*
D03*
X252500D02*
D03*
X247500D02*
D03*
X242500D02*
D03*
X237500D02*
D03*
X232500D02*
D03*
X227500D02*
D03*
X222500D02*
D03*
X217500D02*
D03*
X212500D02*
D03*
X207500D02*
D03*
X202500D02*
D03*
D65*
X160000Y309750D02*
D03*
Y295250D02*
D03*
D66*
X434500Y469250D02*
D03*
Y452250D02*
D03*
X382000Y469250D02*
D03*
Y452250D02*
D03*
D67*
X485000Y97500D02*
D03*
X470000D02*
D03*
D68*
X429995Y14997D02*
D03*
X384995D02*
D03*
X339995D02*
D03*
X204995D02*
D03*
X159996D02*
D03*
X114996D02*
D03*
X74996D02*
D03*
X294995D02*
D03*
X249995D02*
D03*
D69*
X280000Y57100D02*
D03*
Y82500D02*
D03*
Y107900D02*
D03*
D70*
X108000Y143750D02*
D03*
X355250Y297750D02*
D03*
X335250Y298750D02*
D03*
X99000Y151000D02*
D03*
X151250Y119750D02*
D03*
X82250Y263250D02*
D03*
X265000Y213750D02*
D03*
X278500Y191750D02*
D03*
X372000Y225750D02*
D03*
X137000Y211500D02*
D03*
X67250Y93250D02*
D03*
X143500Y379250D02*
D03*
X415500Y429500D02*
D03*
X468500Y368500D02*
D03*
X421500Y367750D02*
D03*
X455500Y58500D02*
D03*
X399250Y66750D02*
D03*
X490000Y123500D02*
D03*
X432000Y124000D02*
D03*
X234250Y112250D02*
D03*
X29000Y70500D02*
D03*
X29500Y116500D02*
D03*
Y163250D02*
D03*
X46500Y326250D02*
D03*
X46750Y370250D02*
D03*
Y417000D02*
D03*
X180000Y443500D02*
D03*
X118000Y158000D02*
D03*
X126750Y164250D02*
D03*
X207250Y60750D02*
D03*
X408500Y471000D02*
D03*
X421750Y267250D02*
D03*
Y222500D02*
D03*
X115250Y263250D02*
D03*
X300250Y234250D02*
D03*
X92960Y442210D02*
D03*
X82500Y139500D02*
D03*
X84750Y285750D02*
D03*
X148500Y365500D02*
D03*
X337750Y210500D02*
D03*
X372000Y247500D02*
D03*
X362250Y241250D02*
D03*
X303250Y294500D02*
D03*
X334000Y352500D02*
D03*
X322250Y334500D02*
D03*
X312000Y309000D02*
D03*
X267500Y246250D02*
D03*
X311250Y255000D02*
D03*
X322750Y206500D02*
D03*
X313250Y57250D02*
D03*
X270250Y131000D02*
D03*
X397750Y168750D02*
D03*
X297750Y38750D02*
D03*
X305250Y31750D02*
D03*
X362750Y225500D02*
D03*
X276000Y253000D02*
D03*
X112250Y235500D02*
D03*
X80000Y230000D02*
D03*
X9000Y262000D02*
D03*
X28000Y258000D02*
D03*
X9000Y251000D02*
D03*
X12000Y226000D02*
D03*
X9000Y271000D02*
D03*
X195250Y231500D02*
D03*
X360000Y249000D02*
D03*
X227250Y171750D02*
D03*
X86000Y195500D02*
D03*
X118250Y143750D02*
D03*
X129000Y221000D02*
D03*
X485000Y86000D02*
D03*
X111000Y479000D02*
D03*
X243000Y414000D02*
D03*
X355000Y466000D02*
D03*
X383000Y377000D02*
D03*
X324000Y379000D02*
D03*
X350000Y377000D02*
D03*
X466000Y401000D02*
D03*
X323000Y154000D02*
D03*
X323250Y113500D02*
D03*
X324000Y75000D02*
D03*
X162000Y84500D02*
D03*
X163000Y60000D02*
D03*
X71000Y207000D02*
D03*
X123500Y278250D02*
D03*
X118000Y302000D02*
D03*
X200500Y371500D02*
D03*
X139000Y334000D02*
D03*
X155000Y342000D02*
D03*
X309500Y320500D02*
D03*
X303000Y359000D02*
D03*
X267500Y345500D02*
D03*
X273000Y393500D02*
D03*
X101000Y388000D02*
D03*
X171000Y254000D02*
D03*
X258000Y396000D02*
D03*
X368000Y316000D02*
D03*
X355000Y314000D02*
D03*
X367000Y260000D02*
D03*
X326000Y261000D02*
D03*
X296000Y270000D02*
D03*
X220000Y208000D02*
D03*
X231000Y275000D02*
D03*
Y306000D02*
D03*
X252000Y292000D02*
D03*
X207000D02*
D03*
X252000Y267000D02*
D03*
X207000Y268000D02*
D03*
X252000Y313000D02*
D03*
X207000Y312000D02*
D03*
X241000Y233000D02*
D03*
X181750Y221250D02*
D03*
X78000Y169000D02*
D03*
X67750Y147250D02*
D03*
X151250Y148500D02*
D03*
X261500Y185750D02*
D03*
X169750Y228750D02*
D03*
X145250Y220750D02*
D03*
X104000Y263000D02*
D03*
X89500Y233250D02*
D03*
X56000Y217500D02*
D03*
X400000Y428000D02*
D03*
X399750Y331250D02*
D03*
X122500Y228250D02*
D03*
X194750Y178750D02*
D03*
X216000Y172250D02*
D03*
X304500Y161500D02*
D03*
X291750Y151250D02*
D03*
X216750Y225250D02*
D03*
X151000Y199500D02*
D03*
X249000Y35500D02*
D03*
X124000Y255250D02*
D03*
X103250Y226500D02*
D03*
X139250Y356500D02*
D03*
X227250Y363750D02*
D03*
X98000Y355750D02*
D03*
X245750Y356000D02*
D03*
X277500Y240750D02*
D03*
X85250Y45750D02*
D03*
X249000Y69750D02*
D03*
X307750Y351250D02*
D03*
X296000Y364750D02*
D03*
X159250Y461500D02*
D03*
X306250Y429750D02*
D03*
X386250Y201500D02*
D03*
X389000Y332500D02*
D03*
X390000Y420750D02*
D03*
X110000Y375000D02*
D03*
X98500Y401250D02*
D03*
X195000Y216000D02*
D03*
X54250Y256750D02*
D03*
X128750Y478750D02*
D03*
X164370Y247630D02*
D03*
X171250Y262250D02*
D03*
X257500Y345750D02*
D03*
X286500Y387000D02*
D03*
X286750Y307000D02*
D03*
M02*
