G04*
G04 #@! TF.GenerationSoftware,Altium Limited,Altium Designer,22.10.1 (41)*
G04*
G04 Layer_Color=32896*
%FSLAX44Y44*%
%MOMM*%
G71*
G04*
G04 #@! TF.SameCoordinates,B11F2CDB-B4DC-4695-A2B3-7529A6E467DA*
G04*
G04*
G04 #@! TF.FilePolarity,Positive*
G04*
G01*
G75*
%ADD11C,0.2000*%
%ADD14C,0.3000*%
%ADD16C,0.1000*%
%ADD17C,0.1270*%
%ADD19C,0.2540*%
D11*
X12000Y270000D02*
G03*
X12000Y270000I-500J0D01*
G01*
D14*
X378613Y188752D02*
Y193751D01*
X376114Y196250D01*
X371115D01*
X368616Y193751D01*
Y188752D01*
X371115Y186253D01*
X373615D01*
Y196250D01*
X371115Y181255D02*
Y171258D01*
X378613Y166259D02*
X363618D01*
Y158762D01*
X366117Y156263D01*
X371115D01*
X373615Y158762D01*
Y166259D01*
X368616Y148765D02*
Y143767D01*
X371115Y141268D01*
X378613D01*
Y148765D01*
X376114Y151264D01*
X373615Y148765D01*
Y141268D01*
X383611Y136269D02*
X368616D01*
Y128772D01*
X371115Y126272D01*
X376114D01*
X378613Y128772D01*
Y136269D01*
Y113777D02*
Y118775D01*
X376114Y121274D01*
X371115D01*
X368616Y118775D01*
Y113777D01*
X371115Y111277D01*
X373615D01*
Y121274D01*
X368616Y106279D02*
X378613D01*
X373615D01*
X371115Y103780D01*
X368616Y101281D01*
Y98781D01*
X408806Y196250D02*
X398809D01*
X393811Y191251D01*
X398809Y186253D01*
X408806D01*
X401308D01*
Y196250D01*
X393811Y181255D02*
X408806D01*
Y173757D01*
X406306Y171258D01*
X403807D01*
X401308Y173757D01*
Y181255D01*
Y173757D01*
X398809Y171258D01*
X396310D01*
X393811Y173757D01*
Y181255D01*
X408806Y166259D02*
Y161261D01*
Y163760D01*
X393811D01*
X396310Y166259D01*
Y153764D02*
X393811Y151264D01*
Y146266D01*
X396310Y143767D01*
X398809D01*
X401308Y146266D01*
X403807Y143767D01*
X406306D01*
X408806Y146266D01*
Y151264D01*
X406306Y153764D01*
X403807D01*
X401308Y151264D01*
X398809Y153764D01*
X396310D01*
X401308Y151264D02*
Y146266D01*
X408806Y138768D02*
Y133770D01*
Y136269D01*
X393811D01*
X396310Y138768D01*
X393811Y116276D02*
Y126272D01*
X401308D01*
X398809Y121274D01*
Y118775D01*
X401308Y116276D01*
X406306D01*
X408806Y118775D01*
Y123773D01*
X406306Y126272D01*
X421504Y186253D02*
X419005Y188752D01*
Y193751D01*
X421504Y196250D01*
X424003D01*
X426502Y193751D01*
Y188752D01*
X429001Y186253D01*
X431501D01*
X434000Y188752D01*
Y193751D01*
X431501Y196250D01*
X419005Y181255D02*
Y176256D01*
Y178755D01*
X434000D01*
Y181255D01*
Y176256D01*
Y168759D02*
X419005D01*
Y161261D01*
X421504Y158762D01*
X426502D01*
X429001Y161261D01*
Y168759D01*
X421504Y153764D02*
X419005Y151264D01*
Y146266D01*
X421504Y143767D01*
X424003D01*
X426502Y146266D01*
Y148765D01*
Y146266D01*
X429001Y143767D01*
X431501D01*
X434000Y146266D01*
Y151264D01*
X431501Y153764D01*
X434000Y128772D02*
Y138768D01*
X424003Y128772D01*
X421504D01*
X419005Y131271D01*
Y136269D01*
X421504Y138768D01*
X434000Y116276D02*
X419005D01*
X426502Y123773D01*
Y113777D01*
X421504Y108778D02*
X419005Y106279D01*
Y101281D01*
X421504Y98781D01*
X424003D01*
X426502Y101281D01*
Y103780D01*
Y101281D01*
X429001Y98781D01*
X431501D01*
X434000Y101281D01*
Y106279D01*
X431501Y108778D01*
X434000Y83786D02*
Y93783D01*
X424003Y83786D01*
X421504D01*
X419005Y86285D01*
Y91284D01*
X421504Y93783D01*
X419005Y78788D02*
X434000D01*
Y71290D01*
X431501Y68791D01*
X421504D01*
X419005Y71290D01*
Y78788D01*
X434000Y63793D02*
X419005D01*
Y56295D01*
X421504Y53796D01*
X426502D01*
X429001Y56295D01*
Y63793D01*
Y58794D02*
X434000Y53796D01*
X421504Y48798D02*
X419005Y46298D01*
Y41300D01*
X421504Y38801D01*
X424003D01*
X426502Y41300D01*
Y43799D01*
Y41300D01*
X429001Y38801D01*
X431501D01*
X434000Y41300D01*
Y46298D01*
X431501Y48798D01*
D16*
X40500Y229750D02*
G03*
X41500Y229750I500J0D01*
G01*
D02*
G03*
X40500Y229750I-500J0D01*
G01*
D17*
X14500Y244500D02*
X40500D01*
X14500Y275500D02*
X40500D01*
D19*
X93746Y279748D02*
X90414D01*
X92080D01*
Y269752D01*
X93746D01*
X90414D01*
X78751Y278082D02*
X80417Y279748D01*
X83749D01*
X85415Y278082D01*
Y271418D01*
X83749Y269752D01*
X80417D01*
X78751Y271418D01*
X70420Y269752D02*
Y279748D01*
X75419Y274750D01*
X68754D01*
X93996Y235998D02*
X90664D01*
X92330D01*
Y226002D01*
X93996D01*
X90664D01*
X79001Y234332D02*
X80667Y235998D01*
X83999D01*
X85665Y234332D01*
Y227668D01*
X83999Y226002D01*
X80667D01*
X79001Y227668D01*
X69004Y226002D02*
X75669D01*
X69004Y232666D01*
Y234332D01*
X70670Y235998D01*
X74002D01*
X75669Y234332D01*
M02*
