G04*
G04 #@! TF.GenerationSoftware,Altium Limited,Altium Designer,22.10.1 (41)*
G04*
G04 Layer_Physical_Order=2*
G04 Layer_Color=36540*
%FSLAX44Y44*%
%MOMM*%
G71*
G04*
G04 #@! TF.SameCoordinates,B11F2CDB-B4DC-4695-A2B3-7529A6E467DA*
G04*
G04*
G04 #@! TF.FilePolarity,Positive*
G04*
G01*
G75*
%ADD71C,1.5000*%
%ADD73C,0.6000*%
G36*
X485017Y488965D02*
X487374Y488965D01*
X491999Y488045D01*
X496356Y486241D01*
X500277Y483623D01*
X503613Y480290D01*
X506234Y476370D01*
X508041Y472015D01*
X508963Y467391D01*
X508965Y464999D01*
Y342063D01*
X482524D01*
X482522Y342062D01*
X482520Y342063D01*
X469996Y342039D01*
X469878Y342015D01*
X468513Y342015D01*
X468316Y341975D01*
X468116Y341975D01*
X465223Y341398D01*
X465037Y341321D01*
X464840Y341281D01*
X462115Y340150D01*
X461949Y340039D01*
X461763Y339962D01*
X459311Y338321D01*
X459169Y338179D01*
X459002Y338067D01*
X456918Y335980D01*
X456806Y335813D01*
X456664Y335671D01*
X455027Y333217D01*
X454950Y333031D01*
X454839Y332864D01*
X453712Y330138D01*
X453673Y329941D01*
X453596Y329755D01*
X453022Y326861D01*
X453022Y326660D01*
X452983Y326464D01*
X452984Y325136D01*
X452961Y325026D01*
X452963Y325013D01*
X452961Y325000D01*
Y165000D01*
X452985Y164880D01*
X452985Y163514D01*
X453025Y163317D01*
X453025Y163116D01*
X453602Y160223D01*
X453680Y160037D01*
X453719Y159840D01*
X454850Y157115D01*
X454961Y156949D01*
X455038Y156763D01*
X456679Y154311D01*
X456821Y154169D01*
X456933Y154002D01*
X459020Y151918D01*
X459187Y151806D01*
X459329Y151664D01*
X461783Y150027D01*
X461969Y149950D01*
X462136Y149839D01*
X464862Y148712D01*
X465059Y148673D01*
X465245Y148596D01*
X468139Y148022D01*
X468340Y148023D01*
X468536Y147984D01*
X469868Y147985D01*
X469980Y147961D01*
X469990Y147963D01*
X470000Y147961D01*
X508965D01*
X508965Y24983D01*
X508965Y22626D01*
X508045Y18001D01*
X506241Y13644D01*
X503623Y9723D01*
X500290Y6387D01*
X496370Y3766D01*
X492015Y1960D01*
X487391Y1037D01*
X485033Y1035D01*
X25001D01*
X25000Y1035D01*
X24999Y1035D01*
X22641Y1034D01*
X18013Y1951D01*
X13654Y3753D01*
X9730Y6371D01*
X6392Y9705D01*
X3768Y13625D01*
X1960Y17982D01*
X1037Y22608D01*
X1035Y24967D01*
X1035Y187961D01*
X56316D01*
X56578Y188013D01*
X56844Y188030D01*
X59388Y188712D01*
X59627Y188830D01*
X59879Y188916D01*
X62160Y190232D01*
X62360Y190408D01*
X62582Y190556D01*
X64444Y192418D01*
X64592Y192640D01*
X64768Y192840D01*
X66084Y195121D01*
X66170Y195373D01*
X66288Y195612D01*
X66970Y198156D01*
X66987Y198422D01*
X67039Y198683D01*
Y201317D01*
X66987Y201578D01*
X66970Y201844D01*
X66288Y204388D01*
X66170Y204627D01*
X66084Y204879D01*
X64768Y207160D01*
X64592Y207360D01*
X64444Y207582D01*
X62582Y209444D01*
X62360Y209592D01*
X62160Y209768D01*
X59879Y211084D01*
X59627Y211170D01*
X59388Y211288D01*
X56844Y211970D01*
X56849Y213230D01*
X58419Y213880D01*
X59620Y215081D01*
X60270Y216651D01*
Y218349D01*
X59620Y219919D01*
X58419Y221120D01*
X56849Y221770D01*
X55151D01*
X53581Y221120D01*
X52380Y219919D01*
X51730Y218349D01*
Y216651D01*
X52380Y215081D01*
X53581Y213880D01*
X55151Y213230D01*
X54959Y212039D01*
X1035D01*
Y277961D01*
X56316D01*
X56578Y278013D01*
X56844Y278030D01*
X59388Y278712D01*
X59627Y278830D01*
X59879Y278916D01*
X62160Y280232D01*
X62360Y280408D01*
X62582Y280556D01*
X64444Y282418D01*
X64592Y282640D01*
X64768Y282840D01*
X66084Y285121D01*
X66170Y285373D01*
X66288Y285612D01*
X66970Y288156D01*
X66987Y288422D01*
X67039Y288683D01*
Y291317D01*
X66987Y291578D01*
X66970Y291844D01*
X66288Y294388D01*
X66170Y294627D01*
X66084Y294879D01*
X64768Y297160D01*
X64592Y297360D01*
X64444Y297582D01*
X62582Y299444D01*
X62360Y299592D01*
X62160Y299768D01*
X59879Y301084D01*
X59627Y301170D01*
X59388Y301288D01*
X56844Y301970D01*
X56578Y301987D01*
X56316Y302039D01*
X55000D01*
X55000Y302039D01*
X1035D01*
Y464999D01*
X1035Y465000D01*
X1035Y465001D01*
X1034Y467359D01*
X1951Y471987D01*
X3753Y476346D01*
X6371Y480270D01*
X9705Y483608D01*
X13625Y486231D01*
X17982Y488040D01*
X22608Y488963D01*
X25001Y488965D01*
X335007D01*
X485017Y488965D01*
D02*
G37*
%LPC*%
G36*
X160099Y465770D02*
X158401D01*
X156831Y465120D01*
X155630Y463919D01*
X154980Y462349D01*
Y460651D01*
X155630Y459081D01*
X156831Y457880D01*
X158401Y457230D01*
X160099D01*
X161669Y457880D01*
X162870Y459081D01*
X163520Y460651D01*
Y462349D01*
X162870Y463919D01*
X161669Y465120D01*
X160099Y465770D01*
D02*
G37*
G36*
X486333Y479501D02*
X483772D01*
X483575Y479462D01*
X483374D01*
X480863Y478962D01*
X480677Y478885D01*
X480480Y478846D01*
X478114Y477866D01*
X477947Y477755D01*
X477762Y477678D01*
X475633Y476255D01*
X475491Y476113D01*
X475324Y476002D01*
X473513Y474191D01*
X473401Y474024D01*
X473259Y473882D01*
X471837Y471753D01*
X471760Y471567D01*
X471648Y471400D01*
X470668Y469034D01*
X470629Y468837D01*
X470552Y468652D01*
X470052Y466140D01*
Y465939D01*
X470013Y465742D01*
Y463181D01*
X470052Y462984D01*
Y462784D01*
X470552Y460272D01*
X470629Y460087D01*
X470668Y459889D01*
X471648Y457524D01*
X471760Y457357D01*
X471837Y457171D01*
X473259Y455042D01*
X473401Y454900D01*
X473513Y454733D01*
X475324Y452922D01*
X475491Y452811D01*
X475633Y452668D01*
X477762Y451246D01*
X477947Y451169D01*
X478114Y451057D01*
X480480Y450077D01*
X480677Y450038D01*
X480863Y449961D01*
X483374Y449462D01*
X483575D01*
X483772Y449423D01*
X486333D01*
X486530Y449462D01*
X486731D01*
X489242Y449961D01*
X489428Y450038D01*
X489625Y450077D01*
X491991Y451057D01*
X492158Y451169D01*
X492343Y451246D01*
X494472Y452668D01*
X494614Y452811D01*
X494781Y452922D01*
X496592Y454733D01*
X496704Y454900D01*
X496846Y455042D01*
X498269Y457171D01*
X498345Y457357D01*
X498457Y457524D01*
X499437Y459889D01*
X499476Y460087D01*
X499553Y460272D01*
X500052Y462784D01*
Y462984D01*
X500092Y463181D01*
Y465742D01*
X500052Y465939D01*
Y466140D01*
X499553Y468652D01*
X499476Y468837D01*
X499437Y469034D01*
X498457Y471400D01*
X498345Y471567D01*
X498269Y471753D01*
X496846Y473882D01*
X496704Y474024D01*
X496592Y474191D01*
X494781Y476002D01*
X494614Y476113D01*
X494472Y476255D01*
X492343Y477678D01*
X492158Y477755D01*
X491991Y477866D01*
X489625Y478846D01*
X489428Y478885D01*
X489242Y478962D01*
X486731Y479462D01*
X486530D01*
X486333Y479501D01*
D02*
G37*
G36*
X26333D02*
X23772D01*
X23575Y479462D01*
X23374D01*
X20863Y478962D01*
X20677Y478885D01*
X20480Y478846D01*
X18114Y477866D01*
X17947Y477755D01*
X17762Y477678D01*
X15633Y476255D01*
X15491Y476113D01*
X15324Y476002D01*
X13513Y474191D01*
X13401Y474024D01*
X13259Y473882D01*
X11837Y471753D01*
X11760Y471567D01*
X11648Y471400D01*
X10668Y469034D01*
X10629Y468837D01*
X10552Y468652D01*
X10052Y466140D01*
Y465939D01*
X10013Y465742D01*
Y463181D01*
X10052Y462984D01*
Y462784D01*
X10552Y460272D01*
X10629Y460087D01*
X10668Y459889D01*
X11648Y457524D01*
X11760Y457357D01*
X11837Y457171D01*
X13259Y455042D01*
X13401Y454900D01*
X13513Y454733D01*
X15324Y452922D01*
X15491Y452811D01*
X15633Y452668D01*
X17762Y451246D01*
X17947Y451169D01*
X18114Y451057D01*
X20480Y450077D01*
X20677Y450038D01*
X20863Y449961D01*
X23374Y449462D01*
X23575D01*
X23772Y449423D01*
X26333D01*
X26530Y449462D01*
X26731D01*
X29242Y449961D01*
X29428Y450038D01*
X29625Y450077D01*
X31991Y451057D01*
X32158Y451169D01*
X32343Y451246D01*
X34472Y452668D01*
X34614Y452811D01*
X34781Y452922D01*
X36592Y454733D01*
X36704Y454900D01*
X36846Y455042D01*
X38268Y457171D01*
X38345Y457357D01*
X38457Y457524D01*
X39437Y459889D01*
X39476Y460087D01*
X39553Y460272D01*
X40052Y462784D01*
Y462984D01*
X40092Y463181D01*
Y465742D01*
X40052Y465939D01*
Y466140D01*
X39553Y468652D01*
X39476Y468837D01*
X39437Y469034D01*
X38457Y471400D01*
X38345Y471567D01*
X38268Y471753D01*
X36846Y473882D01*
X36704Y474024D01*
X36592Y474191D01*
X34781Y476002D01*
X34614Y476113D01*
X34472Y476255D01*
X32343Y477678D01*
X32158Y477755D01*
X31991Y477866D01*
X29625Y478846D01*
X29428Y478885D01*
X29242Y478962D01*
X26731Y479462D01*
X26530D01*
X26333Y479501D01*
D02*
G37*
G36*
X93809Y446480D02*
X92111D01*
X90541Y445830D01*
X89340Y444629D01*
X88690Y443059D01*
Y441361D01*
X89340Y439791D01*
X90541Y438590D01*
X92111Y437940D01*
X93809D01*
X95379Y438590D01*
X96580Y439791D01*
X97230Y441361D01*
Y443059D01*
X96580Y444629D01*
X95379Y445830D01*
X93809Y446480D01*
D02*
G37*
G36*
X307099Y434020D02*
X305401D01*
X303831Y433370D01*
X302630Y432169D01*
X301980Y430599D01*
Y428901D01*
X302630Y427331D01*
X303831Y426130D01*
X305401Y425480D01*
X307099D01*
X308669Y426130D01*
X309870Y427331D01*
X310520Y428901D01*
Y430599D01*
X309870Y432169D01*
X308669Y433370D01*
X307099Y434020D01*
D02*
G37*
G36*
X400849Y432270D02*
X399151D01*
X397581Y431620D01*
X396380Y430419D01*
X395730Y428849D01*
Y427151D01*
X396380Y425581D01*
X397581Y424380D01*
X399151Y423730D01*
X400849D01*
X402419Y424380D01*
X403620Y425581D01*
X404270Y427151D01*
Y428849D01*
X403620Y430419D01*
X402419Y431620D01*
X400849Y432270D01*
D02*
G37*
G36*
X390849Y425020D02*
X389151D01*
X387581Y424370D01*
X386380Y423169D01*
X385730Y421599D01*
Y419901D01*
X386380Y418331D01*
X387581Y417130D01*
X389151Y416480D01*
X390849D01*
X392419Y417130D01*
X393620Y418331D01*
X394270Y419901D01*
Y421599D01*
X393620Y423169D01*
X392419Y424370D01*
X390849Y425020D01*
D02*
G37*
G36*
X99349Y405520D02*
X97651D01*
X96081Y404870D01*
X94880Y403669D01*
X94230Y402099D01*
Y400401D01*
X94880Y398831D01*
X96081Y397630D01*
X97651Y396980D01*
X99349D01*
X100919Y397630D01*
X102120Y398831D01*
X102770Y400401D01*
Y402099D01*
X102120Y403669D01*
X100919Y404870D01*
X99349Y405520D01*
D02*
G37*
G36*
X258849Y400270D02*
X257151D01*
X255581Y399620D01*
X254380Y398419D01*
X253730Y396849D01*
Y395151D01*
X254380Y393581D01*
X255581Y392380D01*
X257151Y391730D01*
X258849D01*
X260419Y392380D01*
X261620Y393581D01*
X262270Y395151D01*
Y396849D01*
X261620Y398419D01*
X260419Y399620D01*
X258849Y400270D01*
D02*
G37*
G36*
X287349Y391270D02*
X285651D01*
X284081Y390620D01*
X282880Y389419D01*
X282230Y387849D01*
Y386151D01*
X282880Y384581D01*
X284081Y383380D01*
X285651Y382730D01*
X287349D01*
X288919Y383380D01*
X290120Y384581D01*
X290770Y386151D01*
Y387849D01*
X290120Y389419D01*
X288919Y390620D01*
X287349Y391270D01*
D02*
G37*
G36*
X350849Y381270D02*
X349151D01*
X347581Y380620D01*
X346380Y379419D01*
X345730Y377849D01*
Y376151D01*
X346380Y374581D01*
X347581Y373380D01*
X349151Y372730D01*
X350849D01*
X352419Y373380D01*
X353620Y374581D01*
X354270Y376151D01*
Y377849D01*
X353620Y379419D01*
X352419Y380620D01*
X350849Y381270D01*
D02*
G37*
G36*
X110849Y379270D02*
X109151D01*
X107581Y378620D01*
X106380Y377419D01*
X105730Y375849D01*
Y374151D01*
X106380Y372581D01*
X107581Y371380D01*
X109151Y370730D01*
X110849D01*
X112419Y371380D01*
X113620Y372581D01*
X114270Y374151D01*
Y375849D01*
X113620Y377419D01*
X112419Y378620D01*
X110849Y379270D01*
D02*
G37*
G36*
X149349Y369770D02*
X147651D01*
X146081Y369120D01*
X144880Y367919D01*
X144230Y366349D01*
Y364651D01*
X144880Y363081D01*
X146081Y361880D01*
X147651Y361230D01*
X149349D01*
X150919Y361880D01*
X152120Y363081D01*
X152770Y364651D01*
Y366349D01*
X152120Y367919D01*
X150919Y369120D01*
X149349Y369770D01*
D02*
G37*
G36*
X296849Y369020D02*
X295151D01*
X293581Y368370D01*
X292380Y367169D01*
X291730Y365599D01*
Y363901D01*
X292380Y362331D01*
X293581Y361130D01*
X295151Y360480D01*
X296849D01*
X298419Y361130D01*
X299620Y362331D01*
X300270Y363901D01*
Y365599D01*
X299620Y367169D01*
X298419Y368370D01*
X296849Y369020D01*
D02*
G37*
G36*
X228099Y368020D02*
X226401D01*
X224831Y367370D01*
X223630Y366169D01*
X222980Y364599D01*
Y362901D01*
X223630Y361331D01*
X224831Y360130D01*
X226401Y359480D01*
X228099D01*
X229669Y360130D01*
X230870Y361331D01*
X231520Y362901D01*
Y364599D01*
X230870Y366169D01*
X229669Y367370D01*
X228099Y368020D01*
D02*
G37*
G36*
X140099Y360770D02*
X138401D01*
X136831Y360120D01*
X135630Y358919D01*
X134980Y357349D01*
Y355651D01*
X135630Y354081D01*
X136831Y352880D01*
X138401Y352230D01*
X140099D01*
X141669Y352880D01*
X142870Y354081D01*
X143520Y355651D01*
Y357349D01*
X142870Y358919D01*
X141669Y360120D01*
X140099Y360770D01*
D02*
G37*
G36*
X246599Y360270D02*
X244901D01*
X243331Y359620D01*
X242130Y358419D01*
X241480Y356849D01*
Y355151D01*
X242130Y353581D01*
X243331Y352380D01*
X244901Y351730D01*
X246599D01*
X248169Y352380D01*
X249370Y353581D01*
X250020Y355151D01*
Y356849D01*
X249370Y358419D01*
X248169Y359620D01*
X246599Y360270D01*
D02*
G37*
G36*
X98849Y360020D02*
X97151D01*
X95581Y359370D01*
X94380Y358169D01*
X93730Y356599D01*
Y354901D01*
X94380Y353331D01*
X95581Y352130D01*
X97151Y351480D01*
X98849D01*
X100419Y352130D01*
X101620Y353331D01*
X102270Y354901D01*
Y356599D01*
X101620Y358169D01*
X100419Y359370D01*
X98849Y360020D01*
D02*
G37*
G36*
X334849Y356770D02*
X333151D01*
X331581Y356120D01*
X330380Y354919D01*
X329730Y353349D01*
Y351651D01*
X330380Y350081D01*
X331581Y348880D01*
X333151Y348230D01*
X334849D01*
X336419Y348880D01*
X337620Y350081D01*
X338270Y351651D01*
Y353349D01*
X337620Y354919D01*
X336419Y356120D01*
X334849Y356770D01*
D02*
G37*
G36*
X308599Y355520D02*
X306901D01*
X305331Y354870D01*
X304130Y353669D01*
X303480Y352099D01*
Y350401D01*
X304130Y348831D01*
X305331Y347630D01*
X306901Y346980D01*
X308599D01*
X310169Y347630D01*
X311370Y348831D01*
X312020Y350401D01*
Y352099D01*
X311370Y353669D01*
X310169Y354870D01*
X308599Y355520D01*
D02*
G37*
G36*
X258349Y350020D02*
X256651D01*
X255081Y349370D01*
X253880Y348169D01*
X253230Y346599D01*
Y344901D01*
X253880Y343331D01*
X255081Y342130D01*
X256651Y341480D01*
X258349D01*
X259919Y342130D01*
X261120Y343331D01*
X261770Y344901D01*
Y346599D01*
X261120Y348169D01*
X259919Y349370D01*
X258349Y350020D01*
D02*
G37*
G36*
X323099Y338770D02*
X321401D01*
X319831Y338120D01*
X318630Y336919D01*
X317980Y335349D01*
Y333651D01*
X318630Y332081D01*
X319831Y330880D01*
X321401Y330230D01*
X323099D01*
X324669Y330880D01*
X325870Y332081D01*
X326520Y333651D01*
Y335349D01*
X325870Y336919D01*
X324669Y338120D01*
X323099Y338770D01*
D02*
G37*
G36*
X139849Y338270D02*
X138151D01*
X136581Y337620D01*
X135380Y336419D01*
X134730Y334849D01*
Y333151D01*
X135380Y331581D01*
X136581Y330380D01*
X138151Y329730D01*
X139849D01*
X141419Y330380D01*
X142620Y331581D01*
X143270Y333151D01*
Y334849D01*
X142620Y336419D01*
X141419Y337620D01*
X139849Y338270D01*
D02*
G37*
G36*
X389849Y336770D02*
X388151D01*
X386581Y336120D01*
X385380Y334919D01*
X384730Y333349D01*
Y331651D01*
X385380Y330081D01*
X386581Y328880D01*
X388151Y328230D01*
X389849D01*
X391419Y328880D01*
X392620Y330081D01*
X393270Y331651D01*
Y333349D01*
X392620Y334919D01*
X391419Y336120D01*
X389849Y336770D01*
D02*
G37*
G36*
X400599Y335520D02*
X398901D01*
X397331Y334870D01*
X396130Y333669D01*
X395480Y332099D01*
Y330401D01*
X396130Y328831D01*
X397331Y327630D01*
X398901Y326980D01*
X400599D01*
X402169Y327630D01*
X403370Y328831D01*
X404020Y330401D01*
Y332099D01*
X403370Y333669D01*
X402169Y334870D01*
X400599Y335520D01*
D02*
G37*
G36*
X368849Y320270D02*
X367151D01*
X365581Y319620D01*
X364380Y318419D01*
X363730Y316849D01*
Y315151D01*
X364380Y313581D01*
X365581Y312380D01*
X367151Y311730D01*
X368849D01*
X370419Y312380D01*
X371620Y313581D01*
X372270Y315151D01*
Y316849D01*
X371620Y318419D01*
X370419Y319620D01*
X368849Y320270D01*
D02*
G37*
G36*
X355849Y318270D02*
X354151D01*
X352581Y317620D01*
X351380Y316419D01*
X350730Y314849D01*
Y313151D01*
X351380Y311581D01*
X352581Y310380D01*
X354151Y309730D01*
X355849D01*
X357419Y310380D01*
X358620Y311581D01*
X359270Y313151D01*
Y314849D01*
X358620Y316419D01*
X357419Y317620D01*
X355849Y318270D01*
D02*
G37*
G36*
X312849Y313270D02*
X311151D01*
X309581Y312620D01*
X308380Y311419D01*
X307730Y309849D01*
Y308151D01*
X308380Y306581D01*
X309581Y305380D01*
X311151Y304730D01*
X312849D01*
X314419Y305380D01*
X315620Y306581D01*
X316270Y308151D01*
Y309849D01*
X315620Y311419D01*
X314419Y312620D01*
X312849Y313270D01*
D02*
G37*
G36*
X287599Y311270D02*
X285901D01*
X284331Y310620D01*
X283130Y309419D01*
X282480Y307849D01*
Y306151D01*
X283130Y304581D01*
X284331Y303380D01*
X285901Y302730D01*
X287599D01*
X289169Y303380D01*
X290370Y304581D01*
X291020Y306151D01*
Y307849D01*
X290370Y309419D01*
X289169Y310620D01*
X287599Y311270D01*
D02*
G37*
G36*
X336099Y303020D02*
X334401D01*
X332831Y302370D01*
X331630Y301169D01*
X330980Y299599D01*
Y297901D01*
X331630Y296331D01*
X332831Y295130D01*
X334401Y294480D01*
X336099D01*
X337669Y295130D01*
X338870Y296331D01*
X339520Y297901D01*
Y299599D01*
X338870Y301169D01*
X337669Y302370D01*
X336099Y303020D01*
D02*
G37*
G36*
X356099Y302020D02*
X354401D01*
X352831Y301370D01*
X351630Y300169D01*
X350980Y298599D01*
Y296901D01*
X351630Y295331D01*
X352831Y294130D01*
X354401Y293480D01*
X356099D01*
X357669Y294130D01*
X358870Y295331D01*
X359520Y296901D01*
Y298599D01*
X358870Y300169D01*
X357669Y301370D01*
X356099Y302020D01*
D02*
G37*
G36*
X304099Y298770D02*
X302401D01*
X300831Y298120D01*
X299630Y296919D01*
X298980Y295349D01*
Y293651D01*
X299630Y292081D01*
X300831Y290880D01*
X302401Y290230D01*
X304099D01*
X305669Y290880D01*
X306870Y292081D01*
X307520Y293651D01*
Y295349D01*
X306870Y296919D01*
X305669Y298120D01*
X304099Y298770D01*
D02*
G37*
G36*
X85599Y290020D02*
X83901D01*
X82331Y289370D01*
X81130Y288169D01*
X80480Y286599D01*
Y284901D01*
X81130Y283331D01*
X82331Y282130D01*
X83901Y281480D01*
X85599D01*
X87169Y282130D01*
X88370Y283331D01*
X89020Y284901D01*
Y286599D01*
X88370Y288169D01*
X87169Y289370D01*
X85599Y290020D01*
D02*
G37*
G36*
X296849Y274270D02*
X295151D01*
X293581Y273620D01*
X292380Y272419D01*
X291730Y270849D01*
Y269151D01*
X292380Y267581D01*
X293581Y266380D01*
X295151Y265730D01*
X296849D01*
X298419Y266380D01*
X299620Y267581D01*
X300270Y269151D01*
Y270849D01*
X299620Y272419D01*
X298419Y273620D01*
X296849Y274270D01*
D02*
G37*
G36*
X104849Y267270D02*
X103151D01*
X101581Y266620D01*
X100380Y265419D01*
X99730Y263849D01*
Y262151D01*
X100380Y260581D01*
X101581Y259380D01*
X103151Y258730D01*
X104849D01*
X106419Y259380D01*
X107620Y260581D01*
X108270Y262151D01*
Y263849D01*
X107620Y265419D01*
X106419Y266620D01*
X104849Y267270D01*
D02*
G37*
G36*
X172099Y266520D02*
X170401D01*
X168831Y265870D01*
X167630Y264669D01*
X166980Y263099D01*
Y261401D01*
X167630Y259831D01*
X168831Y258630D01*
X170401Y257980D01*
X172099D01*
X173669Y258630D01*
X174870Y259831D01*
X175520Y261401D01*
Y263099D01*
X174870Y264669D01*
X173669Y265870D01*
X172099Y266520D01*
D02*
G37*
G36*
X9849Y266270D02*
X8151D01*
X6581Y265620D01*
X5380Y264419D01*
X4730Y262849D01*
Y261151D01*
X5380Y259581D01*
X6581Y258380D01*
X8151Y257730D01*
X9849D01*
X11419Y258380D01*
X12620Y259581D01*
X13270Y261151D01*
Y262849D01*
X12620Y264419D01*
X11419Y265620D01*
X9849Y266270D01*
D02*
G37*
G36*
X326849Y265270D02*
X325151D01*
X323581Y264620D01*
X322380Y263419D01*
X321730Y261849D01*
Y260151D01*
X322380Y258581D01*
X323581Y257380D01*
X325151Y256730D01*
X326849D01*
X328419Y257380D01*
X329620Y258581D01*
X330270Y260151D01*
Y261849D01*
X329620Y263419D01*
X328419Y264620D01*
X326849Y265270D01*
D02*
G37*
G36*
X367849Y264270D02*
X366151D01*
X364581Y263620D01*
X363380Y262419D01*
X362730Y260849D01*
Y259151D01*
X363380Y257581D01*
X364581Y256380D01*
X366151Y255730D01*
X367849D01*
X369419Y256380D01*
X370620Y257581D01*
X371270Y259151D01*
Y260849D01*
X370620Y262419D01*
X369419Y263620D01*
X367849Y264270D01*
D02*
G37*
G36*
X55099Y261020D02*
X53401D01*
X51831Y260370D01*
X50630Y259169D01*
X49980Y257599D01*
Y255901D01*
X50630Y254331D01*
X51831Y253130D01*
X53401Y252480D01*
X55099D01*
X56669Y253130D01*
X57870Y254331D01*
X58520Y255901D01*
Y257599D01*
X57870Y259169D01*
X56669Y260370D01*
X55099Y261020D01*
D02*
G37*
G36*
X124849Y259520D02*
X123151D01*
X121581Y258870D01*
X120380Y257669D01*
X119730Y256099D01*
Y254401D01*
X120380Y252831D01*
X121581Y251630D01*
X123151Y250980D01*
X124849D01*
X126419Y251630D01*
X127620Y252831D01*
X128270Y254401D01*
Y256099D01*
X127620Y257669D01*
X126419Y258870D01*
X124849Y259520D01*
D02*
G37*
G36*
X276849Y257270D02*
X275151D01*
X273581Y256620D01*
X272380Y255419D01*
X271730Y253849D01*
Y252151D01*
X272380Y250581D01*
X273581Y249380D01*
X275151Y248730D01*
X276849D01*
X278419Y249380D01*
X279620Y250581D01*
X280270Y252151D01*
Y253849D01*
X279620Y255419D01*
X278419Y256620D01*
X276849Y257270D01*
D02*
G37*
G36*
X165219Y251900D02*
X163521D01*
X161951Y251250D01*
X160750Y250049D01*
X160100Y248479D01*
Y246781D01*
X160750Y245211D01*
X161951Y244010D01*
X163521Y243360D01*
X165219D01*
X166789Y244010D01*
X167990Y245211D01*
X168640Y246781D01*
Y248479D01*
X167990Y250049D01*
X166789Y251250D01*
X165219Y251900D01*
D02*
G37*
G36*
X372849Y251770D02*
X371151D01*
X369581Y251120D01*
X368380Y249919D01*
X367730Y248349D01*
Y246651D01*
X368380Y245081D01*
X369581Y243880D01*
X371151Y243230D01*
X372849D01*
X374419Y243880D01*
X375620Y245081D01*
X376270Y246651D01*
Y248349D01*
X375620Y249919D01*
X374419Y251120D01*
X372849Y251770D01*
D02*
G37*
G36*
X363099Y245520D02*
X361401D01*
X359831Y244870D01*
X358630Y243669D01*
X357980Y242099D01*
Y240401D01*
X358630Y238831D01*
X359831Y237630D01*
X361401Y236980D01*
X363099D01*
X364669Y237630D01*
X365870Y238831D01*
X366520Y240401D01*
Y242099D01*
X365870Y243669D01*
X364669Y244870D01*
X363099Y245520D01*
D02*
G37*
G36*
X278349Y245020D02*
X276651D01*
X275081Y244370D01*
X273880Y243169D01*
X273230Y241599D01*
Y239901D01*
X273880Y238331D01*
X275081Y237130D01*
X276651Y236480D01*
X278349D01*
X279919Y237130D01*
X281120Y238331D01*
X281770Y239901D01*
Y241599D01*
X281120Y243169D01*
X279919Y244370D01*
X278349Y245020D01*
D02*
G37*
G36*
X113099Y239770D02*
X111401D01*
X109831Y239120D01*
X108630Y237919D01*
X107980Y236349D01*
Y234651D01*
X108630Y233081D01*
X109831Y231880D01*
X111401Y231230D01*
X113099D01*
X114669Y231880D01*
X115870Y233081D01*
X116520Y234651D01*
Y236349D01*
X115870Y237919D01*
X114669Y239120D01*
X113099Y239770D01*
D02*
G37*
G36*
X90349Y237520D02*
X88651D01*
X87081Y236870D01*
X85880Y235669D01*
X85230Y234099D01*
Y232401D01*
X85880Y230831D01*
X87081Y229630D01*
X88651Y228980D01*
X90349D01*
X91919Y229630D01*
X93120Y230831D01*
X93770Y232401D01*
Y234099D01*
X93120Y235669D01*
X91919Y236870D01*
X90349Y237520D01*
D02*
G37*
G36*
X372849Y230020D02*
X371151D01*
X369581Y229370D01*
X368380Y228169D01*
X368010Y227277D01*
X366636D01*
X366370Y227919D01*
X365169Y229120D01*
X363599Y229770D01*
X361901D01*
X360331Y229120D01*
X359130Y227919D01*
X358480Y226349D01*
Y224651D01*
X359130Y223081D01*
X360331Y221880D01*
X361901Y221230D01*
X363599D01*
X365169Y221880D01*
X366370Y223081D01*
X366739Y223973D01*
X368114D01*
X368380Y223331D01*
X369581Y222130D01*
X371151Y221480D01*
X372849D01*
X374419Y222130D01*
X375620Y223331D01*
X376270Y224901D01*
Y226599D01*
X375620Y228169D01*
X374419Y229370D01*
X372849Y230020D01*
D02*
G37*
G36*
X170599Y233020D02*
X168901D01*
X167331Y232370D01*
X166130Y231169D01*
X165480Y229599D01*
Y227901D01*
X166130Y226331D01*
X167331Y225130D01*
X168901Y224480D01*
X170599D01*
X172169Y225130D01*
X173370Y226331D01*
X174020Y227901D01*
Y229599D01*
X173370Y231169D01*
X172169Y232370D01*
X170599Y233020D01*
D02*
G37*
G36*
X123349Y232520D02*
X121651D01*
X120081Y231870D01*
X118880Y230669D01*
X118230Y229099D01*
Y227401D01*
X118880Y225831D01*
X120081Y224630D01*
X121651Y223980D01*
X123349D01*
X124919Y224630D01*
X126120Y225831D01*
X126770Y227401D01*
Y229099D01*
X126120Y230669D01*
X124919Y231870D01*
X123349Y232520D01*
D02*
G37*
G36*
X104099Y230770D02*
X102401D01*
X100831Y230120D01*
X99630Y228919D01*
X98980Y227349D01*
Y225651D01*
X99630Y224081D01*
X100831Y222880D01*
X102401Y222230D01*
X104099D01*
X105669Y222880D01*
X106870Y224081D01*
X107520Y225651D01*
Y227349D01*
X106870Y228919D01*
X105669Y230120D01*
X104099Y230770D01*
D02*
G37*
G36*
X217599Y229520D02*
X215901D01*
X214331Y228870D01*
X213130Y227669D01*
X212480Y226099D01*
Y224401D01*
X213130Y222831D01*
X214331Y221630D01*
X215901Y220980D01*
X217599D01*
X219169Y221630D01*
X220370Y222831D01*
X221020Y224401D01*
Y226099D01*
X220370Y227669D01*
X219169Y228870D01*
X217599Y229520D01*
D02*
G37*
G36*
X146099Y225020D02*
X144401D01*
X142831Y224370D01*
X141630Y223169D01*
X140980Y221599D01*
Y219901D01*
X141630Y218331D01*
X142831Y217130D01*
X144401Y216480D01*
X146099D01*
X147669Y217130D01*
X148870Y218331D01*
X149520Y219901D01*
Y221599D01*
X148870Y223169D01*
X147669Y224370D01*
X146099Y225020D01*
D02*
G37*
G36*
X195849Y220270D02*
X194151D01*
X192581Y219620D01*
X191380Y218419D01*
X190730Y216849D01*
Y215151D01*
X191380Y213581D01*
X192581Y212380D01*
X194151Y211730D01*
X195849D01*
X197419Y212380D01*
X198620Y213581D01*
X199270Y215151D01*
Y216849D01*
X198620Y218419D01*
X197419Y219620D01*
X195849Y220270D01*
D02*
G37*
G36*
X265849Y218020D02*
X264151D01*
X262581Y217370D01*
X261380Y216169D01*
X260730Y214599D01*
Y212901D01*
X261380Y211331D01*
X262581Y210130D01*
X264151Y209480D01*
X265849D01*
X267419Y210130D01*
X268620Y211331D01*
X269270Y212901D01*
Y214599D01*
X268620Y216169D01*
X267419Y217370D01*
X265849Y218020D01*
D02*
G37*
G36*
X137849Y215770D02*
X136151D01*
X134581Y215120D01*
X133380Y213919D01*
X132730Y212349D01*
Y210651D01*
X133380Y209081D01*
X134581Y207880D01*
X136151Y207230D01*
X137849D01*
X139419Y207880D01*
X140620Y209081D01*
X141270Y210651D01*
Y212349D01*
X140620Y213919D01*
X139419Y215120D01*
X137849Y215770D01*
D02*
G37*
G36*
X338599Y214770D02*
X336901D01*
X335331Y214120D01*
X334130Y212919D01*
X333480Y211349D01*
Y209651D01*
X334130Y208081D01*
X335331Y206880D01*
X336901Y206230D01*
X338599D01*
X340169Y206880D01*
X341370Y208081D01*
X342020Y209651D01*
Y211349D01*
X341370Y212919D01*
X340169Y214120D01*
X338599Y214770D01*
D02*
G37*
G36*
X323599Y210770D02*
X321901D01*
X320331Y210120D01*
X319130Y208919D01*
X318480Y207349D01*
Y205651D01*
X319130Y204081D01*
X320331Y202880D01*
X321901Y202230D01*
X323599D01*
X325169Y202880D01*
X326370Y204081D01*
X327020Y205651D01*
Y207349D01*
X326370Y208919D01*
X325169Y210120D01*
X323599Y210770D01*
D02*
G37*
G36*
X387099Y205770D02*
X385401D01*
X383831Y205120D01*
X382630Y203919D01*
X381980Y202349D01*
Y200651D01*
X382630Y199081D01*
X383831Y197880D01*
X385401Y197230D01*
X387099D01*
X388669Y197880D01*
X389870Y199081D01*
X390520Y200651D01*
Y202349D01*
X389870Y203919D01*
X388669Y205120D01*
X387099Y205770D01*
D02*
G37*
G36*
X151849Y203770D02*
X150151D01*
X148581Y203120D01*
X147380Y201919D01*
X146730Y200349D01*
Y198651D01*
X147380Y197081D01*
X148581Y195880D01*
X150151Y195230D01*
X151849D01*
X153419Y195880D01*
X154620Y197081D01*
X155270Y198651D01*
Y200349D01*
X154620Y201919D01*
X153419Y203120D01*
X151849Y203770D01*
D02*
G37*
G36*
X279349Y196020D02*
X277651D01*
X276081Y195370D01*
X274880Y194169D01*
X274230Y192599D01*
Y190901D01*
X274880Y189331D01*
X276081Y188130D01*
X277651Y187480D01*
X279349D01*
X280919Y188130D01*
X282120Y189331D01*
X282770Y190901D01*
Y192599D01*
X282120Y194169D01*
X280919Y195370D01*
X279349Y196020D01*
D02*
G37*
G36*
X262349Y190020D02*
X260651D01*
X259081Y189370D01*
X257880Y188169D01*
X257230Y186599D01*
Y184901D01*
X257880Y183331D01*
X259081Y182130D01*
X260651Y181480D01*
X262349D01*
X263919Y182130D01*
X265120Y183331D01*
X265770Y184901D01*
Y186599D01*
X265120Y188169D01*
X263919Y189370D01*
X262349Y190020D01*
D02*
G37*
G36*
X195599Y183020D02*
X193901D01*
X192331Y182370D01*
X191130Y181169D01*
X190480Y179599D01*
Y177901D01*
X191130Y176331D01*
X192331Y175130D01*
X193901Y174480D01*
X195599D01*
X197169Y175130D01*
X198370Y176331D01*
X199020Y177901D01*
Y179599D01*
X198370Y181169D01*
X197169Y182370D01*
X195599Y183020D01*
D02*
G37*
G36*
X216849Y176520D02*
X215151D01*
X213581Y175870D01*
X212380Y174669D01*
X211730Y173099D01*
Y171401D01*
X212380Y169831D01*
X213581Y168630D01*
X215151Y167980D01*
X216849D01*
X218419Y168630D01*
X219620Y169831D01*
X220270Y171401D01*
Y173099D01*
X219620Y174669D01*
X218419Y175870D01*
X216849Y176520D01*
D02*
G37*
G36*
X398599Y173020D02*
X396901D01*
X395331Y172370D01*
X394130Y171169D01*
X393480Y169599D01*
Y167901D01*
X394130Y166331D01*
X395331Y165130D01*
X396901Y164480D01*
X398599D01*
X400169Y165130D01*
X401370Y166331D01*
X402020Y167901D01*
Y169599D01*
X401370Y171169D01*
X400169Y172370D01*
X398599Y173020D01*
D02*
G37*
G36*
X305349Y165770D02*
X303651D01*
X302081Y165120D01*
X300880Y163919D01*
X300230Y162349D01*
Y160651D01*
X300880Y159081D01*
X302081Y157880D01*
X303651Y157230D01*
X305349D01*
X306919Y157880D01*
X308120Y159081D01*
X308770Y160651D01*
Y162349D01*
X308120Y163919D01*
X306919Y165120D01*
X305349Y165770D01*
D02*
G37*
G36*
X118849Y162270D02*
X117151D01*
X115581Y161620D01*
X114380Y160419D01*
X113730Y158849D01*
Y157151D01*
X114380Y155581D01*
X115581Y154380D01*
X117151Y153730D01*
X118849D01*
X120419Y154380D01*
X121620Y155581D01*
X122270Y157151D01*
Y158849D01*
X121620Y160419D01*
X120419Y161620D01*
X118849Y162270D01*
D02*
G37*
G36*
X292599Y155520D02*
X290901D01*
X289331Y154870D01*
X288130Y153669D01*
X287480Y152099D01*
Y150401D01*
X288130Y148831D01*
X289331Y147630D01*
X290901Y146980D01*
X292599D01*
X294169Y147630D01*
X295370Y148831D01*
X296020Y150401D01*
Y152099D01*
X295370Y153669D01*
X294169Y154870D01*
X292599Y155520D01*
D02*
G37*
G36*
X99849Y155270D02*
X98151D01*
X96581Y154620D01*
X95380Y153419D01*
X94730Y151849D01*
Y150151D01*
X95380Y148581D01*
X96581Y147380D01*
X98151Y146730D01*
X99849D01*
X101419Y147380D01*
X102620Y148581D01*
X103270Y150151D01*
Y151849D01*
X102620Y153419D01*
X101419Y154620D01*
X99849Y155270D01*
D02*
G37*
G36*
X152099Y152770D02*
X150401D01*
X148831Y152120D01*
X147630Y150919D01*
X146980Y149349D01*
Y147651D01*
X147630Y146081D01*
X148831Y144880D01*
X150401Y144230D01*
X152099D01*
X153669Y144880D01*
X154870Y146081D01*
X155520Y147651D01*
Y149349D01*
X154870Y150919D01*
X153669Y152120D01*
X152099Y152770D01*
D02*
G37*
G36*
X108849Y148020D02*
X107151D01*
X105581Y147370D01*
X104380Y146169D01*
X103730Y144599D01*
Y142901D01*
X104380Y141331D01*
X105581Y140130D01*
X107151Y139480D01*
X108849D01*
X110419Y140130D01*
X111620Y141331D01*
X112270Y142901D01*
Y144599D01*
X111620Y146169D01*
X110419Y147370D01*
X108849Y148020D01*
D02*
G37*
G36*
X83349Y143770D02*
X81651D01*
X80081Y143120D01*
X78880Y141919D01*
X78230Y140349D01*
Y138651D01*
X78880Y137081D01*
X80081Y135880D01*
X81651Y135230D01*
X83349D01*
X84919Y135880D01*
X86120Y137081D01*
X86770Y138651D01*
Y140349D01*
X86120Y141919D01*
X84919Y143120D01*
X83349Y143770D01*
D02*
G37*
G36*
X271099Y135270D02*
X269401D01*
X267831Y134620D01*
X266630Y133419D01*
X265980Y131849D01*
Y130151D01*
X266630Y128581D01*
X267831Y127380D01*
X269401Y126730D01*
X271099D01*
X272669Y127380D01*
X273870Y128581D01*
X274520Y130151D01*
Y131849D01*
X273870Y133419D01*
X272669Y134620D01*
X271099Y135270D01*
D02*
G37*
G36*
X152099Y124020D02*
X150401D01*
X148831Y123370D01*
X147630Y122169D01*
X146980Y120599D01*
Y118901D01*
X147630Y117331D01*
X148831Y116130D01*
X150401Y115480D01*
X152099D01*
X153669Y116130D01*
X154870Y117331D01*
X155520Y118901D01*
Y120599D01*
X154870Y122169D01*
X153669Y123370D01*
X152099Y124020D01*
D02*
G37*
G36*
X281089Y116170D02*
X278911D01*
X276808Y115606D01*
X274922Y114518D01*
X273382Y112978D01*
X272294Y111092D01*
X271730Y108989D01*
Y106811D01*
X272294Y104708D01*
X273382Y102822D01*
X274922Y101282D01*
X276808Y100194D01*
X278911Y99630D01*
X281089D01*
X283192Y100194D01*
X285078Y101282D01*
X286618Y102822D01*
X287706Y104708D01*
X288270Y106811D01*
Y108989D01*
X287706Y111092D01*
X286618Y112978D01*
X285078Y114518D01*
X283192Y115606D01*
X281089Y116170D01*
D02*
G37*
G36*
Y90770D02*
X278911D01*
X276808Y90206D01*
X274922Y89118D01*
X273382Y87578D01*
X272294Y85692D01*
X271730Y83589D01*
Y81411D01*
X272294Y79308D01*
X273382Y77422D01*
X274922Y75882D01*
X276808Y74794D01*
X278911Y74230D01*
X281089D01*
X283192Y74794D01*
X285078Y75882D01*
X286618Y77422D01*
X287706Y79308D01*
X288270Y81411D01*
Y83589D01*
X287706Y85692D01*
X286618Y87578D01*
X285078Y89118D01*
X283192Y90206D01*
X281089Y90770D01*
D02*
G37*
G36*
X249849Y74020D02*
X248151D01*
X246581Y73370D01*
X245380Y72169D01*
X244730Y70599D01*
Y68901D01*
X245380Y67331D01*
X246581Y66130D01*
X248151Y65480D01*
X249849D01*
X251419Y66130D01*
X252620Y67331D01*
X253270Y68901D01*
Y70599D01*
X252620Y72169D01*
X251419Y73370D01*
X249849Y74020D01*
D02*
G37*
G36*
X314099Y61520D02*
X312401D01*
X310831Y60870D01*
X309630Y59669D01*
X308980Y58099D01*
Y56401D01*
X309630Y54831D01*
X310831Y53630D01*
X312401Y52980D01*
X314099D01*
X315669Y53630D01*
X316870Y54831D01*
X317520Y56401D01*
Y58099D01*
X316870Y59669D01*
X315669Y60870D01*
X314099Y61520D01*
D02*
G37*
G36*
X281089Y65370D02*
X278911D01*
X276808Y64806D01*
X274922Y63718D01*
X273382Y62178D01*
X272294Y60292D01*
X271730Y58189D01*
Y56011D01*
X272294Y53908D01*
X273382Y52022D01*
X274922Y50482D01*
X276808Y49394D01*
X278911Y48830D01*
X281089D01*
X283192Y49394D01*
X285078Y50482D01*
X286618Y52022D01*
X287706Y53908D01*
X288270Y56011D01*
Y58189D01*
X287706Y60292D01*
X286618Y62178D01*
X285078Y63718D01*
X283192Y64806D01*
X281089Y65370D01*
D02*
G37*
G36*
X86099Y50020D02*
X84401D01*
X82831Y49370D01*
X81630Y48169D01*
X80980Y46599D01*
Y44901D01*
X81630Y43331D01*
X82831Y42130D01*
X84401Y41480D01*
X86099D01*
X87669Y42130D01*
X88870Y43331D01*
X89520Y44901D01*
Y46599D01*
X88870Y48169D01*
X87669Y49370D01*
X86099Y50020D01*
D02*
G37*
G36*
X298599Y43020D02*
X296901D01*
X295331Y42370D01*
X294130Y41169D01*
X293480Y39599D01*
Y37901D01*
X294130Y36331D01*
X295331Y35130D01*
X296901Y34480D01*
X298599D01*
X300169Y35130D01*
X301370Y36331D01*
X302020Y37901D01*
Y39599D01*
X301370Y41169D01*
X300169Y42370D01*
X298599Y43020D01*
D02*
G37*
G36*
X249849Y39770D02*
X248151D01*
X246581Y39120D01*
X245380Y37919D01*
X244730Y36349D01*
Y34651D01*
X245380Y33081D01*
X246581Y31880D01*
X248151Y31230D01*
X249849D01*
X251419Y31880D01*
X252620Y33081D01*
X253270Y34651D01*
Y36349D01*
X252620Y37919D01*
X251419Y39120D01*
X249849Y39770D01*
D02*
G37*
G36*
X306099Y36020D02*
X304401D01*
X302831Y35370D01*
X301630Y34169D01*
X300980Y32599D01*
Y30901D01*
X301630Y29331D01*
X302831Y28130D01*
X304401Y27480D01*
X306099D01*
X307669Y28130D01*
X308870Y29331D01*
X309520Y30901D01*
Y32599D01*
X308870Y34169D01*
X307669Y35370D01*
X306099Y36020D01*
D02*
G37*
G36*
X76150Y23767D02*
X75996D01*
Y15997D01*
X83766D01*
Y16151D01*
X83168Y18382D01*
X82014Y20382D01*
X80381Y22014D01*
X78381Y23169D01*
X76150Y23767D01*
D02*
G37*
G36*
X73996D02*
X73841D01*
X71611Y23169D01*
X69611Y22014D01*
X67978Y20382D01*
X66823Y18382D01*
X66226Y16151D01*
Y15997D01*
X73996D01*
Y23767D01*
D02*
G37*
G36*
X486333Y39501D02*
X483772D01*
X483575Y39462D01*
X483374D01*
X480863Y38962D01*
X480677Y38885D01*
X480480Y38846D01*
X478114Y37866D01*
X477947Y37755D01*
X477762Y37678D01*
X475633Y36255D01*
X475491Y36113D01*
X475324Y36002D01*
X473513Y34191D01*
X473401Y34024D01*
X473259Y33882D01*
X471837Y31753D01*
X471760Y31567D01*
X471648Y31400D01*
X470668Y29034D01*
X470629Y28837D01*
X470552Y28651D01*
X470052Y26140D01*
Y25939D01*
X470013Y25742D01*
Y23181D01*
X470052Y22984D01*
Y22784D01*
X470552Y20272D01*
X470629Y20087D01*
X470668Y19889D01*
X471648Y17524D01*
X471760Y17357D01*
X471837Y17171D01*
X473259Y15042D01*
X473401Y14900D01*
X473513Y14733D01*
X475324Y12922D01*
X475491Y12810D01*
X475633Y12668D01*
X477762Y11246D01*
X477947Y11169D01*
X478114Y11057D01*
X480480Y10077D01*
X480677Y10038D01*
X480863Y9961D01*
X483374Y9462D01*
X483575D01*
X483772Y9423D01*
X486333D01*
X486530Y9462D01*
X486731D01*
X489242Y9961D01*
X489428Y10038D01*
X489625Y10077D01*
X491991Y11057D01*
X492158Y11169D01*
X492343Y11246D01*
X494472Y12668D01*
X494614Y12810D01*
X494781Y12922D01*
X496592Y14733D01*
X496704Y14900D01*
X496846Y15042D01*
X498269Y17171D01*
X498345Y17357D01*
X498457Y17524D01*
X499437Y19889D01*
X499476Y20087D01*
X499553Y20272D01*
X500052Y22784D01*
Y22984D01*
X500092Y23181D01*
Y25742D01*
X500052Y25939D01*
Y26140D01*
X499553Y28652D01*
X499476Y28837D01*
X499437Y29034D01*
X498457Y31400D01*
X498345Y31567D01*
X498269Y31753D01*
X496846Y33882D01*
X496704Y34024D01*
X496592Y34191D01*
X494781Y36002D01*
X494614Y36113D01*
X494472Y36255D01*
X492343Y37678D01*
X492158Y37755D01*
X491991Y37866D01*
X489625Y38846D01*
X489428Y38885D01*
X489242Y38962D01*
X486731Y39462D01*
X486530D01*
X486333Y39501D01*
D02*
G37*
G36*
X26333D02*
X23772D01*
X23575Y39462D01*
X23374D01*
X20863Y38962D01*
X20677Y38885D01*
X20480Y38846D01*
X18114Y37866D01*
X17947Y37755D01*
X17762Y37678D01*
X15633Y36255D01*
X15491Y36113D01*
X15324Y36002D01*
X13513Y34191D01*
X13401Y34024D01*
X13259Y33882D01*
X11837Y31753D01*
X11760Y31567D01*
X11648Y31400D01*
X10668Y29034D01*
X10629Y28837D01*
X10552Y28651D01*
X10052Y26140D01*
Y25939D01*
X10013Y25742D01*
Y23181D01*
X10052Y22984D01*
Y22784D01*
X10552Y20272D01*
X10629Y20087D01*
X10668Y19889D01*
X11648Y17524D01*
X11760Y17357D01*
X11837Y17171D01*
X13259Y15042D01*
X13401Y14900D01*
X13513Y14733D01*
X15324Y12922D01*
X15491Y12810D01*
X15633Y12668D01*
X17762Y11246D01*
X17947Y11169D01*
X18114Y11057D01*
X20480Y10077D01*
X20677Y10038D01*
X20863Y9961D01*
X23374Y9462D01*
X23575D01*
X23772Y9423D01*
X26333D01*
X26530Y9462D01*
X26731D01*
X29242Y9961D01*
X29428Y10038D01*
X29625Y10077D01*
X31991Y11057D01*
X32158Y11169D01*
X32343Y11246D01*
X34472Y12668D01*
X34614Y12810D01*
X34781Y12922D01*
X36592Y14733D01*
X36704Y14900D01*
X36846Y15042D01*
X38268Y17171D01*
X38345Y17357D01*
X38457Y17524D01*
X39437Y19889D01*
X39476Y20087D01*
X39553Y20272D01*
X40052Y22784D01*
Y22984D01*
X40092Y23181D01*
Y25742D01*
X40052Y25939D01*
Y26140D01*
X39553Y28652D01*
X39476Y28837D01*
X39437Y29034D01*
X38457Y31400D01*
X38345Y31567D01*
X38268Y31753D01*
X36846Y33882D01*
X36704Y34024D01*
X36592Y34191D01*
X34781Y36002D01*
X34614Y36113D01*
X34472Y36255D01*
X32343Y37678D01*
X32158Y37755D01*
X31991Y37866D01*
X29625Y38846D01*
X29428Y38885D01*
X29242Y38962D01*
X26731Y39462D01*
X26530D01*
X26333Y39501D01*
D02*
G37*
G36*
X431150Y23767D02*
X428840D01*
X426610Y23169D01*
X424610Y22014D01*
X422977Y20382D01*
X421823Y18382D01*
X421225Y16151D01*
Y13842D01*
X421823Y11612D01*
X422977Y9612D01*
X424610Y7979D01*
X426610Y6824D01*
X428840Y6227D01*
X431150D01*
X433380Y6824D01*
X435380Y7979D01*
X437013Y9612D01*
X438167Y11612D01*
X438765Y13842D01*
Y16151D01*
X438167Y18382D01*
X437013Y20382D01*
X435380Y22014D01*
X433380Y23169D01*
X431150Y23767D01*
D02*
G37*
G36*
X386150D02*
X383841D01*
X381610Y23169D01*
X379610Y22014D01*
X377977Y20382D01*
X376823Y18382D01*
X376225Y16151D01*
Y13842D01*
X376823Y11612D01*
X377977Y9612D01*
X379610Y7979D01*
X381610Y6824D01*
X383841Y6227D01*
X386150D01*
X388380Y6824D01*
X390380Y7979D01*
X392013Y9612D01*
X393167Y11612D01*
X393765Y13842D01*
Y16151D01*
X393167Y18382D01*
X392013Y20382D01*
X390380Y22014D01*
X388380Y23169D01*
X386150Y23767D01*
D02*
G37*
G36*
X341150D02*
X338841D01*
X336610Y23169D01*
X334610Y22014D01*
X332977Y20382D01*
X331823Y18382D01*
X331225Y16151D01*
Y13842D01*
X331823Y11612D01*
X332977Y9612D01*
X334610Y7979D01*
X336610Y6824D01*
X338841Y6227D01*
X341150D01*
X343380Y6824D01*
X345380Y7979D01*
X347013Y9612D01*
X348168Y11612D01*
X348765Y13842D01*
Y16151D01*
X348168Y18382D01*
X347013Y20382D01*
X345380Y22014D01*
X343380Y23169D01*
X341150Y23767D01*
D02*
G37*
G36*
X296150D02*
X293841D01*
X291610Y23169D01*
X289610Y22014D01*
X287978Y20382D01*
X286823Y18382D01*
X286225Y16151D01*
Y13842D01*
X286823Y11612D01*
X287978Y9612D01*
X289610Y7979D01*
X291610Y6824D01*
X293841Y6227D01*
X296150D01*
X298380Y6824D01*
X300380Y7979D01*
X302013Y9612D01*
X303168Y11612D01*
X303765Y13842D01*
Y16151D01*
X303168Y18382D01*
X302013Y20382D01*
X300380Y22014D01*
X298380Y23169D01*
X296150Y23767D01*
D02*
G37*
G36*
X251150D02*
X248841D01*
X246610Y23169D01*
X244611Y22014D01*
X242978Y20382D01*
X241823Y18382D01*
X241225Y16151D01*
Y13842D01*
X241823Y11612D01*
X242978Y9612D01*
X244611Y7979D01*
X246610Y6824D01*
X248841Y6227D01*
X251150D01*
X253381Y6824D01*
X255380Y7979D01*
X257013Y9612D01*
X258168Y11612D01*
X258765Y13842D01*
Y16151D01*
X258168Y18382D01*
X257013Y20382D01*
X255380Y22014D01*
X253381Y23169D01*
X251150Y23767D01*
D02*
G37*
G36*
X206150D02*
X203841D01*
X201610Y23169D01*
X199611Y22014D01*
X197978Y20382D01*
X196823Y18382D01*
X196225Y16151D01*
Y13842D01*
X196823Y11612D01*
X197978Y9612D01*
X199611Y7979D01*
X201610Y6824D01*
X203841Y6227D01*
X206150D01*
X208381Y6824D01*
X210380Y7979D01*
X212013Y9612D01*
X213168Y11612D01*
X213766Y13842D01*
Y16151D01*
X213168Y18382D01*
X212013Y20382D01*
X210380Y22014D01*
X208381Y23169D01*
X206150Y23767D01*
D02*
G37*
G36*
X161150D02*
X158841D01*
X156610Y23169D01*
X154611Y22014D01*
X152978Y20382D01*
X151823Y18382D01*
X151226Y16151D01*
Y13842D01*
X151823Y11612D01*
X152978Y9612D01*
X154611Y7979D01*
X156610Y6824D01*
X158841Y6227D01*
X161150D01*
X163381Y6824D01*
X165380Y7979D01*
X167013Y9612D01*
X168168Y11612D01*
X168766Y13842D01*
Y16151D01*
X168168Y18382D01*
X167013Y20382D01*
X165380Y22014D01*
X163381Y23169D01*
X161150Y23767D01*
D02*
G37*
G36*
X116150D02*
X113841D01*
X111611Y23169D01*
X109611Y22014D01*
X107978Y20382D01*
X106823Y18382D01*
X106226Y16151D01*
Y13842D01*
X106823Y11612D01*
X107978Y9612D01*
X109611Y7979D01*
X111611Y6824D01*
X113841Y6227D01*
X116150D01*
X118381Y6824D01*
X120381Y7979D01*
X122013Y9612D01*
X123168Y11612D01*
X123766Y13842D01*
Y16151D01*
X123168Y18382D01*
X122013Y20382D01*
X120381Y22014D01*
X118381Y23169D01*
X116150Y23767D01*
D02*
G37*
G36*
X83766Y13997D02*
X75996D01*
Y6227D01*
X76150D01*
X78381Y6824D01*
X80381Y7979D01*
X82014Y9612D01*
X83168Y11612D01*
X83766Y13842D01*
Y13997D01*
D02*
G37*
G36*
X73996D02*
X66226D01*
Y13842D01*
X66823Y11612D01*
X67978Y9612D01*
X69611Y7979D01*
X71611Y6824D01*
X73841Y6227D01*
X73996D01*
Y13997D01*
D02*
G37*
%LPD*%
D71*
X74996Y14997D02*
D03*
D73*
X82250Y263250D02*
D03*
X67250Y93250D02*
D03*
X143500Y379250D02*
D03*
X415500Y429500D02*
D03*
X468500Y368500D02*
D03*
X421500Y367750D02*
D03*
X455500Y58500D02*
D03*
X399250Y66750D02*
D03*
X490000Y123500D02*
D03*
X432000Y124000D02*
D03*
X234250Y112250D02*
D03*
X29000Y70500D02*
D03*
X29500Y116500D02*
D03*
Y163250D02*
D03*
X46500Y326250D02*
D03*
X46750Y370250D02*
D03*
Y417000D02*
D03*
X180000Y443500D02*
D03*
X126750Y164250D02*
D03*
X207250Y60750D02*
D03*
X408500Y471000D02*
D03*
X421750Y267250D02*
D03*
Y222500D02*
D03*
X115250Y263250D02*
D03*
X300250Y234250D02*
D03*
X267500Y246250D02*
D03*
X311250Y255000D02*
D03*
X80000Y230000D02*
D03*
X28000Y258000D02*
D03*
X9000Y251000D02*
D03*
X12000Y226000D02*
D03*
X9000Y271000D02*
D03*
X195250Y231500D02*
D03*
X360000Y249000D02*
D03*
X227250Y171750D02*
D03*
X86000Y195500D02*
D03*
X118250Y143750D02*
D03*
X129000Y221000D02*
D03*
X485000Y86000D02*
D03*
X111000Y479000D02*
D03*
X243000Y414000D02*
D03*
X355000Y466000D02*
D03*
X383000Y377000D02*
D03*
X324000Y379000D02*
D03*
X466000Y401000D02*
D03*
X323000Y154000D02*
D03*
X323250Y113500D02*
D03*
X324000Y75000D02*
D03*
X162000Y84500D02*
D03*
X163000Y60000D02*
D03*
X71000Y207000D02*
D03*
X123500Y278250D02*
D03*
X118000Y302000D02*
D03*
X200500Y371500D02*
D03*
X155000Y342000D02*
D03*
X309500Y320500D02*
D03*
X303000Y359000D02*
D03*
X267500Y345500D02*
D03*
X273000Y393500D02*
D03*
X101000Y388000D02*
D03*
X171000Y254000D02*
D03*
X220000Y208000D02*
D03*
X231000Y275000D02*
D03*
Y306000D02*
D03*
X252000Y292000D02*
D03*
X207000D02*
D03*
X252000Y267000D02*
D03*
X207000Y268000D02*
D03*
X252000Y313000D02*
D03*
X207000Y312000D02*
D03*
X241000Y233000D02*
D03*
X181750Y221250D02*
D03*
X78000Y169000D02*
D03*
X67750Y147250D02*
D03*
X128750Y478750D02*
D03*
M02*
